M48
; DRILL file {KiCad (5.1.10)-1} date 01/19/22 22:22:38
; FORMAT={-:-/ absolute / metric / decimal}
; #@! TF.CreationDate,2022-01-19T22:22:38+01:00
; #@! TF.GenerationSoftware,Kicad,Pcbnew,(5.1.10)-1
; #@! TF.FileFunction,Plated,1,2,PTH
FMAT,2
METRIC
T1C0.400
T2C0.762
T3C0.920
T4C0.950
T5C1.000
T6C2.330
%
G90
G05
T1
X104.0Y-98.9
X111.2Y-96.9
X111.6Y-110.4
X140.7Y-112.9
X146.4Y-114.5
X150.6Y-114.3
T2
X113.729Y-75.796
X113.729Y-78.336
X113.729Y-87.0
X113.729Y-89.604
X132.271Y-75.796
X132.271Y-78.336
X132.271Y-87.064
X132.271Y-89.604
T3
X98.3Y-82.4
X98.3Y-84.9
X100.3Y-82.4
X100.3Y-84.9
T4
X140.4Y-77.5
X140.4Y-80.0
X140.4Y-82.5
T5
X90.7Y-96.8
X93.2Y-96.8
X108.0Y-76.98
X108.0Y-79.52
X108.0Y-82.06
X108.0Y-84.6
X118.1Y-113.5
X120.64Y-113.5
X126.54Y-93.0
X126.54Y-108.24
X127.1Y-113.5
X129.08Y-93.0
X129.08Y-108.24
X129.64Y-113.5
X131.62Y-93.0
X131.62Y-108.24
X134.16Y-93.0
X134.16Y-108.24
X136.7Y-93.0
X136.7Y-108.24
X139.24Y-93.0
X139.24Y-108.24
X141.78Y-93.0
X141.78Y-108.24
X144.32Y-93.0
X144.32Y-108.24
X146.86Y-93.0
X146.86Y-108.24
X149.4Y-93.0
X149.4Y-108.24
X151.94Y-93.0
X151.94Y-108.24
X154.48Y-93.0
X154.48Y-108.24
X156.2Y-111.9
X156.2Y-114.44
X157.02Y-93.0
X157.02Y-108.24
X159.56Y-93.0
X159.56Y-108.24
X162.1Y-93.0
X162.1Y-108.24
T6
X95.59Y-77.63
X95.59Y-89.67
T5
X92.8Y-107.4G85X92.8Y-109.4
G05
X94.8Y-113.1G85X96.8Y-113.1
G05
X98.8Y-107.4G85X98.8Y-109.4
G05
T0
M30
