%FSLAX45Y45*%
G04 Gerber Fmt 4.5, Leading zero omitted, Abs format (unit mm)*
G04 Created by KiCad (PCBNEW (5.1.10)-1) date 2022-01-19 22:22:53*
%MOMM*%
%LPD*%
G01*
G04 APERTURE LIST*
%TA.AperFunction,Profile*%
%ADD10C,0.050000*%
%TD*%
%ADD11C,0.200000*%
%ADD12C,0.300000*%
G04 APERTURE END LIST*
D10*
X14440000Y-7175000D02*
X14440000Y-9010000D01*
X14440000Y-9010000D02*
X16640000Y-9010000D01*
X8640000Y-11885000D02*
X16640000Y-11885000D01*
X16640000Y-9010000D02*
X16640000Y-11885000D01*
X8640000Y-7175000D02*
X8640000Y-11885000D01*
X8640000Y-7175000D02*
X14440000Y-7175000D01*
D11*
X10380000Y-9870000D02*
X10420000Y-9910000D01*
X10420000Y-9870000D02*
X10380000Y-9910000D01*
X11100000Y-9670000D02*
X11140000Y-9710000D01*
X11140000Y-9670000D02*
X11100000Y-9710000D01*
X11140000Y-11020000D02*
X11180000Y-11060000D01*
X11180000Y-11020000D02*
X11140000Y-11060000D01*
X14050000Y-11270000D02*
X14090000Y-11310000D01*
X14090000Y-11270000D02*
X14050000Y-11310000D01*
X14620000Y-11430000D02*
X14660000Y-11470000D01*
X14660000Y-11430000D02*
X14620000Y-11470000D01*
X15040000Y-11410000D02*
X15080000Y-11450000D01*
X15080000Y-11410000D02*
X15040000Y-11450000D01*
X11411000Y-7579600D02*
G75*
G03*
X11411000Y-7579600I-38100J0D01*
G01*
X11411000Y-7833600D02*
G75*
G03*
X11411000Y-7833600I-38100J0D01*
G01*
X11411000Y-8700000D02*
G75*
G03*
X11411000Y-8700000I-38100J0D01*
G01*
X11411000Y-8960400D02*
G75*
G03*
X11411000Y-8960400I-38100J0D01*
G01*
X13265200Y-7579600D02*
G75*
G03*
X13265200Y-7579600I-38100J0D01*
G01*
X13265200Y-7833600D02*
G75*
G03*
X13265200Y-7833600I-38100J0D01*
G01*
X13265200Y-8706400D02*
G75*
G03*
X13265200Y-8706400I-38100J0D01*
G01*
X13265200Y-8960400D02*
G75*
G03*
X13265200Y-8960400I-38100J0D01*
G01*
X9830000Y-8194000D02*
X9830000Y-8286000D01*
X9784000Y-8240000D02*
X9876000Y-8240000D01*
X9830000Y-8444000D02*
X9830000Y-8536000D01*
X9784000Y-8490000D02*
X9876000Y-8490000D01*
X10030000Y-8194000D02*
X10030000Y-8286000D01*
X9984000Y-8240000D02*
X10076000Y-8240000D01*
X10030000Y-8444000D02*
X10030000Y-8536000D01*
X9984000Y-8490000D02*
X10076000Y-8490000D01*
X14073588Y-7783588D02*
X14073588Y-7716412D01*
X14006412Y-7716412D01*
X14006412Y-7783588D01*
X14073588Y-7783588D01*
X14073588Y-8033588D02*
X14073588Y-7966412D01*
X14006412Y-7966412D01*
X14006412Y-8033588D01*
X14073588Y-8033588D01*
X14073588Y-8283588D02*
X14073588Y-8216412D01*
X14006412Y-8216412D01*
X14006412Y-8283588D01*
X14073588Y-8283588D01*
X9070000Y-9730000D02*
X9120000Y-9680000D01*
X9070000Y-9630000D01*
X9020000Y-9680000D01*
X9070000Y-9730000D01*
X9280000Y-10890000D02*
X9330000Y-10840000D01*
X9280000Y-10790000D01*
X9230000Y-10840000D01*
X9280000Y-10890000D01*
X9240000Y-10740000D02*
X9240000Y-10940000D01*
X9320000Y-10740000D02*
X9320000Y-10940000D01*
X9240000Y-10940000D02*
G75*
G03*
X9320000Y-10940000I40000J0D01*
G01*
X9320000Y-10740000D02*
G75*
G03*
X9240000Y-10740000I-40000J0D01*
G01*
X9320000Y-9730000D02*
X9370000Y-9680000D01*
X9320000Y-9630000D01*
X9270000Y-9680000D01*
X9320000Y-9730000D01*
X9580000Y-11360000D02*
X9630000Y-11310000D01*
X9580000Y-11260000D01*
X9530000Y-11310000D01*
X9580000Y-11360000D01*
X9480000Y-11350000D02*
X9680000Y-11350000D01*
X9480000Y-11270000D02*
X9680000Y-11270000D01*
X9680000Y-11350000D02*
G75*
G03*
X9680000Y-11270000I0J40000D01*
G01*
X9480000Y-11270000D02*
G75*
G03*
X9480000Y-11350000I0J-40000D01*
G01*
X9880000Y-10890000D02*
X9930000Y-10840000D01*
X9880000Y-10790000D01*
X9830000Y-10840000D01*
X9880000Y-10890000D01*
X9840000Y-10740000D02*
X9840000Y-10940000D01*
X9920000Y-10740000D02*
X9920000Y-10940000D01*
X9840000Y-10940000D02*
G75*
G03*
X9920000Y-10940000I40000J0D01*
G01*
X9920000Y-10740000D02*
G75*
G03*
X9840000Y-10740000I-40000J0D01*
G01*
X10800000Y-7748000D02*
X10850000Y-7698000D01*
X10800000Y-7648000D01*
X10750000Y-7698000D01*
X10800000Y-7748000D01*
X10800000Y-8002000D02*
X10850000Y-7952000D01*
X10800000Y-7902000D01*
X10750000Y-7952000D01*
X10800000Y-8002000D01*
X10800000Y-8256000D02*
X10850000Y-8206000D01*
X10800000Y-8156000D01*
X10750000Y-8206000D01*
X10800000Y-8256000D01*
X10800000Y-8510000D02*
X10850000Y-8460000D01*
X10800000Y-8410000D01*
X10750000Y-8460000D01*
X10800000Y-8510000D01*
X11810000Y-11400000D02*
X11860000Y-11350000D01*
X11810000Y-11300000D01*
X11760000Y-11350000D01*
X11810000Y-11400000D01*
X12064000Y-11400000D02*
X12114000Y-11350000D01*
X12064000Y-11300000D01*
X12014000Y-11350000D01*
X12064000Y-11400000D01*
X12654000Y-9350000D02*
X12704000Y-9300000D01*
X12654000Y-9250000D01*
X12604000Y-9300000D01*
X12654000Y-9350000D01*
X12654000Y-10874000D02*
X12704000Y-10824000D01*
X12654000Y-10774000D01*
X12604000Y-10824000D01*
X12654000Y-10874000D01*
X12710000Y-11400000D02*
X12760000Y-11350000D01*
X12710000Y-11300000D01*
X12660000Y-11350000D01*
X12710000Y-11400000D01*
X12908000Y-9350000D02*
X12958000Y-9300000D01*
X12908000Y-9250000D01*
X12858000Y-9300000D01*
X12908000Y-9350000D01*
X12908000Y-10874000D02*
X12958000Y-10824000D01*
X12908000Y-10774000D01*
X12858000Y-10824000D01*
X12908000Y-10874000D01*
X12964000Y-11400000D02*
X13014000Y-11350000D01*
X12964000Y-11300000D01*
X12914000Y-11350000D01*
X12964000Y-11400000D01*
X13162000Y-9350000D02*
X13212000Y-9300000D01*
X13162000Y-9250000D01*
X13112000Y-9300000D01*
X13162000Y-9350000D01*
X13162000Y-10874000D02*
X13212000Y-10824000D01*
X13162000Y-10774000D01*
X13112000Y-10824000D01*
X13162000Y-10874000D01*
X13416000Y-9350000D02*
X13466000Y-9300000D01*
X13416000Y-9250000D01*
X13366000Y-9300000D01*
X13416000Y-9350000D01*
X13416000Y-10874000D02*
X13466000Y-10824000D01*
X13416000Y-10774000D01*
X13366000Y-10824000D01*
X13416000Y-10874000D01*
X13670000Y-9350000D02*
X13720000Y-9300000D01*
X13670000Y-9250000D01*
X13620000Y-9300000D01*
X13670000Y-9350000D01*
X13670000Y-10874000D02*
X13720000Y-10824000D01*
X13670000Y-10774000D01*
X13620000Y-10824000D01*
X13670000Y-10874000D01*
X13924000Y-9350000D02*
X13974000Y-9300000D01*
X13924000Y-9250000D01*
X13874000Y-9300000D01*
X13924000Y-9350000D01*
X13924000Y-10874000D02*
X13974000Y-10824000D01*
X13924000Y-10774000D01*
X13874000Y-10824000D01*
X13924000Y-10874000D01*
X14178000Y-9350000D02*
X14228000Y-9300000D01*
X14178000Y-9250000D01*
X14128000Y-9300000D01*
X14178000Y-9350000D01*
X14178000Y-10874000D02*
X14228000Y-10824000D01*
X14178000Y-10774000D01*
X14128000Y-10824000D01*
X14178000Y-10874000D01*
X14432000Y-9350000D02*
X14482000Y-9300000D01*
X14432000Y-9250000D01*
X14382000Y-9300000D01*
X14432000Y-9350000D01*
X14432000Y-10874000D02*
X14482000Y-10824000D01*
X14432000Y-10774000D01*
X14382000Y-10824000D01*
X14432000Y-10874000D01*
X14686000Y-9350000D02*
X14736000Y-9300000D01*
X14686000Y-9250000D01*
X14636000Y-9300000D01*
X14686000Y-9350000D01*
X14686000Y-10874000D02*
X14736000Y-10824000D01*
X14686000Y-10774000D01*
X14636000Y-10824000D01*
X14686000Y-10874000D01*
X14940000Y-9350000D02*
X14990000Y-9300000D01*
X14940000Y-9250000D01*
X14890000Y-9300000D01*
X14940000Y-9350000D01*
X14940000Y-10874000D02*
X14990000Y-10824000D01*
X14940000Y-10774000D01*
X14890000Y-10824000D01*
X14940000Y-10874000D01*
X15194000Y-9350000D02*
X15244000Y-9300000D01*
X15194000Y-9250000D01*
X15144000Y-9300000D01*
X15194000Y-9350000D01*
X15194000Y-10874000D02*
X15244000Y-10824000D01*
X15194000Y-10774000D01*
X15144000Y-10824000D01*
X15194000Y-10874000D01*
X15448000Y-9350000D02*
X15498000Y-9300000D01*
X15448000Y-9250000D01*
X15398000Y-9300000D01*
X15448000Y-9350000D01*
X15448000Y-10874000D02*
X15498000Y-10824000D01*
X15448000Y-10774000D01*
X15398000Y-10824000D01*
X15448000Y-10874000D01*
X15620000Y-11240000D02*
X15670000Y-11190000D01*
X15620000Y-11140000D01*
X15570000Y-11190000D01*
X15620000Y-11240000D01*
X15620000Y-11494000D02*
X15670000Y-11444000D01*
X15620000Y-11394000D01*
X15570000Y-11444000D01*
X15620000Y-11494000D01*
X15702000Y-9350000D02*
X15752000Y-9300000D01*
X15702000Y-9250000D01*
X15652000Y-9300000D01*
X15702000Y-9350000D01*
X15702000Y-10874000D02*
X15752000Y-10824000D01*
X15702000Y-10774000D01*
X15652000Y-10824000D01*
X15702000Y-10874000D01*
X15956000Y-9350000D02*
X16006000Y-9300000D01*
X15956000Y-9250000D01*
X15906000Y-9300000D01*
X15956000Y-9350000D01*
X15956000Y-10874000D02*
X16006000Y-10824000D01*
X15956000Y-10774000D01*
X15906000Y-10824000D01*
X15956000Y-10874000D01*
X16210000Y-9350000D02*
X16260000Y-9300000D01*
X16210000Y-9250000D01*
X16160000Y-9300000D01*
X16210000Y-9350000D01*
X16210000Y-10874000D02*
X16260000Y-10824000D01*
X16210000Y-10774000D01*
X16160000Y-10824000D01*
X16210000Y-10874000D01*
X9442500Y-7646500D02*
X9675500Y-7879500D01*
X9675500Y-7646500D02*
X9442500Y-7879500D01*
X9675500Y-7763000D02*
G75*
G03*
X9675500Y-7763000I-116500J0D01*
G01*
X9442500Y-8850500D02*
X9675500Y-9083500D01*
X9675500Y-8850500D02*
X9442500Y-9083500D01*
X9675500Y-8967000D02*
G75*
G03*
X9675500Y-8967000I-116500J0D01*
G01*
D12*
X8923928Y-12353214D02*
X8923928Y-12053214D01*
X8995357Y-12053214D01*
X9038214Y-12067500D01*
X9066786Y-12096071D01*
X9081071Y-12124643D01*
X9095357Y-12181786D01*
X9095357Y-12224643D01*
X9081071Y-12281786D01*
X9066786Y-12310357D01*
X9038214Y-12338929D01*
X8995357Y-12353214D01*
X8923928Y-12353214D01*
X9223928Y-12353214D02*
X9223928Y-12153214D01*
X9223928Y-12210357D02*
X9238214Y-12181786D01*
X9252500Y-12167500D01*
X9281071Y-12153214D01*
X9309643Y-12153214D01*
X9409643Y-12353214D02*
X9409643Y-12153214D01*
X9409643Y-12053214D02*
X9395357Y-12067500D01*
X9409643Y-12081786D01*
X9423928Y-12067500D01*
X9409643Y-12053214D01*
X9409643Y-12081786D01*
X9595357Y-12353214D02*
X9566786Y-12338929D01*
X9552500Y-12310357D01*
X9552500Y-12053214D01*
X9752500Y-12353214D02*
X9723928Y-12338929D01*
X9709643Y-12310357D01*
X9709643Y-12053214D01*
X10095357Y-12353214D02*
X10095357Y-12053214D01*
X10195357Y-12267500D01*
X10295357Y-12053214D01*
X10295357Y-12353214D01*
X10566786Y-12353214D02*
X10566786Y-12196071D01*
X10552500Y-12167500D01*
X10523928Y-12153214D01*
X10466786Y-12153214D01*
X10438214Y-12167500D01*
X10566786Y-12338929D02*
X10538214Y-12353214D01*
X10466786Y-12353214D01*
X10438214Y-12338929D01*
X10423928Y-12310357D01*
X10423928Y-12281786D01*
X10438214Y-12253214D01*
X10466786Y-12238929D01*
X10538214Y-12238929D01*
X10566786Y-12224643D01*
X10709643Y-12153214D02*
X10709643Y-12453214D01*
X10709643Y-12167500D02*
X10738214Y-12153214D01*
X10795357Y-12153214D01*
X10823928Y-12167500D01*
X10838214Y-12181786D01*
X10852500Y-12210357D01*
X10852500Y-12296071D01*
X10838214Y-12324643D01*
X10823928Y-12338929D01*
X10795357Y-12353214D01*
X10738214Y-12353214D01*
X10709643Y-12338929D01*
X10981071Y-12324643D02*
X10995357Y-12338929D01*
X10981071Y-12353214D01*
X10966786Y-12338929D01*
X10981071Y-12324643D01*
X10981071Y-12353214D01*
X10981071Y-12167500D02*
X10995357Y-12181786D01*
X10981071Y-12196071D01*
X10966786Y-12181786D01*
X10981071Y-12167500D01*
X10981071Y-12196071D01*
X8597500Y-12827500D02*
X8637500Y-12867500D01*
X8637500Y-12827500D02*
X8597500Y-12867500D01*
X8981071Y-12683214D02*
X9009643Y-12683214D01*
X9038214Y-12697500D01*
X9052500Y-12711786D01*
X9066786Y-12740357D01*
X9081071Y-12797500D01*
X9081071Y-12868929D01*
X9066786Y-12926071D01*
X9052500Y-12954643D01*
X9038214Y-12968929D01*
X9009643Y-12983214D01*
X8981071Y-12983214D01*
X8952500Y-12968929D01*
X8938214Y-12954643D01*
X8923928Y-12926071D01*
X8909643Y-12868929D01*
X8909643Y-12797500D01*
X8923928Y-12740357D01*
X8938214Y-12711786D01*
X8952500Y-12697500D01*
X8981071Y-12683214D01*
X9209643Y-12954643D02*
X9223928Y-12968929D01*
X9209643Y-12983214D01*
X9195357Y-12968929D01*
X9209643Y-12954643D01*
X9209643Y-12983214D01*
X9481071Y-12783214D02*
X9481071Y-12983214D01*
X9409643Y-12668929D02*
X9338214Y-12883214D01*
X9523928Y-12883214D01*
X9695357Y-12683214D02*
X9723928Y-12683214D01*
X9752500Y-12697500D01*
X9766786Y-12711786D01*
X9781071Y-12740357D01*
X9795357Y-12797500D01*
X9795357Y-12868929D01*
X9781071Y-12926071D01*
X9766786Y-12954643D01*
X9752500Y-12968929D01*
X9723928Y-12983214D01*
X9695357Y-12983214D01*
X9666786Y-12968929D01*
X9652500Y-12954643D01*
X9638214Y-12926071D01*
X9623928Y-12868929D01*
X9623928Y-12797500D01*
X9638214Y-12740357D01*
X9652500Y-12711786D01*
X9666786Y-12697500D01*
X9695357Y-12683214D01*
X9981071Y-12683214D02*
X10009643Y-12683214D01*
X10038214Y-12697500D01*
X10052500Y-12711786D01*
X10066786Y-12740357D01*
X10081071Y-12797500D01*
X10081071Y-12868929D01*
X10066786Y-12926071D01*
X10052500Y-12954643D01*
X10038214Y-12968929D01*
X10009643Y-12983214D01*
X9981071Y-12983214D01*
X9952500Y-12968929D01*
X9938214Y-12954643D01*
X9923928Y-12926071D01*
X9909643Y-12868929D01*
X9909643Y-12797500D01*
X9923928Y-12740357D01*
X9938214Y-12711786D01*
X9952500Y-12697500D01*
X9981071Y-12683214D01*
X10209643Y-12983214D02*
X10209643Y-12783214D01*
X10209643Y-12811786D02*
X10223928Y-12797500D01*
X10252500Y-12783214D01*
X10295357Y-12783214D01*
X10323928Y-12797500D01*
X10338214Y-12826071D01*
X10338214Y-12983214D01*
X10338214Y-12826071D02*
X10352500Y-12797500D01*
X10381071Y-12783214D01*
X10423928Y-12783214D01*
X10452500Y-12797500D01*
X10466786Y-12826071D01*
X10466786Y-12983214D01*
X10609643Y-12983214D02*
X10609643Y-12783214D01*
X10609643Y-12811786D02*
X10623928Y-12797500D01*
X10652500Y-12783214D01*
X10695357Y-12783214D01*
X10723928Y-12797500D01*
X10738214Y-12826071D01*
X10738214Y-12983214D01*
X10738214Y-12826071D02*
X10752500Y-12797500D01*
X10781071Y-12783214D01*
X10823928Y-12783214D01*
X10852500Y-12797500D01*
X10866786Y-12826071D01*
X10866786Y-12983214D01*
X11452500Y-12668929D02*
X11195357Y-13054643D01*
X11838214Y-12683214D02*
X11866786Y-12683214D01*
X11895357Y-12697500D01*
X11909643Y-12711786D01*
X11923928Y-12740357D01*
X11938214Y-12797500D01*
X11938214Y-12868929D01*
X11923928Y-12926071D01*
X11909643Y-12954643D01*
X11895357Y-12968929D01*
X11866786Y-12983214D01*
X11838214Y-12983214D01*
X11809643Y-12968929D01*
X11795357Y-12954643D01*
X11781071Y-12926071D01*
X11766786Y-12868929D01*
X11766786Y-12797500D01*
X11781071Y-12740357D01*
X11795357Y-12711786D01*
X11809643Y-12697500D01*
X11838214Y-12683214D01*
X12066786Y-12954643D02*
X12081071Y-12968929D01*
X12066786Y-12983214D01*
X12052500Y-12968929D01*
X12066786Y-12954643D01*
X12066786Y-12983214D01*
X12266786Y-12683214D02*
X12295357Y-12683214D01*
X12323928Y-12697500D01*
X12338214Y-12711786D01*
X12352500Y-12740357D01*
X12366786Y-12797500D01*
X12366786Y-12868929D01*
X12352500Y-12926071D01*
X12338214Y-12954643D01*
X12323928Y-12968929D01*
X12295357Y-12983214D01*
X12266786Y-12983214D01*
X12238214Y-12968929D01*
X12223928Y-12954643D01*
X12209643Y-12926071D01*
X12195357Y-12868929D01*
X12195357Y-12797500D01*
X12209643Y-12740357D01*
X12223928Y-12711786D01*
X12238214Y-12697500D01*
X12266786Y-12683214D01*
X12652500Y-12983214D02*
X12481071Y-12983214D01*
X12566786Y-12983214D02*
X12566786Y-12683214D01*
X12538214Y-12726071D01*
X12509643Y-12754643D01*
X12481071Y-12768929D01*
X12923928Y-12683214D02*
X12781071Y-12683214D01*
X12766786Y-12826071D01*
X12781071Y-12811786D01*
X12809643Y-12797500D01*
X12881071Y-12797500D01*
X12909643Y-12811786D01*
X12923928Y-12826071D01*
X12938214Y-12854643D01*
X12938214Y-12926071D01*
X12923928Y-12954643D01*
X12909643Y-12968929D01*
X12881071Y-12983214D01*
X12809643Y-12983214D01*
X12781071Y-12968929D01*
X12766786Y-12954643D01*
X13038214Y-12683214D02*
X13238214Y-12683214D01*
X13109643Y-12983214D01*
X13338214Y-12683214D02*
X13338214Y-12740357D01*
X13452500Y-12683214D02*
X13452500Y-12740357D01*
X13895357Y-13097500D02*
X13881071Y-13083214D01*
X13852500Y-13040357D01*
X13838214Y-13011786D01*
X13823928Y-12968929D01*
X13809643Y-12897500D01*
X13809643Y-12840357D01*
X13823928Y-12768929D01*
X13838214Y-12726071D01*
X13852500Y-12697500D01*
X13881071Y-12654643D01*
X13895357Y-12640357D01*
X14138214Y-12683214D02*
X14081071Y-12683214D01*
X14052500Y-12697500D01*
X14038214Y-12711786D01*
X14009643Y-12754643D01*
X13995357Y-12811786D01*
X13995357Y-12926071D01*
X14009643Y-12954643D01*
X14023928Y-12968929D01*
X14052500Y-12983214D01*
X14109643Y-12983214D01*
X14138214Y-12968929D01*
X14152500Y-12954643D01*
X14166786Y-12926071D01*
X14166786Y-12854643D01*
X14152500Y-12826071D01*
X14138214Y-12811786D01*
X14109643Y-12797500D01*
X14052500Y-12797500D01*
X14023928Y-12811786D01*
X14009643Y-12826071D01*
X13995357Y-12854643D01*
X14523928Y-12983214D02*
X14523928Y-12683214D01*
X14652500Y-12983214D02*
X14652500Y-12826071D01*
X14638214Y-12797500D01*
X14609643Y-12783214D01*
X14566786Y-12783214D01*
X14538214Y-12797500D01*
X14523928Y-12811786D01*
X14838214Y-12983214D02*
X14809643Y-12968929D01*
X14795357Y-12954643D01*
X14781071Y-12926071D01*
X14781071Y-12840357D01*
X14795357Y-12811786D01*
X14809643Y-12797500D01*
X14838214Y-12783214D01*
X14881071Y-12783214D01*
X14909643Y-12797500D01*
X14923928Y-12811786D01*
X14938214Y-12840357D01*
X14938214Y-12926071D01*
X14923928Y-12954643D01*
X14909643Y-12968929D01*
X14881071Y-12983214D01*
X14838214Y-12983214D01*
X15109643Y-12983214D02*
X15081071Y-12968929D01*
X15066786Y-12940357D01*
X15066786Y-12683214D01*
X15338214Y-12968929D02*
X15309643Y-12983214D01*
X15252500Y-12983214D01*
X15223928Y-12968929D01*
X15209643Y-12940357D01*
X15209643Y-12826071D01*
X15223928Y-12797500D01*
X15252500Y-12783214D01*
X15309643Y-12783214D01*
X15338214Y-12797500D01*
X15352500Y-12826071D01*
X15352500Y-12854643D01*
X15209643Y-12883214D01*
X15466786Y-12968929D02*
X15495357Y-12983214D01*
X15552500Y-12983214D01*
X15581071Y-12968929D01*
X15595357Y-12940357D01*
X15595357Y-12926071D01*
X15581071Y-12897500D01*
X15552500Y-12883214D01*
X15509643Y-12883214D01*
X15481071Y-12868929D01*
X15466786Y-12840357D01*
X15466786Y-12826071D01*
X15481071Y-12797500D01*
X15509643Y-12783214D01*
X15552500Y-12783214D01*
X15581071Y-12797500D01*
X15695357Y-13097500D02*
X15709643Y-13083214D01*
X15738214Y-13040357D01*
X15752500Y-13011786D01*
X15766786Y-12968929D01*
X15781071Y-12897500D01*
X15781071Y-12840357D01*
X15766786Y-12768929D01*
X15752500Y-12726071D01*
X15738214Y-12697500D01*
X15709643Y-12654643D01*
X15695357Y-12640357D01*
X8637500Y-13243500D02*
G75*
G03*
X8637500Y-13243500I-38100J0D01*
G01*
X8981071Y-13079214D02*
X9009643Y-13079214D01*
X9038214Y-13093500D01*
X9052500Y-13107786D01*
X9066786Y-13136357D01*
X9081071Y-13193500D01*
X9081071Y-13264929D01*
X9066786Y-13322071D01*
X9052500Y-13350643D01*
X9038214Y-13364929D01*
X9009643Y-13379214D01*
X8981071Y-13379214D01*
X8952500Y-13364929D01*
X8938214Y-13350643D01*
X8923928Y-13322071D01*
X8909643Y-13264929D01*
X8909643Y-13193500D01*
X8923928Y-13136357D01*
X8938214Y-13107786D01*
X8952500Y-13093500D01*
X8981071Y-13079214D01*
X9209643Y-13350643D02*
X9223928Y-13364929D01*
X9209643Y-13379214D01*
X9195357Y-13364929D01*
X9209643Y-13350643D01*
X9209643Y-13379214D01*
X9323928Y-13079214D02*
X9523928Y-13079214D01*
X9395357Y-13379214D01*
X9766786Y-13079214D02*
X9709643Y-13079214D01*
X9681071Y-13093500D01*
X9666786Y-13107786D01*
X9638214Y-13150643D01*
X9623928Y-13207786D01*
X9623928Y-13322071D01*
X9638214Y-13350643D01*
X9652500Y-13364929D01*
X9681071Y-13379214D01*
X9738214Y-13379214D01*
X9766786Y-13364929D01*
X9781071Y-13350643D01*
X9795357Y-13322071D01*
X9795357Y-13250643D01*
X9781071Y-13222071D01*
X9766786Y-13207786D01*
X9738214Y-13193500D01*
X9681071Y-13193500D01*
X9652500Y-13207786D01*
X9638214Y-13222071D01*
X9623928Y-13250643D01*
X9909643Y-13107786D02*
X9923928Y-13093500D01*
X9952500Y-13079214D01*
X10023928Y-13079214D01*
X10052500Y-13093500D01*
X10066786Y-13107786D01*
X10081071Y-13136357D01*
X10081071Y-13164929D01*
X10066786Y-13207786D01*
X9895357Y-13379214D01*
X10081071Y-13379214D01*
X10209643Y-13379214D02*
X10209643Y-13179214D01*
X10209643Y-13207786D02*
X10223928Y-13193500D01*
X10252500Y-13179214D01*
X10295357Y-13179214D01*
X10323928Y-13193500D01*
X10338214Y-13222071D01*
X10338214Y-13379214D01*
X10338214Y-13222071D02*
X10352500Y-13193500D01*
X10381071Y-13179214D01*
X10423928Y-13179214D01*
X10452500Y-13193500D01*
X10466786Y-13222071D01*
X10466786Y-13379214D01*
X10609643Y-13379214D02*
X10609643Y-13179214D01*
X10609643Y-13207786D02*
X10623928Y-13193500D01*
X10652500Y-13179214D01*
X10695357Y-13179214D01*
X10723928Y-13193500D01*
X10738214Y-13222071D01*
X10738214Y-13379214D01*
X10738214Y-13222071D02*
X10752500Y-13193500D01*
X10781071Y-13179214D01*
X10823928Y-13179214D01*
X10852500Y-13193500D01*
X10866786Y-13222071D01*
X10866786Y-13379214D01*
X11452500Y-13064929D02*
X11195357Y-13450643D01*
X11838214Y-13079214D02*
X11866786Y-13079214D01*
X11895357Y-13093500D01*
X11909643Y-13107786D01*
X11923928Y-13136357D01*
X11938214Y-13193500D01*
X11938214Y-13264929D01*
X11923928Y-13322071D01*
X11909643Y-13350643D01*
X11895357Y-13364929D01*
X11866786Y-13379214D01*
X11838214Y-13379214D01*
X11809643Y-13364929D01*
X11795357Y-13350643D01*
X11781071Y-13322071D01*
X11766786Y-13264929D01*
X11766786Y-13193500D01*
X11781071Y-13136357D01*
X11795357Y-13107786D01*
X11809643Y-13093500D01*
X11838214Y-13079214D01*
X12066786Y-13350643D02*
X12081071Y-13364929D01*
X12066786Y-13379214D01*
X12052500Y-13364929D01*
X12066786Y-13350643D01*
X12066786Y-13379214D01*
X12266786Y-13079214D02*
X12295357Y-13079214D01*
X12323928Y-13093500D01*
X12338214Y-13107786D01*
X12352500Y-13136357D01*
X12366786Y-13193500D01*
X12366786Y-13264929D01*
X12352500Y-13322071D01*
X12338214Y-13350643D01*
X12323928Y-13364929D01*
X12295357Y-13379214D01*
X12266786Y-13379214D01*
X12238214Y-13364929D01*
X12223928Y-13350643D01*
X12209643Y-13322071D01*
X12195357Y-13264929D01*
X12195357Y-13193500D01*
X12209643Y-13136357D01*
X12223928Y-13107786D01*
X12238214Y-13093500D01*
X12266786Y-13079214D01*
X12466786Y-13079214D02*
X12652500Y-13079214D01*
X12552500Y-13193500D01*
X12595357Y-13193500D01*
X12623928Y-13207786D01*
X12638214Y-13222071D01*
X12652500Y-13250643D01*
X12652500Y-13322071D01*
X12638214Y-13350643D01*
X12623928Y-13364929D01*
X12595357Y-13379214D01*
X12509643Y-13379214D01*
X12481071Y-13364929D01*
X12466786Y-13350643D01*
X12838214Y-13079214D02*
X12866786Y-13079214D01*
X12895357Y-13093500D01*
X12909643Y-13107786D01*
X12923928Y-13136357D01*
X12938214Y-13193500D01*
X12938214Y-13264929D01*
X12923928Y-13322071D01*
X12909643Y-13350643D01*
X12895357Y-13364929D01*
X12866786Y-13379214D01*
X12838214Y-13379214D01*
X12809643Y-13364929D01*
X12795357Y-13350643D01*
X12781071Y-13322071D01*
X12766786Y-13264929D01*
X12766786Y-13193500D01*
X12781071Y-13136357D01*
X12795357Y-13107786D01*
X12809643Y-13093500D01*
X12838214Y-13079214D01*
X13123928Y-13079214D02*
X13152500Y-13079214D01*
X13181071Y-13093500D01*
X13195357Y-13107786D01*
X13209643Y-13136357D01*
X13223928Y-13193500D01*
X13223928Y-13264929D01*
X13209643Y-13322071D01*
X13195357Y-13350643D01*
X13181071Y-13364929D01*
X13152500Y-13379214D01*
X13123928Y-13379214D01*
X13095357Y-13364929D01*
X13081071Y-13350643D01*
X13066786Y-13322071D01*
X13052500Y-13264929D01*
X13052500Y-13193500D01*
X13066786Y-13136357D01*
X13081071Y-13107786D01*
X13095357Y-13093500D01*
X13123928Y-13079214D01*
X13338214Y-13079214D02*
X13338214Y-13136357D01*
X13452500Y-13079214D02*
X13452500Y-13136357D01*
X13895357Y-13493500D02*
X13881071Y-13479214D01*
X13852500Y-13436357D01*
X13838214Y-13407786D01*
X13823928Y-13364929D01*
X13809643Y-13293500D01*
X13809643Y-13236357D01*
X13823928Y-13164929D01*
X13838214Y-13122071D01*
X13852500Y-13093500D01*
X13881071Y-13050643D01*
X13895357Y-13036357D01*
X14052500Y-13207786D02*
X14023928Y-13193500D01*
X14009643Y-13179214D01*
X13995357Y-13150643D01*
X13995357Y-13136357D01*
X14009643Y-13107786D01*
X14023928Y-13093500D01*
X14052500Y-13079214D01*
X14109643Y-13079214D01*
X14138214Y-13093500D01*
X14152500Y-13107786D01*
X14166786Y-13136357D01*
X14166786Y-13150643D01*
X14152500Y-13179214D01*
X14138214Y-13193500D01*
X14109643Y-13207786D01*
X14052500Y-13207786D01*
X14023928Y-13222071D01*
X14009643Y-13236357D01*
X13995357Y-13264929D01*
X13995357Y-13322071D01*
X14009643Y-13350643D01*
X14023928Y-13364929D01*
X14052500Y-13379214D01*
X14109643Y-13379214D01*
X14138214Y-13364929D01*
X14152500Y-13350643D01*
X14166786Y-13322071D01*
X14166786Y-13264929D01*
X14152500Y-13236357D01*
X14138214Y-13222071D01*
X14109643Y-13207786D01*
X14523928Y-13379214D02*
X14523928Y-13079214D01*
X14652500Y-13379214D02*
X14652500Y-13222071D01*
X14638214Y-13193500D01*
X14609643Y-13179214D01*
X14566786Y-13179214D01*
X14538214Y-13193500D01*
X14523928Y-13207786D01*
X14838214Y-13379214D02*
X14809643Y-13364929D01*
X14795357Y-13350643D01*
X14781071Y-13322071D01*
X14781071Y-13236357D01*
X14795357Y-13207786D01*
X14809643Y-13193500D01*
X14838214Y-13179214D01*
X14881071Y-13179214D01*
X14909643Y-13193500D01*
X14923928Y-13207786D01*
X14938214Y-13236357D01*
X14938214Y-13322071D01*
X14923928Y-13350643D01*
X14909643Y-13364929D01*
X14881071Y-13379214D01*
X14838214Y-13379214D01*
X15109643Y-13379214D02*
X15081071Y-13364929D01*
X15066786Y-13336357D01*
X15066786Y-13079214D01*
X15338214Y-13364929D02*
X15309643Y-13379214D01*
X15252500Y-13379214D01*
X15223928Y-13364929D01*
X15209643Y-13336357D01*
X15209643Y-13222071D01*
X15223928Y-13193500D01*
X15252500Y-13179214D01*
X15309643Y-13179214D01*
X15338214Y-13193500D01*
X15352500Y-13222071D01*
X15352500Y-13250643D01*
X15209643Y-13279214D01*
X15466786Y-13364929D02*
X15495357Y-13379214D01*
X15552500Y-13379214D01*
X15581071Y-13364929D01*
X15595357Y-13336357D01*
X15595357Y-13322071D01*
X15581071Y-13293500D01*
X15552500Y-13279214D01*
X15509643Y-13279214D01*
X15481071Y-13264929D01*
X15466786Y-13236357D01*
X15466786Y-13222071D01*
X15481071Y-13193500D01*
X15509643Y-13179214D01*
X15552500Y-13179214D01*
X15581071Y-13193500D01*
X15695357Y-13493500D02*
X15709643Y-13479214D01*
X15738214Y-13436357D01*
X15752500Y-13407786D01*
X15766786Y-13364929D01*
X15781071Y-13293500D01*
X15781071Y-13236357D01*
X15766786Y-13164929D01*
X15752500Y-13122071D01*
X15738214Y-13093500D01*
X15709643Y-13050643D01*
X15695357Y-13036357D01*
X8591500Y-13593500D02*
X8591500Y-13685500D01*
X8545500Y-13639500D02*
X8637500Y-13639500D01*
X8981071Y-13475214D02*
X9009643Y-13475214D01*
X9038214Y-13489500D01*
X9052500Y-13503786D01*
X9066786Y-13532357D01*
X9081071Y-13589500D01*
X9081071Y-13660929D01*
X9066786Y-13718071D01*
X9052500Y-13746643D01*
X9038214Y-13760929D01*
X9009643Y-13775214D01*
X8981071Y-13775214D01*
X8952500Y-13760929D01*
X8938214Y-13746643D01*
X8923928Y-13718071D01*
X8909643Y-13660929D01*
X8909643Y-13589500D01*
X8923928Y-13532357D01*
X8938214Y-13503786D01*
X8952500Y-13489500D01*
X8981071Y-13475214D01*
X9209643Y-13746643D02*
X9223928Y-13760929D01*
X9209643Y-13775214D01*
X9195357Y-13760929D01*
X9209643Y-13746643D01*
X9209643Y-13775214D01*
X9366786Y-13775214D02*
X9423928Y-13775214D01*
X9452500Y-13760929D01*
X9466786Y-13746643D01*
X9495357Y-13703786D01*
X9509643Y-13646643D01*
X9509643Y-13532357D01*
X9495357Y-13503786D01*
X9481071Y-13489500D01*
X9452500Y-13475214D01*
X9395357Y-13475214D01*
X9366786Y-13489500D01*
X9352500Y-13503786D01*
X9338214Y-13532357D01*
X9338214Y-13603786D01*
X9352500Y-13632357D01*
X9366786Y-13646643D01*
X9395357Y-13660929D01*
X9452500Y-13660929D01*
X9481071Y-13646643D01*
X9495357Y-13632357D01*
X9509643Y-13603786D01*
X9623928Y-13503786D02*
X9638214Y-13489500D01*
X9666786Y-13475214D01*
X9738214Y-13475214D01*
X9766786Y-13489500D01*
X9781071Y-13503786D01*
X9795357Y-13532357D01*
X9795357Y-13560929D01*
X9781071Y-13603786D01*
X9609643Y-13775214D01*
X9795357Y-13775214D01*
X9981071Y-13475214D02*
X10009643Y-13475214D01*
X10038214Y-13489500D01*
X10052500Y-13503786D01*
X10066786Y-13532357D01*
X10081071Y-13589500D01*
X10081071Y-13660929D01*
X10066786Y-13718071D01*
X10052500Y-13746643D01*
X10038214Y-13760929D01*
X10009643Y-13775214D01*
X9981071Y-13775214D01*
X9952500Y-13760929D01*
X9938214Y-13746643D01*
X9923928Y-13718071D01*
X9909643Y-13660929D01*
X9909643Y-13589500D01*
X9923928Y-13532357D01*
X9938214Y-13503786D01*
X9952500Y-13489500D01*
X9981071Y-13475214D01*
X10209643Y-13775214D02*
X10209643Y-13575214D01*
X10209643Y-13603786D02*
X10223928Y-13589500D01*
X10252500Y-13575214D01*
X10295357Y-13575214D01*
X10323928Y-13589500D01*
X10338214Y-13618071D01*
X10338214Y-13775214D01*
X10338214Y-13618071D02*
X10352500Y-13589500D01*
X10381071Y-13575214D01*
X10423928Y-13575214D01*
X10452500Y-13589500D01*
X10466786Y-13618071D01*
X10466786Y-13775214D01*
X10609643Y-13775214D02*
X10609643Y-13575214D01*
X10609643Y-13603786D02*
X10623928Y-13589500D01*
X10652500Y-13575214D01*
X10695357Y-13575214D01*
X10723928Y-13589500D01*
X10738214Y-13618071D01*
X10738214Y-13775214D01*
X10738214Y-13618071D02*
X10752500Y-13589500D01*
X10781071Y-13575214D01*
X10823928Y-13575214D01*
X10852500Y-13589500D01*
X10866786Y-13618071D01*
X10866786Y-13775214D01*
X11452500Y-13460929D02*
X11195357Y-13846643D01*
X11838214Y-13475214D02*
X11866786Y-13475214D01*
X11895357Y-13489500D01*
X11909643Y-13503786D01*
X11923928Y-13532357D01*
X11938214Y-13589500D01*
X11938214Y-13660929D01*
X11923928Y-13718071D01*
X11909643Y-13746643D01*
X11895357Y-13760929D01*
X11866786Y-13775214D01*
X11838214Y-13775214D01*
X11809643Y-13760929D01*
X11795357Y-13746643D01*
X11781071Y-13718071D01*
X11766786Y-13660929D01*
X11766786Y-13589500D01*
X11781071Y-13532357D01*
X11795357Y-13503786D01*
X11809643Y-13489500D01*
X11838214Y-13475214D01*
X12066786Y-13746643D02*
X12081071Y-13760929D01*
X12066786Y-13775214D01*
X12052500Y-13760929D01*
X12066786Y-13746643D01*
X12066786Y-13775214D01*
X12266786Y-13475214D02*
X12295357Y-13475214D01*
X12323928Y-13489500D01*
X12338214Y-13503786D01*
X12352500Y-13532357D01*
X12366786Y-13589500D01*
X12366786Y-13660929D01*
X12352500Y-13718071D01*
X12338214Y-13746643D01*
X12323928Y-13760929D01*
X12295357Y-13775214D01*
X12266786Y-13775214D01*
X12238214Y-13760929D01*
X12223928Y-13746643D01*
X12209643Y-13718071D01*
X12195357Y-13660929D01*
X12195357Y-13589500D01*
X12209643Y-13532357D01*
X12223928Y-13503786D01*
X12238214Y-13489500D01*
X12266786Y-13475214D01*
X12466786Y-13475214D02*
X12652500Y-13475214D01*
X12552500Y-13589500D01*
X12595357Y-13589500D01*
X12623928Y-13603786D01*
X12638214Y-13618071D01*
X12652500Y-13646643D01*
X12652500Y-13718071D01*
X12638214Y-13746643D01*
X12623928Y-13760929D01*
X12595357Y-13775214D01*
X12509643Y-13775214D01*
X12481071Y-13760929D01*
X12466786Y-13746643D01*
X12909643Y-13475214D02*
X12852500Y-13475214D01*
X12823928Y-13489500D01*
X12809643Y-13503786D01*
X12781071Y-13546643D01*
X12766786Y-13603786D01*
X12766786Y-13718071D01*
X12781071Y-13746643D01*
X12795357Y-13760929D01*
X12823928Y-13775214D01*
X12881071Y-13775214D01*
X12909643Y-13760929D01*
X12923928Y-13746643D01*
X12938214Y-13718071D01*
X12938214Y-13646643D01*
X12923928Y-13618071D01*
X12909643Y-13603786D01*
X12881071Y-13589500D01*
X12823928Y-13589500D01*
X12795357Y-13603786D01*
X12781071Y-13618071D01*
X12766786Y-13646643D01*
X13052500Y-13503786D02*
X13066786Y-13489500D01*
X13095357Y-13475214D01*
X13166786Y-13475214D01*
X13195357Y-13489500D01*
X13209643Y-13503786D01*
X13223928Y-13532357D01*
X13223928Y-13560929D01*
X13209643Y-13603786D01*
X13038214Y-13775214D01*
X13223928Y-13775214D01*
X13338214Y-13475214D02*
X13338214Y-13532357D01*
X13452500Y-13475214D02*
X13452500Y-13532357D01*
X13895357Y-13889500D02*
X13881071Y-13875214D01*
X13852500Y-13832357D01*
X13838214Y-13803786D01*
X13823928Y-13760929D01*
X13809643Y-13689500D01*
X13809643Y-13632357D01*
X13823928Y-13560929D01*
X13838214Y-13518071D01*
X13852500Y-13489500D01*
X13881071Y-13446643D01*
X13895357Y-13432357D01*
X14138214Y-13575214D02*
X14138214Y-13775214D01*
X14066786Y-13460929D02*
X13995357Y-13675214D01*
X14181071Y-13675214D01*
X14523928Y-13775214D02*
X14523928Y-13475214D01*
X14652500Y-13775214D02*
X14652500Y-13618071D01*
X14638214Y-13589500D01*
X14609643Y-13575214D01*
X14566786Y-13575214D01*
X14538214Y-13589500D01*
X14523928Y-13603786D01*
X14838214Y-13775214D02*
X14809643Y-13760929D01*
X14795357Y-13746643D01*
X14781071Y-13718071D01*
X14781071Y-13632357D01*
X14795357Y-13603786D01*
X14809643Y-13589500D01*
X14838214Y-13575214D01*
X14881071Y-13575214D01*
X14909643Y-13589500D01*
X14923928Y-13603786D01*
X14938214Y-13632357D01*
X14938214Y-13718071D01*
X14923928Y-13746643D01*
X14909643Y-13760929D01*
X14881071Y-13775214D01*
X14838214Y-13775214D01*
X15109643Y-13775214D02*
X15081071Y-13760929D01*
X15066786Y-13732357D01*
X15066786Y-13475214D01*
X15338214Y-13760929D02*
X15309643Y-13775214D01*
X15252500Y-13775214D01*
X15223928Y-13760929D01*
X15209643Y-13732357D01*
X15209643Y-13618071D01*
X15223928Y-13589500D01*
X15252500Y-13575214D01*
X15309643Y-13575214D01*
X15338214Y-13589500D01*
X15352500Y-13618071D01*
X15352500Y-13646643D01*
X15209643Y-13675214D01*
X15466786Y-13760929D02*
X15495357Y-13775214D01*
X15552500Y-13775214D01*
X15581071Y-13760929D01*
X15595357Y-13732357D01*
X15595357Y-13718071D01*
X15581071Y-13689500D01*
X15552500Y-13675214D01*
X15509643Y-13675214D01*
X15481071Y-13660929D01*
X15466786Y-13632357D01*
X15466786Y-13618071D01*
X15481071Y-13589500D01*
X15509643Y-13575214D01*
X15552500Y-13575214D01*
X15581071Y-13589500D01*
X15695357Y-13889500D02*
X15709643Y-13875214D01*
X15738214Y-13832357D01*
X15752500Y-13803786D01*
X15766786Y-13760929D01*
X15781071Y-13689500D01*
X15781071Y-13632357D01*
X15766786Y-13560929D01*
X15752500Y-13518071D01*
X15738214Y-13489500D01*
X15709643Y-13446643D01*
X15695357Y-13432357D01*
X8623588Y-14069088D02*
X8623588Y-14001912D01*
X8556412Y-14001912D01*
X8556412Y-14069088D01*
X8623588Y-14069088D01*
X8981071Y-13871214D02*
X9009643Y-13871214D01*
X9038214Y-13885500D01*
X9052500Y-13899786D01*
X9066786Y-13928357D01*
X9081071Y-13985500D01*
X9081071Y-14056929D01*
X9066786Y-14114071D01*
X9052500Y-14142643D01*
X9038214Y-14156929D01*
X9009643Y-14171214D01*
X8981071Y-14171214D01*
X8952500Y-14156929D01*
X8938214Y-14142643D01*
X8923928Y-14114071D01*
X8909643Y-14056929D01*
X8909643Y-13985500D01*
X8923928Y-13928357D01*
X8938214Y-13899786D01*
X8952500Y-13885500D01*
X8981071Y-13871214D01*
X9209643Y-14142643D02*
X9223928Y-14156929D01*
X9209643Y-14171214D01*
X9195357Y-14156929D01*
X9209643Y-14142643D01*
X9209643Y-14171214D01*
X9366786Y-14171214D02*
X9423928Y-14171214D01*
X9452500Y-14156929D01*
X9466786Y-14142643D01*
X9495357Y-14099786D01*
X9509643Y-14042643D01*
X9509643Y-13928357D01*
X9495357Y-13899786D01*
X9481071Y-13885500D01*
X9452500Y-13871214D01*
X9395357Y-13871214D01*
X9366786Y-13885500D01*
X9352500Y-13899786D01*
X9338214Y-13928357D01*
X9338214Y-13999786D01*
X9352500Y-14028357D01*
X9366786Y-14042643D01*
X9395357Y-14056929D01*
X9452500Y-14056929D01*
X9481071Y-14042643D01*
X9495357Y-14028357D01*
X9509643Y-13999786D01*
X9781071Y-13871214D02*
X9638214Y-13871214D01*
X9623928Y-14014071D01*
X9638214Y-13999786D01*
X9666786Y-13985500D01*
X9738214Y-13985500D01*
X9766786Y-13999786D01*
X9781071Y-14014071D01*
X9795357Y-14042643D01*
X9795357Y-14114071D01*
X9781071Y-14142643D01*
X9766786Y-14156929D01*
X9738214Y-14171214D01*
X9666786Y-14171214D01*
X9638214Y-14156929D01*
X9623928Y-14142643D01*
X9981071Y-13871214D02*
X10009643Y-13871214D01*
X10038214Y-13885500D01*
X10052500Y-13899786D01*
X10066786Y-13928357D01*
X10081071Y-13985500D01*
X10081071Y-14056929D01*
X10066786Y-14114071D01*
X10052500Y-14142643D01*
X10038214Y-14156929D01*
X10009643Y-14171214D01*
X9981071Y-14171214D01*
X9952500Y-14156929D01*
X9938214Y-14142643D01*
X9923928Y-14114071D01*
X9909643Y-14056929D01*
X9909643Y-13985500D01*
X9923928Y-13928357D01*
X9938214Y-13899786D01*
X9952500Y-13885500D01*
X9981071Y-13871214D01*
X10209643Y-14171214D02*
X10209643Y-13971214D01*
X10209643Y-13999786D02*
X10223928Y-13985500D01*
X10252500Y-13971214D01*
X10295357Y-13971214D01*
X10323928Y-13985500D01*
X10338214Y-14014071D01*
X10338214Y-14171214D01*
X10338214Y-14014071D02*
X10352500Y-13985500D01*
X10381071Y-13971214D01*
X10423928Y-13971214D01*
X10452500Y-13985500D01*
X10466786Y-14014071D01*
X10466786Y-14171214D01*
X10609643Y-14171214D02*
X10609643Y-13971214D01*
X10609643Y-13999786D02*
X10623928Y-13985500D01*
X10652500Y-13971214D01*
X10695357Y-13971214D01*
X10723928Y-13985500D01*
X10738214Y-14014071D01*
X10738214Y-14171214D01*
X10738214Y-14014071D02*
X10752500Y-13985500D01*
X10781071Y-13971214D01*
X10823928Y-13971214D01*
X10852500Y-13985500D01*
X10866786Y-14014071D01*
X10866786Y-14171214D01*
X11452500Y-13856929D02*
X11195357Y-14242643D01*
X11838214Y-13871214D02*
X11866786Y-13871214D01*
X11895357Y-13885500D01*
X11909643Y-13899786D01*
X11923928Y-13928357D01*
X11938214Y-13985500D01*
X11938214Y-14056929D01*
X11923928Y-14114071D01*
X11909643Y-14142643D01*
X11895357Y-14156929D01*
X11866786Y-14171214D01*
X11838214Y-14171214D01*
X11809643Y-14156929D01*
X11795357Y-14142643D01*
X11781071Y-14114071D01*
X11766786Y-14056929D01*
X11766786Y-13985500D01*
X11781071Y-13928357D01*
X11795357Y-13899786D01*
X11809643Y-13885500D01*
X11838214Y-13871214D01*
X12066786Y-14142643D02*
X12081071Y-14156929D01*
X12066786Y-14171214D01*
X12052500Y-14156929D01*
X12066786Y-14142643D01*
X12066786Y-14171214D01*
X12266786Y-13871214D02*
X12295357Y-13871214D01*
X12323928Y-13885500D01*
X12338214Y-13899786D01*
X12352500Y-13928357D01*
X12366786Y-13985500D01*
X12366786Y-14056929D01*
X12352500Y-14114071D01*
X12338214Y-14142643D01*
X12323928Y-14156929D01*
X12295357Y-14171214D01*
X12266786Y-14171214D01*
X12238214Y-14156929D01*
X12223928Y-14142643D01*
X12209643Y-14114071D01*
X12195357Y-14056929D01*
X12195357Y-13985500D01*
X12209643Y-13928357D01*
X12223928Y-13899786D01*
X12238214Y-13885500D01*
X12266786Y-13871214D01*
X12466786Y-13871214D02*
X12652500Y-13871214D01*
X12552500Y-13985500D01*
X12595357Y-13985500D01*
X12623928Y-13999786D01*
X12638214Y-14014071D01*
X12652500Y-14042643D01*
X12652500Y-14114071D01*
X12638214Y-14142643D01*
X12623928Y-14156929D01*
X12595357Y-14171214D01*
X12509643Y-14171214D01*
X12481071Y-14156929D01*
X12466786Y-14142643D01*
X12752500Y-13871214D02*
X12952500Y-13871214D01*
X12823928Y-14171214D01*
X13195357Y-13971214D02*
X13195357Y-14171214D01*
X13123928Y-13856929D02*
X13052500Y-14071214D01*
X13238214Y-14071214D01*
X13338214Y-13871214D02*
X13338214Y-13928357D01*
X13452500Y-13871214D02*
X13452500Y-13928357D01*
X13895357Y-14285500D02*
X13881071Y-14271214D01*
X13852500Y-14228357D01*
X13838214Y-14199786D01*
X13823928Y-14156929D01*
X13809643Y-14085500D01*
X13809643Y-14028357D01*
X13823928Y-13956929D01*
X13838214Y-13914071D01*
X13852500Y-13885500D01*
X13881071Y-13842643D01*
X13895357Y-13828357D01*
X13981071Y-13871214D02*
X14166786Y-13871214D01*
X14066786Y-13985500D01*
X14109643Y-13985500D01*
X14138214Y-13999786D01*
X14152500Y-14014071D01*
X14166786Y-14042643D01*
X14166786Y-14114071D01*
X14152500Y-14142643D01*
X14138214Y-14156929D01*
X14109643Y-14171214D01*
X14023928Y-14171214D01*
X13995357Y-14156929D01*
X13981071Y-14142643D01*
X14523928Y-14171214D02*
X14523928Y-13871214D01*
X14652500Y-14171214D02*
X14652500Y-14014071D01*
X14638214Y-13985500D01*
X14609643Y-13971214D01*
X14566786Y-13971214D01*
X14538214Y-13985500D01*
X14523928Y-13999786D01*
X14838214Y-14171214D02*
X14809643Y-14156929D01*
X14795357Y-14142643D01*
X14781071Y-14114071D01*
X14781071Y-14028357D01*
X14795357Y-13999786D01*
X14809643Y-13985500D01*
X14838214Y-13971214D01*
X14881071Y-13971214D01*
X14909643Y-13985500D01*
X14923928Y-13999786D01*
X14938214Y-14028357D01*
X14938214Y-14114071D01*
X14923928Y-14142643D01*
X14909643Y-14156929D01*
X14881071Y-14171214D01*
X14838214Y-14171214D01*
X15109643Y-14171214D02*
X15081071Y-14156929D01*
X15066786Y-14128357D01*
X15066786Y-13871214D01*
X15338214Y-14156929D02*
X15309643Y-14171214D01*
X15252500Y-14171214D01*
X15223928Y-14156929D01*
X15209643Y-14128357D01*
X15209643Y-14014071D01*
X15223928Y-13985500D01*
X15252500Y-13971214D01*
X15309643Y-13971214D01*
X15338214Y-13985500D01*
X15352500Y-14014071D01*
X15352500Y-14042643D01*
X15209643Y-14071214D01*
X15466786Y-14156929D02*
X15495357Y-14171214D01*
X15552500Y-14171214D01*
X15581071Y-14156929D01*
X15595357Y-14128357D01*
X15595357Y-14114071D01*
X15581071Y-14085500D01*
X15552500Y-14071214D01*
X15509643Y-14071214D01*
X15481071Y-14056929D01*
X15466786Y-14028357D01*
X15466786Y-14014071D01*
X15481071Y-13985500D01*
X15509643Y-13971214D01*
X15552500Y-13971214D01*
X15581071Y-13985500D01*
X15695357Y-14285500D02*
X15709643Y-14271214D01*
X15738214Y-14228357D01*
X15752500Y-14199786D01*
X15766786Y-14156929D01*
X15781071Y-14085500D01*
X15781071Y-14028357D01*
X15766786Y-13956929D01*
X15752500Y-13914071D01*
X15738214Y-13885500D01*
X15709643Y-13842643D01*
X15695357Y-13828357D01*
X8587500Y-14481500D02*
X8637500Y-14431500D01*
X8587500Y-14381500D01*
X8537500Y-14431500D01*
X8587500Y-14481500D01*
X9081071Y-14567214D02*
X8909643Y-14567214D01*
X8995357Y-14567214D02*
X8995357Y-14267214D01*
X8966786Y-14310071D01*
X8938214Y-14338643D01*
X8909643Y-14352929D01*
X9209643Y-14538643D02*
X9223928Y-14552929D01*
X9209643Y-14567214D01*
X9195357Y-14552929D01*
X9209643Y-14538643D01*
X9209643Y-14567214D01*
X9409643Y-14267214D02*
X9438214Y-14267214D01*
X9466786Y-14281500D01*
X9481071Y-14295786D01*
X9495357Y-14324357D01*
X9509643Y-14381500D01*
X9509643Y-14452929D01*
X9495357Y-14510071D01*
X9481071Y-14538643D01*
X9466786Y-14552929D01*
X9438214Y-14567214D01*
X9409643Y-14567214D01*
X9381071Y-14552929D01*
X9366786Y-14538643D01*
X9352500Y-14510071D01*
X9338214Y-14452929D01*
X9338214Y-14381500D01*
X9352500Y-14324357D01*
X9366786Y-14295786D01*
X9381071Y-14281500D01*
X9409643Y-14267214D01*
X9695357Y-14267214D02*
X9723928Y-14267214D01*
X9752500Y-14281500D01*
X9766786Y-14295786D01*
X9781071Y-14324357D01*
X9795357Y-14381500D01*
X9795357Y-14452929D01*
X9781071Y-14510071D01*
X9766786Y-14538643D01*
X9752500Y-14552929D01*
X9723928Y-14567214D01*
X9695357Y-14567214D01*
X9666786Y-14552929D01*
X9652500Y-14538643D01*
X9638214Y-14510071D01*
X9623928Y-14452929D01*
X9623928Y-14381500D01*
X9638214Y-14324357D01*
X9652500Y-14295786D01*
X9666786Y-14281500D01*
X9695357Y-14267214D01*
X9981071Y-14267214D02*
X10009643Y-14267214D01*
X10038214Y-14281500D01*
X10052500Y-14295786D01*
X10066786Y-14324357D01*
X10081071Y-14381500D01*
X10081071Y-14452929D01*
X10066786Y-14510071D01*
X10052500Y-14538643D01*
X10038214Y-14552929D01*
X10009643Y-14567214D01*
X9981071Y-14567214D01*
X9952500Y-14552929D01*
X9938214Y-14538643D01*
X9923928Y-14510071D01*
X9909643Y-14452929D01*
X9909643Y-14381500D01*
X9923928Y-14324357D01*
X9938214Y-14295786D01*
X9952500Y-14281500D01*
X9981071Y-14267214D01*
X10209643Y-14567214D02*
X10209643Y-14367214D01*
X10209643Y-14395786D02*
X10223928Y-14381500D01*
X10252500Y-14367214D01*
X10295357Y-14367214D01*
X10323928Y-14381500D01*
X10338214Y-14410071D01*
X10338214Y-14567214D01*
X10338214Y-14410071D02*
X10352500Y-14381500D01*
X10381071Y-14367214D01*
X10423928Y-14367214D01*
X10452500Y-14381500D01*
X10466786Y-14410071D01*
X10466786Y-14567214D01*
X10609643Y-14567214D02*
X10609643Y-14367214D01*
X10609643Y-14395786D02*
X10623928Y-14381500D01*
X10652500Y-14367214D01*
X10695357Y-14367214D01*
X10723928Y-14381500D01*
X10738214Y-14410071D01*
X10738214Y-14567214D01*
X10738214Y-14410071D02*
X10752500Y-14381500D01*
X10781071Y-14367214D01*
X10823928Y-14367214D01*
X10852500Y-14381500D01*
X10866786Y-14410071D01*
X10866786Y-14567214D01*
X11452500Y-14252929D02*
X11195357Y-14638643D01*
X11838214Y-14267214D02*
X11866786Y-14267214D01*
X11895357Y-14281500D01*
X11909643Y-14295786D01*
X11923928Y-14324357D01*
X11938214Y-14381500D01*
X11938214Y-14452929D01*
X11923928Y-14510071D01*
X11909643Y-14538643D01*
X11895357Y-14552929D01*
X11866786Y-14567214D01*
X11838214Y-14567214D01*
X11809643Y-14552929D01*
X11795357Y-14538643D01*
X11781071Y-14510071D01*
X11766786Y-14452929D01*
X11766786Y-14381500D01*
X11781071Y-14324357D01*
X11795357Y-14295786D01*
X11809643Y-14281500D01*
X11838214Y-14267214D01*
X12066786Y-14538643D02*
X12081071Y-14552929D01*
X12066786Y-14567214D01*
X12052500Y-14552929D01*
X12066786Y-14538643D01*
X12066786Y-14567214D01*
X12266786Y-14267214D02*
X12295357Y-14267214D01*
X12323928Y-14281500D01*
X12338214Y-14295786D01*
X12352500Y-14324357D01*
X12366786Y-14381500D01*
X12366786Y-14452929D01*
X12352500Y-14510071D01*
X12338214Y-14538643D01*
X12323928Y-14552929D01*
X12295357Y-14567214D01*
X12266786Y-14567214D01*
X12238214Y-14552929D01*
X12223928Y-14538643D01*
X12209643Y-14510071D01*
X12195357Y-14452929D01*
X12195357Y-14381500D01*
X12209643Y-14324357D01*
X12223928Y-14295786D01*
X12238214Y-14281500D01*
X12266786Y-14267214D01*
X12466786Y-14267214D02*
X12652500Y-14267214D01*
X12552500Y-14381500D01*
X12595357Y-14381500D01*
X12623928Y-14395786D01*
X12638214Y-14410071D01*
X12652500Y-14438643D01*
X12652500Y-14510071D01*
X12638214Y-14538643D01*
X12623928Y-14552929D01*
X12595357Y-14567214D01*
X12509643Y-14567214D01*
X12481071Y-14552929D01*
X12466786Y-14538643D01*
X12795357Y-14567214D02*
X12852500Y-14567214D01*
X12881071Y-14552929D01*
X12895357Y-14538643D01*
X12923928Y-14495786D01*
X12938214Y-14438643D01*
X12938214Y-14324357D01*
X12923928Y-14295786D01*
X12909643Y-14281500D01*
X12881071Y-14267214D01*
X12823928Y-14267214D01*
X12795357Y-14281500D01*
X12781071Y-14295786D01*
X12766786Y-14324357D01*
X12766786Y-14395786D01*
X12781071Y-14424357D01*
X12795357Y-14438643D01*
X12823928Y-14452929D01*
X12881071Y-14452929D01*
X12909643Y-14438643D01*
X12923928Y-14424357D01*
X12938214Y-14395786D01*
X13195357Y-14367214D02*
X13195357Y-14567214D01*
X13123928Y-14252929D02*
X13052500Y-14467214D01*
X13238214Y-14467214D01*
X13338214Y-14267214D02*
X13338214Y-14324357D01*
X13452500Y-14267214D02*
X13452500Y-14324357D01*
X13895357Y-14681500D02*
X13881071Y-14667214D01*
X13852500Y-14624357D01*
X13838214Y-14595786D01*
X13823928Y-14552929D01*
X13809643Y-14481500D01*
X13809643Y-14424357D01*
X13823928Y-14352929D01*
X13838214Y-14310071D01*
X13852500Y-14281500D01*
X13881071Y-14238643D01*
X13895357Y-14224357D01*
X14138214Y-14367214D02*
X14138214Y-14567214D01*
X14066786Y-14252929D02*
X13995357Y-14467214D01*
X14181071Y-14467214D01*
X14281071Y-14295786D02*
X14295357Y-14281500D01*
X14323928Y-14267214D01*
X14395357Y-14267214D01*
X14423928Y-14281500D01*
X14438214Y-14295786D01*
X14452500Y-14324357D01*
X14452500Y-14352929D01*
X14438214Y-14395786D01*
X14266786Y-14567214D01*
X14452500Y-14567214D01*
X14809643Y-14567214D02*
X14809643Y-14267214D01*
X14938214Y-14567214D02*
X14938214Y-14410071D01*
X14923928Y-14381500D01*
X14895357Y-14367214D01*
X14852500Y-14367214D01*
X14823928Y-14381500D01*
X14809643Y-14395786D01*
X15123928Y-14567214D02*
X15095357Y-14552929D01*
X15081071Y-14538643D01*
X15066786Y-14510071D01*
X15066786Y-14424357D01*
X15081071Y-14395786D01*
X15095357Y-14381500D01*
X15123928Y-14367214D01*
X15166786Y-14367214D01*
X15195357Y-14381500D01*
X15209643Y-14395786D01*
X15223928Y-14424357D01*
X15223928Y-14510071D01*
X15209643Y-14538643D01*
X15195357Y-14552929D01*
X15166786Y-14567214D01*
X15123928Y-14567214D01*
X15395357Y-14567214D02*
X15366786Y-14552929D01*
X15352500Y-14524357D01*
X15352500Y-14267214D01*
X15623928Y-14552929D02*
X15595357Y-14567214D01*
X15538214Y-14567214D01*
X15509643Y-14552929D01*
X15495357Y-14524357D01*
X15495357Y-14410071D01*
X15509643Y-14381500D01*
X15538214Y-14367214D01*
X15595357Y-14367214D01*
X15623928Y-14381500D01*
X15638214Y-14410071D01*
X15638214Y-14438643D01*
X15495357Y-14467214D01*
X15752500Y-14552929D02*
X15781071Y-14567214D01*
X15838214Y-14567214D01*
X15866786Y-14552929D01*
X15881071Y-14524357D01*
X15881071Y-14510071D01*
X15866786Y-14481500D01*
X15838214Y-14467214D01*
X15795357Y-14467214D01*
X15766786Y-14452929D01*
X15752500Y-14424357D01*
X15752500Y-14410071D01*
X15766786Y-14381500D01*
X15795357Y-14367214D01*
X15838214Y-14367214D01*
X15866786Y-14381500D01*
X16238214Y-14452929D02*
X16466786Y-14452929D01*
X16352500Y-14567214D02*
X16352500Y-14338643D01*
X16809643Y-14267214D02*
X16995357Y-14267214D01*
X16895357Y-14381500D01*
X16938214Y-14381500D01*
X16966786Y-14395786D01*
X16981071Y-14410071D01*
X16995357Y-14438643D01*
X16995357Y-14510071D01*
X16981071Y-14538643D01*
X16966786Y-14552929D01*
X16938214Y-14567214D01*
X16852500Y-14567214D01*
X16823928Y-14552929D01*
X16809643Y-14538643D01*
X17338214Y-14552929D02*
X17366786Y-14567214D01*
X17423928Y-14567214D01*
X17452500Y-14552929D01*
X17466786Y-14524357D01*
X17466786Y-14510071D01*
X17452500Y-14481500D01*
X17423928Y-14467214D01*
X17381071Y-14467214D01*
X17352500Y-14452929D01*
X17338214Y-14424357D01*
X17338214Y-14410071D01*
X17352500Y-14381500D01*
X17381071Y-14367214D01*
X17423928Y-14367214D01*
X17452500Y-14381500D01*
X17638214Y-14567214D02*
X17609643Y-14552929D01*
X17595357Y-14524357D01*
X17595357Y-14267214D01*
X17795357Y-14567214D02*
X17766786Y-14552929D01*
X17752500Y-14538643D01*
X17738214Y-14510071D01*
X17738214Y-14424357D01*
X17752500Y-14395786D01*
X17766786Y-14381500D01*
X17795357Y-14367214D01*
X17838214Y-14367214D01*
X17866786Y-14381500D01*
X17881071Y-14395786D01*
X17895357Y-14424357D01*
X17895357Y-14510071D01*
X17881071Y-14538643D01*
X17866786Y-14552929D01*
X17838214Y-14567214D01*
X17795357Y-14567214D01*
X17981071Y-14367214D02*
X18095357Y-14367214D01*
X18023928Y-14267214D02*
X18023928Y-14524357D01*
X18038214Y-14552929D01*
X18066786Y-14567214D01*
X18095357Y-14567214D01*
X18181071Y-14552929D02*
X18209643Y-14567214D01*
X18266786Y-14567214D01*
X18295357Y-14552929D01*
X18309643Y-14524357D01*
X18309643Y-14510071D01*
X18295357Y-14481500D01*
X18266786Y-14467214D01*
X18223928Y-14467214D01*
X18195357Y-14452929D01*
X18181071Y-14424357D01*
X18181071Y-14410071D01*
X18195357Y-14381500D01*
X18223928Y-14367214D01*
X18266786Y-14367214D01*
X18295357Y-14381500D01*
X18409643Y-14681500D02*
X18423928Y-14667214D01*
X18452500Y-14624357D01*
X18466786Y-14595786D01*
X18481071Y-14552929D01*
X18495357Y-14481500D01*
X18495357Y-14424357D01*
X18481071Y-14352929D01*
X18466786Y-14310071D01*
X18452500Y-14281500D01*
X18423928Y-14238643D01*
X18409643Y-14224357D01*
X8404500Y-14711000D02*
X8637500Y-14944000D01*
X8637500Y-14711000D02*
X8404500Y-14944000D01*
X8637500Y-14827500D02*
G75*
G03*
X8637500Y-14827500I-116500J0D01*
G01*
X8909643Y-14691786D02*
X8923928Y-14677500D01*
X8952500Y-14663214D01*
X9023928Y-14663214D01*
X9052500Y-14677500D01*
X9066786Y-14691786D01*
X9081071Y-14720357D01*
X9081071Y-14748929D01*
X9066786Y-14791786D01*
X8895357Y-14963214D01*
X9081071Y-14963214D01*
X9209643Y-14934643D02*
X9223928Y-14948929D01*
X9209643Y-14963214D01*
X9195357Y-14948929D01*
X9209643Y-14934643D01*
X9209643Y-14963214D01*
X9323928Y-14663214D02*
X9509643Y-14663214D01*
X9409643Y-14777500D01*
X9452500Y-14777500D01*
X9481071Y-14791786D01*
X9495357Y-14806071D01*
X9509643Y-14834643D01*
X9509643Y-14906071D01*
X9495357Y-14934643D01*
X9481071Y-14948929D01*
X9452500Y-14963214D01*
X9366786Y-14963214D01*
X9338214Y-14948929D01*
X9323928Y-14934643D01*
X9609643Y-14663214D02*
X9795357Y-14663214D01*
X9695357Y-14777500D01*
X9738214Y-14777500D01*
X9766786Y-14791786D01*
X9781071Y-14806071D01*
X9795357Y-14834643D01*
X9795357Y-14906071D01*
X9781071Y-14934643D01*
X9766786Y-14948929D01*
X9738214Y-14963214D01*
X9652500Y-14963214D01*
X9623928Y-14948929D01*
X9609643Y-14934643D01*
X9981071Y-14663214D02*
X10009643Y-14663214D01*
X10038214Y-14677500D01*
X10052500Y-14691786D01*
X10066786Y-14720357D01*
X10081071Y-14777500D01*
X10081071Y-14848929D01*
X10066786Y-14906071D01*
X10052500Y-14934643D01*
X10038214Y-14948929D01*
X10009643Y-14963214D01*
X9981071Y-14963214D01*
X9952500Y-14948929D01*
X9938214Y-14934643D01*
X9923928Y-14906071D01*
X9909643Y-14848929D01*
X9909643Y-14777500D01*
X9923928Y-14720357D01*
X9938214Y-14691786D01*
X9952500Y-14677500D01*
X9981071Y-14663214D01*
X10209643Y-14963214D02*
X10209643Y-14763214D01*
X10209643Y-14791786D02*
X10223928Y-14777500D01*
X10252500Y-14763214D01*
X10295357Y-14763214D01*
X10323928Y-14777500D01*
X10338214Y-14806071D01*
X10338214Y-14963214D01*
X10338214Y-14806071D02*
X10352500Y-14777500D01*
X10381071Y-14763214D01*
X10423928Y-14763214D01*
X10452500Y-14777500D01*
X10466786Y-14806071D01*
X10466786Y-14963214D01*
X10609643Y-14963214D02*
X10609643Y-14763214D01*
X10609643Y-14791786D02*
X10623928Y-14777500D01*
X10652500Y-14763214D01*
X10695357Y-14763214D01*
X10723928Y-14777500D01*
X10738214Y-14806071D01*
X10738214Y-14963214D01*
X10738214Y-14806071D02*
X10752500Y-14777500D01*
X10781071Y-14763214D01*
X10823928Y-14763214D01*
X10852500Y-14777500D01*
X10866786Y-14806071D01*
X10866786Y-14963214D01*
X11452500Y-14648929D02*
X11195357Y-15034643D01*
X11838214Y-14663214D02*
X11866786Y-14663214D01*
X11895357Y-14677500D01*
X11909643Y-14691786D01*
X11923928Y-14720357D01*
X11938214Y-14777500D01*
X11938214Y-14848929D01*
X11923928Y-14906071D01*
X11909643Y-14934643D01*
X11895357Y-14948929D01*
X11866786Y-14963214D01*
X11838214Y-14963214D01*
X11809643Y-14948929D01*
X11795357Y-14934643D01*
X11781071Y-14906071D01*
X11766786Y-14848929D01*
X11766786Y-14777500D01*
X11781071Y-14720357D01*
X11795357Y-14691786D01*
X11809643Y-14677500D01*
X11838214Y-14663214D01*
X12066786Y-14934643D02*
X12081071Y-14948929D01*
X12066786Y-14963214D01*
X12052500Y-14948929D01*
X12066786Y-14934643D01*
X12066786Y-14963214D01*
X12266786Y-14663214D02*
X12295357Y-14663214D01*
X12323928Y-14677500D01*
X12338214Y-14691786D01*
X12352500Y-14720357D01*
X12366786Y-14777500D01*
X12366786Y-14848929D01*
X12352500Y-14906071D01*
X12338214Y-14934643D01*
X12323928Y-14948929D01*
X12295357Y-14963214D01*
X12266786Y-14963214D01*
X12238214Y-14948929D01*
X12223928Y-14934643D01*
X12209643Y-14906071D01*
X12195357Y-14848929D01*
X12195357Y-14777500D01*
X12209643Y-14720357D01*
X12223928Y-14691786D01*
X12238214Y-14677500D01*
X12266786Y-14663214D01*
X12509643Y-14963214D02*
X12566786Y-14963214D01*
X12595357Y-14948929D01*
X12609643Y-14934643D01*
X12638214Y-14891786D01*
X12652500Y-14834643D01*
X12652500Y-14720357D01*
X12638214Y-14691786D01*
X12623928Y-14677500D01*
X12595357Y-14663214D01*
X12538214Y-14663214D01*
X12509643Y-14677500D01*
X12495357Y-14691786D01*
X12481071Y-14720357D01*
X12481071Y-14791786D01*
X12495357Y-14820357D01*
X12509643Y-14834643D01*
X12538214Y-14848929D01*
X12595357Y-14848929D01*
X12623928Y-14834643D01*
X12638214Y-14820357D01*
X12652500Y-14791786D01*
X12938214Y-14963214D02*
X12766786Y-14963214D01*
X12852500Y-14963214D02*
X12852500Y-14663214D01*
X12823928Y-14706071D01*
X12795357Y-14734643D01*
X12766786Y-14748929D01*
X13038214Y-14663214D02*
X13238214Y-14663214D01*
X13109643Y-14963214D01*
X13338214Y-14663214D02*
X13338214Y-14720357D01*
X13452500Y-14663214D02*
X13452500Y-14720357D01*
X13895357Y-15077500D02*
X13881071Y-15063214D01*
X13852500Y-15020357D01*
X13838214Y-14991786D01*
X13823928Y-14948929D01*
X13809643Y-14877500D01*
X13809643Y-14820357D01*
X13823928Y-14748929D01*
X13838214Y-14706071D01*
X13852500Y-14677500D01*
X13881071Y-14634643D01*
X13895357Y-14620357D01*
X13995357Y-14691786D02*
X14009643Y-14677500D01*
X14038214Y-14663214D01*
X14109643Y-14663214D01*
X14138214Y-14677500D01*
X14152500Y-14691786D01*
X14166786Y-14720357D01*
X14166786Y-14748929D01*
X14152500Y-14791786D01*
X13981071Y-14963214D01*
X14166786Y-14963214D01*
X14523928Y-14963214D02*
X14523928Y-14663214D01*
X14652500Y-14963214D02*
X14652500Y-14806071D01*
X14638214Y-14777500D01*
X14609643Y-14763214D01*
X14566786Y-14763214D01*
X14538214Y-14777500D01*
X14523928Y-14791786D01*
X14838214Y-14963214D02*
X14809643Y-14948929D01*
X14795357Y-14934643D01*
X14781071Y-14906071D01*
X14781071Y-14820357D01*
X14795357Y-14791786D01*
X14809643Y-14777500D01*
X14838214Y-14763214D01*
X14881071Y-14763214D01*
X14909643Y-14777500D01*
X14923928Y-14791786D01*
X14938214Y-14820357D01*
X14938214Y-14906071D01*
X14923928Y-14934643D01*
X14909643Y-14948929D01*
X14881071Y-14963214D01*
X14838214Y-14963214D01*
X15109643Y-14963214D02*
X15081071Y-14948929D01*
X15066786Y-14920357D01*
X15066786Y-14663214D01*
X15338214Y-14948929D02*
X15309643Y-14963214D01*
X15252500Y-14963214D01*
X15223928Y-14948929D01*
X15209643Y-14920357D01*
X15209643Y-14806071D01*
X15223928Y-14777500D01*
X15252500Y-14763214D01*
X15309643Y-14763214D01*
X15338214Y-14777500D01*
X15352500Y-14806071D01*
X15352500Y-14834643D01*
X15209643Y-14863214D01*
X15466786Y-14948929D02*
X15495357Y-14963214D01*
X15552500Y-14963214D01*
X15581071Y-14948929D01*
X15595357Y-14920357D01*
X15595357Y-14906071D01*
X15581071Y-14877500D01*
X15552500Y-14863214D01*
X15509643Y-14863214D01*
X15481071Y-14848929D01*
X15466786Y-14820357D01*
X15466786Y-14806071D01*
X15481071Y-14777500D01*
X15509643Y-14763214D01*
X15552500Y-14763214D01*
X15581071Y-14777500D01*
X15695357Y-15077500D02*
X15709643Y-15063214D01*
X15738214Y-15020357D01*
X15752500Y-14991786D01*
X15766786Y-14948929D01*
X15781071Y-14877500D01*
X15781071Y-14820357D01*
X15766786Y-14748929D01*
X15752500Y-14706071D01*
X15738214Y-14677500D01*
X15709643Y-14634643D01*
X15695357Y-14620357D01*
M02*
