%FSLAX45Y45*%
G04 Gerber Fmt 4.5, Leading zero omitted, Abs format (unit mm)*
G04 Created by KiCad (PCBNEW (5.1.10)-1) date 2022-01-19 22:22:53*
%MOMM*%
%LPD*%
G01*
G04 APERTURE LIST*
%TA.AperFunction,Profile*%
%ADD10C,0.050000*%
%TD*%
%ADD11C,0.200000*%
%ADD12C,0.300000*%
G04 APERTURE END LIST*
D10*
X14440000Y-7175000D02*
X14440000Y-9010000D01*
X14440000Y-9010000D02*
X16640000Y-9010000D01*
X8640000Y-11885000D02*
X16640000Y-11885000D01*
X16640000Y-9010000D02*
X16640000Y-11885000D01*
X8640000Y-7175000D02*
X8640000Y-11885000D01*
X8640000Y-7175000D02*
X14440000Y-7175000D01*
D11*
X11310000Y-10480000D02*
X11530000Y-10700000D01*
X11530000Y-10480000D02*
X11310000Y-10700000D01*
X13980000Y-8740000D02*
X14200000Y-8960000D01*
X14200000Y-8740000D02*
X13980000Y-8960000D01*
X16240000Y-11180000D02*
X16460000Y-11400000D01*
X16460000Y-11180000D02*
X16240000Y-11400000D01*
D12*
X8923928Y-12353214D02*
X8923928Y-12053214D01*
X8995357Y-12053214D01*
X9038214Y-12067500D01*
X9066786Y-12096071D01*
X9081071Y-12124643D01*
X9095357Y-12181786D01*
X9095357Y-12224643D01*
X9081071Y-12281786D01*
X9066786Y-12310357D01*
X9038214Y-12338929D01*
X8995357Y-12353214D01*
X8923928Y-12353214D01*
X9223928Y-12353214D02*
X9223928Y-12153214D01*
X9223928Y-12210357D02*
X9238214Y-12181786D01*
X9252500Y-12167500D01*
X9281071Y-12153214D01*
X9309643Y-12153214D01*
X9409643Y-12353214D02*
X9409643Y-12153214D01*
X9409643Y-12053214D02*
X9395357Y-12067500D01*
X9409643Y-12081786D01*
X9423928Y-12067500D01*
X9409643Y-12053214D01*
X9409643Y-12081786D01*
X9595357Y-12353214D02*
X9566786Y-12338929D01*
X9552500Y-12310357D01*
X9552500Y-12053214D01*
X9752500Y-12353214D02*
X9723928Y-12338929D01*
X9709643Y-12310357D01*
X9709643Y-12053214D01*
X10095357Y-12353214D02*
X10095357Y-12053214D01*
X10195357Y-12267500D01*
X10295357Y-12053214D01*
X10295357Y-12353214D01*
X10566786Y-12353214D02*
X10566786Y-12196071D01*
X10552500Y-12167500D01*
X10523928Y-12153214D01*
X10466786Y-12153214D01*
X10438214Y-12167500D01*
X10566786Y-12338929D02*
X10538214Y-12353214D01*
X10466786Y-12353214D01*
X10438214Y-12338929D01*
X10423928Y-12310357D01*
X10423928Y-12281786D01*
X10438214Y-12253214D01*
X10466786Y-12238929D01*
X10538214Y-12238929D01*
X10566786Y-12224643D01*
X10709643Y-12153214D02*
X10709643Y-12453214D01*
X10709643Y-12167500D02*
X10738214Y-12153214D01*
X10795357Y-12153214D01*
X10823928Y-12167500D01*
X10838214Y-12181786D01*
X10852500Y-12210357D01*
X10852500Y-12296071D01*
X10838214Y-12324643D01*
X10823928Y-12338929D01*
X10795357Y-12353214D01*
X10738214Y-12353214D01*
X10709643Y-12338929D01*
X10981071Y-12324643D02*
X10995357Y-12338929D01*
X10981071Y-12353214D01*
X10966786Y-12338929D01*
X10981071Y-12324643D01*
X10981071Y-12353214D01*
X10981071Y-12167500D02*
X10995357Y-12181786D01*
X10981071Y-12196071D01*
X10966786Y-12181786D01*
X10981071Y-12167500D01*
X10981071Y-12196071D01*
X8417500Y-12737500D02*
X8637500Y-12957500D01*
X8637500Y-12737500D02*
X8417500Y-12957500D01*
X8909643Y-12711786D02*
X8923928Y-12697500D01*
X8952500Y-12683214D01*
X9023928Y-12683214D01*
X9052500Y-12697500D01*
X9066786Y-12711786D01*
X9081071Y-12740357D01*
X9081071Y-12768929D01*
X9066786Y-12811786D01*
X8895357Y-12983214D01*
X9081071Y-12983214D01*
X9209643Y-12954643D02*
X9223928Y-12968929D01*
X9209643Y-12983214D01*
X9195357Y-12968929D01*
X9209643Y-12954643D01*
X9209643Y-12983214D01*
X9338214Y-12711786D02*
X9352500Y-12697500D01*
X9381071Y-12683214D01*
X9452500Y-12683214D01*
X9481071Y-12697500D01*
X9495357Y-12711786D01*
X9509643Y-12740357D01*
X9509643Y-12768929D01*
X9495357Y-12811786D01*
X9323928Y-12983214D01*
X9509643Y-12983214D01*
X9695357Y-12683214D02*
X9723928Y-12683214D01*
X9752500Y-12697500D01*
X9766786Y-12711786D01*
X9781071Y-12740357D01*
X9795357Y-12797500D01*
X9795357Y-12868929D01*
X9781071Y-12926071D01*
X9766786Y-12954643D01*
X9752500Y-12968929D01*
X9723928Y-12983214D01*
X9695357Y-12983214D01*
X9666786Y-12968929D01*
X9652500Y-12954643D01*
X9638214Y-12926071D01*
X9623928Y-12868929D01*
X9623928Y-12797500D01*
X9638214Y-12740357D01*
X9652500Y-12711786D01*
X9666786Y-12697500D01*
X9695357Y-12683214D01*
X9981071Y-12683214D02*
X10009643Y-12683214D01*
X10038214Y-12697500D01*
X10052500Y-12711786D01*
X10066786Y-12740357D01*
X10081071Y-12797500D01*
X10081071Y-12868929D01*
X10066786Y-12926071D01*
X10052500Y-12954643D01*
X10038214Y-12968929D01*
X10009643Y-12983214D01*
X9981071Y-12983214D01*
X9952500Y-12968929D01*
X9938214Y-12954643D01*
X9923928Y-12926071D01*
X9909643Y-12868929D01*
X9909643Y-12797500D01*
X9923928Y-12740357D01*
X9938214Y-12711786D01*
X9952500Y-12697500D01*
X9981071Y-12683214D01*
X10209643Y-12983214D02*
X10209643Y-12783214D01*
X10209643Y-12811786D02*
X10223928Y-12797500D01*
X10252500Y-12783214D01*
X10295357Y-12783214D01*
X10323928Y-12797500D01*
X10338214Y-12826071D01*
X10338214Y-12983214D01*
X10338214Y-12826071D02*
X10352500Y-12797500D01*
X10381071Y-12783214D01*
X10423928Y-12783214D01*
X10452500Y-12797500D01*
X10466786Y-12826071D01*
X10466786Y-12983214D01*
X10609643Y-12983214D02*
X10609643Y-12783214D01*
X10609643Y-12811786D02*
X10623928Y-12797500D01*
X10652500Y-12783214D01*
X10695357Y-12783214D01*
X10723928Y-12797500D01*
X10738214Y-12826071D01*
X10738214Y-12983214D01*
X10738214Y-12826071D02*
X10752500Y-12797500D01*
X10781071Y-12783214D01*
X10823928Y-12783214D01*
X10852500Y-12797500D01*
X10866786Y-12826071D01*
X10866786Y-12983214D01*
X11452500Y-12668929D02*
X11195357Y-13054643D01*
X11838214Y-12683214D02*
X11866786Y-12683214D01*
X11895357Y-12697500D01*
X11909643Y-12711786D01*
X11923928Y-12740357D01*
X11938214Y-12797500D01*
X11938214Y-12868929D01*
X11923928Y-12926071D01*
X11909643Y-12954643D01*
X11895357Y-12968929D01*
X11866786Y-12983214D01*
X11838214Y-12983214D01*
X11809643Y-12968929D01*
X11795357Y-12954643D01*
X11781071Y-12926071D01*
X11766786Y-12868929D01*
X11766786Y-12797500D01*
X11781071Y-12740357D01*
X11795357Y-12711786D01*
X11809643Y-12697500D01*
X11838214Y-12683214D01*
X12066786Y-12954643D02*
X12081071Y-12968929D01*
X12066786Y-12983214D01*
X12052500Y-12968929D01*
X12066786Y-12954643D01*
X12066786Y-12983214D01*
X12266786Y-12683214D02*
X12295357Y-12683214D01*
X12323928Y-12697500D01*
X12338214Y-12711786D01*
X12352500Y-12740357D01*
X12366786Y-12797500D01*
X12366786Y-12868929D01*
X12352500Y-12926071D01*
X12338214Y-12954643D01*
X12323928Y-12968929D01*
X12295357Y-12983214D01*
X12266786Y-12983214D01*
X12238214Y-12968929D01*
X12223928Y-12954643D01*
X12209643Y-12926071D01*
X12195357Y-12868929D01*
X12195357Y-12797500D01*
X12209643Y-12740357D01*
X12223928Y-12711786D01*
X12238214Y-12697500D01*
X12266786Y-12683214D01*
X12538214Y-12811786D02*
X12509643Y-12797500D01*
X12495357Y-12783214D01*
X12481071Y-12754643D01*
X12481071Y-12740357D01*
X12495357Y-12711786D01*
X12509643Y-12697500D01*
X12538214Y-12683214D01*
X12595357Y-12683214D01*
X12623928Y-12697500D01*
X12638214Y-12711786D01*
X12652500Y-12740357D01*
X12652500Y-12754643D01*
X12638214Y-12783214D01*
X12623928Y-12797500D01*
X12595357Y-12811786D01*
X12538214Y-12811786D01*
X12509643Y-12826071D01*
X12495357Y-12840357D01*
X12481071Y-12868929D01*
X12481071Y-12926071D01*
X12495357Y-12954643D01*
X12509643Y-12968929D01*
X12538214Y-12983214D01*
X12595357Y-12983214D01*
X12623928Y-12968929D01*
X12638214Y-12954643D01*
X12652500Y-12926071D01*
X12652500Y-12868929D01*
X12638214Y-12840357D01*
X12623928Y-12826071D01*
X12595357Y-12811786D01*
X12909643Y-12683214D02*
X12852500Y-12683214D01*
X12823928Y-12697500D01*
X12809643Y-12711786D01*
X12781071Y-12754643D01*
X12766786Y-12811786D01*
X12766786Y-12926071D01*
X12781071Y-12954643D01*
X12795357Y-12968929D01*
X12823928Y-12983214D01*
X12881071Y-12983214D01*
X12909643Y-12968929D01*
X12923928Y-12954643D01*
X12938214Y-12926071D01*
X12938214Y-12854643D01*
X12923928Y-12826071D01*
X12909643Y-12811786D01*
X12881071Y-12797500D01*
X12823928Y-12797500D01*
X12795357Y-12811786D01*
X12781071Y-12826071D01*
X12766786Y-12854643D01*
X13195357Y-12683214D02*
X13138214Y-12683214D01*
X13109643Y-12697500D01*
X13095357Y-12711786D01*
X13066786Y-12754643D01*
X13052500Y-12811786D01*
X13052500Y-12926071D01*
X13066786Y-12954643D01*
X13081071Y-12968929D01*
X13109643Y-12983214D01*
X13166786Y-12983214D01*
X13195357Y-12968929D01*
X13209643Y-12954643D01*
X13223928Y-12926071D01*
X13223928Y-12854643D01*
X13209643Y-12826071D01*
X13195357Y-12811786D01*
X13166786Y-12797500D01*
X13109643Y-12797500D01*
X13081071Y-12811786D01*
X13066786Y-12826071D01*
X13052500Y-12854643D01*
X13338214Y-12683214D02*
X13338214Y-12740357D01*
X13452500Y-12683214D02*
X13452500Y-12740357D01*
X13895357Y-13097500D02*
X13881071Y-13083214D01*
X13852500Y-13040357D01*
X13838214Y-13011786D01*
X13823928Y-12968929D01*
X13809643Y-12897500D01*
X13809643Y-12840357D01*
X13823928Y-12768929D01*
X13838214Y-12726071D01*
X13852500Y-12697500D01*
X13881071Y-12654643D01*
X13895357Y-12640357D01*
X13981071Y-12683214D02*
X14166786Y-12683214D01*
X14066786Y-12797500D01*
X14109643Y-12797500D01*
X14138214Y-12811786D01*
X14152500Y-12826071D01*
X14166786Y-12854643D01*
X14166786Y-12926071D01*
X14152500Y-12954643D01*
X14138214Y-12968929D01*
X14109643Y-12983214D01*
X14023928Y-12983214D01*
X13995357Y-12968929D01*
X13981071Y-12954643D01*
X14523928Y-12983214D02*
X14523928Y-12683214D01*
X14652500Y-12983214D02*
X14652500Y-12826071D01*
X14638214Y-12797500D01*
X14609643Y-12783214D01*
X14566786Y-12783214D01*
X14538214Y-12797500D01*
X14523928Y-12811786D01*
X14838214Y-12983214D02*
X14809643Y-12968929D01*
X14795357Y-12954643D01*
X14781071Y-12926071D01*
X14781071Y-12840357D01*
X14795357Y-12811786D01*
X14809643Y-12797500D01*
X14838214Y-12783214D01*
X14881071Y-12783214D01*
X14909643Y-12797500D01*
X14923928Y-12811786D01*
X14938214Y-12840357D01*
X14938214Y-12926071D01*
X14923928Y-12954643D01*
X14909643Y-12968929D01*
X14881071Y-12983214D01*
X14838214Y-12983214D01*
X15109643Y-12983214D02*
X15081071Y-12968929D01*
X15066786Y-12940357D01*
X15066786Y-12683214D01*
X15338214Y-12968929D02*
X15309643Y-12983214D01*
X15252500Y-12983214D01*
X15223928Y-12968929D01*
X15209643Y-12940357D01*
X15209643Y-12826071D01*
X15223928Y-12797500D01*
X15252500Y-12783214D01*
X15309643Y-12783214D01*
X15338214Y-12797500D01*
X15352500Y-12826071D01*
X15352500Y-12854643D01*
X15209643Y-12883214D01*
X15466786Y-12968929D02*
X15495357Y-12983214D01*
X15552500Y-12983214D01*
X15581071Y-12968929D01*
X15595357Y-12940357D01*
X15595357Y-12926071D01*
X15581071Y-12897500D01*
X15552500Y-12883214D01*
X15509643Y-12883214D01*
X15481071Y-12868929D01*
X15466786Y-12840357D01*
X15466786Y-12826071D01*
X15481071Y-12797500D01*
X15509643Y-12783214D01*
X15552500Y-12783214D01*
X15581071Y-12797500D01*
X15695357Y-13097500D02*
X15709643Y-13083214D01*
X15738214Y-13040357D01*
X15752500Y-13011786D01*
X15766786Y-12968929D01*
X15781071Y-12897500D01*
X15781071Y-12840357D01*
X15766786Y-12768929D01*
X15752500Y-12726071D01*
X15738214Y-12697500D01*
X15709643Y-12654643D01*
X15695357Y-12640357D01*
X16238214Y-13097500D02*
X16223928Y-13083214D01*
X16195357Y-13040357D01*
X16181071Y-13011786D01*
X16166786Y-12968929D01*
X16152500Y-12897500D01*
X16152500Y-12840357D01*
X16166786Y-12768929D01*
X16181071Y-12726071D01*
X16195357Y-12697500D01*
X16223928Y-12654643D01*
X16238214Y-12640357D01*
X16352500Y-12783214D02*
X16352500Y-12983214D01*
X16352500Y-12811786D02*
X16366786Y-12797500D01*
X16395357Y-12783214D01*
X16438214Y-12783214D01*
X16466786Y-12797500D01*
X16481071Y-12826071D01*
X16481071Y-12983214D01*
X16666786Y-12983214D02*
X16638214Y-12968929D01*
X16623928Y-12954643D01*
X16609643Y-12926071D01*
X16609643Y-12840357D01*
X16623928Y-12811786D01*
X16638214Y-12797500D01*
X16666786Y-12783214D01*
X16709643Y-12783214D01*
X16738214Y-12797500D01*
X16752500Y-12811786D01*
X16766786Y-12840357D01*
X16766786Y-12926071D01*
X16752500Y-12954643D01*
X16738214Y-12968929D01*
X16709643Y-12983214D01*
X16666786Y-12983214D01*
X16852500Y-12783214D02*
X16966786Y-12783214D01*
X16895357Y-12683214D02*
X16895357Y-12940357D01*
X16909643Y-12968929D01*
X16938214Y-12983214D01*
X16966786Y-12983214D01*
X17295357Y-12783214D02*
X17295357Y-13083214D01*
X17295357Y-12797500D02*
X17323928Y-12783214D01*
X17381071Y-12783214D01*
X17409643Y-12797500D01*
X17423928Y-12811786D01*
X17438214Y-12840357D01*
X17438214Y-12926071D01*
X17423928Y-12954643D01*
X17409643Y-12968929D01*
X17381071Y-12983214D01*
X17323928Y-12983214D01*
X17295357Y-12968929D01*
X17609643Y-12983214D02*
X17581071Y-12968929D01*
X17566786Y-12940357D01*
X17566786Y-12683214D01*
X17852500Y-12983214D02*
X17852500Y-12826071D01*
X17838214Y-12797500D01*
X17809643Y-12783214D01*
X17752500Y-12783214D01*
X17723928Y-12797500D01*
X17852500Y-12968929D02*
X17823928Y-12983214D01*
X17752500Y-12983214D01*
X17723928Y-12968929D01*
X17709643Y-12940357D01*
X17709643Y-12911786D01*
X17723928Y-12883214D01*
X17752500Y-12868929D01*
X17823928Y-12868929D01*
X17852500Y-12854643D01*
X17952500Y-12783214D02*
X18066786Y-12783214D01*
X17995357Y-12683214D02*
X17995357Y-12940357D01*
X18009643Y-12968929D01*
X18038214Y-12983214D01*
X18066786Y-12983214D01*
X18281071Y-12968929D02*
X18252500Y-12983214D01*
X18195357Y-12983214D01*
X18166786Y-12968929D01*
X18152500Y-12940357D01*
X18152500Y-12826071D01*
X18166786Y-12797500D01*
X18195357Y-12783214D01*
X18252500Y-12783214D01*
X18281071Y-12797500D01*
X18295357Y-12826071D01*
X18295357Y-12854643D01*
X18152500Y-12883214D01*
X18552500Y-12983214D02*
X18552500Y-12683214D01*
X18552500Y-12968929D02*
X18523928Y-12983214D01*
X18466786Y-12983214D01*
X18438214Y-12968929D01*
X18423928Y-12954643D01*
X18409643Y-12926071D01*
X18409643Y-12840357D01*
X18423928Y-12811786D01*
X18438214Y-12797500D01*
X18466786Y-12783214D01*
X18523928Y-12783214D01*
X18552500Y-12797500D01*
X18666786Y-13097500D02*
X18681071Y-13083214D01*
X18709643Y-13040357D01*
X18723928Y-13011786D01*
X18738214Y-12968929D01*
X18752500Y-12897500D01*
X18752500Y-12840357D01*
X18738214Y-12768929D01*
X18723928Y-12726071D01*
X18709643Y-12697500D01*
X18681071Y-12654643D01*
X18666786Y-12640357D01*
M02*
