G04 #@! TF.GenerationSoftware,KiCad,Pcbnew,(5.1.10)-1*
G04 #@! TF.CreationDate,2022-01-19T22:21:47+01:00*
G04 #@! TF.ProjectId,ELFlatPanel,454c466c-6174-4506-916e-656c2e6b6963,3.0*
G04 #@! TF.SameCoordinates,Original*
G04 #@! TF.FileFunction,Paste,Top*
G04 #@! TF.FilePolarity,Positive*
%FSLAX46Y46*%
G04 Gerber Fmt 4.6, Leading zero omitted, Abs format (unit mm)*
G04 Created by KiCad (PCBNEW (5.1.10)-1) date 2022-01-19 22:21:47*
%MOMM*%
%LPD*%
G01*
G04 APERTURE LIST*
%ADD10R,1.200000X2.200000*%
%ADD11R,2.750000X3.050000*%
%ADD12R,1.060000X0.650000*%
G04 APERTURE END LIST*
G36*
G01*
X160075000Y-115025000D02*
X159125000Y-115025000D01*
G75*
G02*
X158875000Y-114775000I0J250000D01*
G01*
X158875000Y-114100000D01*
G75*
G02*
X159125000Y-113850000I250000J0D01*
G01*
X160075000Y-113850000D01*
G75*
G02*
X160325000Y-114100000I0J-250000D01*
G01*
X160325000Y-114775000D01*
G75*
G02*
X160075000Y-115025000I-250000J0D01*
G01*
G37*
G36*
G01*
X160075000Y-112950000D02*
X159125000Y-112950000D01*
G75*
G02*
X158875000Y-112700000I0J250000D01*
G01*
X158875000Y-112025000D01*
G75*
G02*
X159125000Y-111775000I250000J0D01*
G01*
X160075000Y-111775000D01*
G75*
G02*
X160325000Y-112025000I0J-250000D01*
G01*
X160325000Y-112700000D01*
G75*
G02*
X160075000Y-112950000I-250000J0D01*
G01*
G37*
G36*
G01*
X150175000Y-111550000D02*
X149225000Y-111550000D01*
G75*
G02*
X148975000Y-111300000I0J250000D01*
G01*
X148975000Y-110625000D01*
G75*
G02*
X149225000Y-110375000I250000J0D01*
G01*
X150175000Y-110375000D01*
G75*
G02*
X150425000Y-110625000I0J-250000D01*
G01*
X150425000Y-111300000D01*
G75*
G02*
X150175000Y-111550000I-250000J0D01*
G01*
G37*
G36*
G01*
X150175000Y-113625000D02*
X149225000Y-113625000D01*
G75*
G02*
X148975000Y-113375000I0J250000D01*
G01*
X148975000Y-112700000D01*
G75*
G02*
X149225000Y-112450000I250000J0D01*
G01*
X150175000Y-112450000D01*
G75*
G02*
X150425000Y-112700000I0J-250000D01*
G01*
X150425000Y-113375000D01*
G75*
G02*
X150175000Y-113625000I-250000J0D01*
G01*
G37*
D10*
X109080000Y-106300000D03*
X104520000Y-106300000D03*
D11*
X105275000Y-114275000D03*
X108325000Y-110925000D03*
X108325000Y-114275000D03*
X105275000Y-110925000D03*
G36*
G01*
X100150001Y-96300000D02*
X99249999Y-96300000D01*
G75*
G02*
X99000000Y-96050001I0J249999D01*
G01*
X99000000Y-95399999D01*
G75*
G02*
X99249999Y-95150000I249999J0D01*
G01*
X100150001Y-95150000D01*
G75*
G02*
X100400000Y-95399999I0J-249999D01*
G01*
X100400000Y-96050001D01*
G75*
G02*
X100150001Y-96300000I-249999J0D01*
G01*
G37*
G36*
G01*
X100150001Y-94250000D02*
X99249999Y-94250000D01*
G75*
G02*
X99000000Y-94000001I0J249999D01*
G01*
X99000000Y-93349999D01*
G75*
G02*
X99249999Y-93100000I249999J0D01*
G01*
X100150001Y-93100000D01*
G75*
G02*
X100400000Y-93349999I0J-249999D01*
G01*
X100400000Y-94000001D01*
G75*
G02*
X100150001Y-94250000I-249999J0D01*
G01*
G37*
G36*
G01*
X102649999Y-93100000D02*
X103550001Y-93100000D01*
G75*
G02*
X103800000Y-93349999I0J-249999D01*
G01*
X103800000Y-94000001D01*
G75*
G02*
X103550001Y-94250000I-249999J0D01*
G01*
X102649999Y-94250000D01*
G75*
G02*
X102400000Y-94000001I0J249999D01*
G01*
X102400000Y-93349999D01*
G75*
G02*
X102649999Y-93100000I249999J0D01*
G01*
G37*
G36*
G01*
X102649999Y-95150000D02*
X103550001Y-95150000D01*
G75*
G02*
X103800000Y-95399999I0J-249999D01*
G01*
X103800000Y-96050001D01*
G75*
G02*
X103550001Y-96300000I-249999J0D01*
G01*
X102649999Y-96300000D01*
G75*
G02*
X102400000Y-96050001I0J249999D01*
G01*
X102400000Y-95399999D01*
G75*
G02*
X102649999Y-95150000I249999J0D01*
G01*
G37*
G36*
G01*
X138000000Y-110949999D02*
X138000000Y-111850001D01*
G75*
G02*
X137750001Y-112100000I-249999J0D01*
G01*
X137099999Y-112100000D01*
G75*
G02*
X136850000Y-111850001I0J249999D01*
G01*
X136850000Y-110949999D01*
G75*
G02*
X137099999Y-110700000I249999J0D01*
G01*
X137750001Y-110700000D01*
G75*
G02*
X138000000Y-110949999I0J-249999D01*
G01*
G37*
G36*
G01*
X135950000Y-110949999D02*
X135950000Y-111850001D01*
G75*
G02*
X135700001Y-112100000I-249999J0D01*
G01*
X135049999Y-112100000D01*
G75*
G02*
X134800000Y-111850001I0J249999D01*
G01*
X134800000Y-110949999D01*
G75*
G02*
X135049999Y-110700000I249999J0D01*
G01*
X135700001Y-110700000D01*
G75*
G02*
X135950000Y-110949999I0J-249999D01*
G01*
G37*
G36*
G01*
X136850000Y-114750001D02*
X136850000Y-113849999D01*
G75*
G02*
X137099999Y-113600000I249999J0D01*
G01*
X137750001Y-113600000D01*
G75*
G02*
X138000000Y-113849999I0J-249999D01*
G01*
X138000000Y-114750001D01*
G75*
G02*
X137750001Y-115000000I-249999J0D01*
G01*
X137099999Y-115000000D01*
G75*
G02*
X136850000Y-114750001I0J249999D01*
G01*
G37*
G36*
G01*
X134800000Y-114750001D02*
X134800000Y-113849999D01*
G75*
G02*
X135049999Y-113600000I249999J0D01*
G01*
X135700001Y-113600000D01*
G75*
G02*
X135950000Y-113849999I0J-249999D01*
G01*
X135950000Y-114750001D01*
G75*
G02*
X135700001Y-115000000I-249999J0D01*
G01*
X135049999Y-115000000D01*
G75*
G02*
X134800000Y-114750001I0J249999D01*
G01*
G37*
G36*
G01*
X140650000Y-113849999D02*
X140650000Y-114750001D01*
G75*
G02*
X140400001Y-115000000I-249999J0D01*
G01*
X139749999Y-115000000D01*
G75*
G02*
X139500000Y-114750001I0J249999D01*
G01*
X139500000Y-113849999D01*
G75*
G02*
X139749999Y-113600000I249999J0D01*
G01*
X140400001Y-113600000D01*
G75*
G02*
X140650000Y-113849999I0J-249999D01*
G01*
G37*
G36*
G01*
X142700000Y-113849999D02*
X142700000Y-114750001D01*
G75*
G02*
X142450001Y-115000000I-249999J0D01*
G01*
X141799999Y-115000000D01*
G75*
G02*
X141550000Y-114750001I0J249999D01*
G01*
X141550000Y-113849999D01*
G75*
G02*
X141799999Y-113600000I249999J0D01*
G01*
X142450001Y-113600000D01*
G75*
G02*
X142700000Y-113849999I0J-249999D01*
G01*
G37*
D12*
X146400000Y-112950000D03*
X146400000Y-112000000D03*
X146400000Y-111050000D03*
X144200000Y-111050000D03*
X144200000Y-112950000D03*
X144200000Y-112000000D03*
G36*
G01*
X106645000Y-95750000D02*
X106345000Y-95750000D01*
G75*
G02*
X106195000Y-95600000I0J150000D01*
G01*
X106195000Y-94150000D01*
G75*
G02*
X106345000Y-94000000I150000J0D01*
G01*
X106645000Y-94000000D01*
G75*
G02*
X106795000Y-94150000I0J-150000D01*
G01*
X106795000Y-95600000D01*
G75*
G02*
X106645000Y-95750000I-150000J0D01*
G01*
G37*
G36*
G01*
X107915000Y-95750000D02*
X107615000Y-95750000D01*
G75*
G02*
X107465000Y-95600000I0J150000D01*
G01*
X107465000Y-94150000D01*
G75*
G02*
X107615000Y-94000000I150000J0D01*
G01*
X107915000Y-94000000D01*
G75*
G02*
X108065000Y-94150000I0J-150000D01*
G01*
X108065000Y-95600000D01*
G75*
G02*
X107915000Y-95750000I-150000J0D01*
G01*
G37*
G36*
G01*
X109185000Y-95750000D02*
X108885000Y-95750000D01*
G75*
G02*
X108735000Y-95600000I0J150000D01*
G01*
X108735000Y-94150000D01*
G75*
G02*
X108885000Y-94000000I150000J0D01*
G01*
X109185000Y-94000000D01*
G75*
G02*
X109335000Y-94150000I0J-150000D01*
G01*
X109335000Y-95600000D01*
G75*
G02*
X109185000Y-95750000I-150000J0D01*
G01*
G37*
G36*
G01*
X110455000Y-95750000D02*
X110155000Y-95750000D01*
G75*
G02*
X110005000Y-95600000I0J150000D01*
G01*
X110005000Y-94150000D01*
G75*
G02*
X110155000Y-94000000I150000J0D01*
G01*
X110455000Y-94000000D01*
G75*
G02*
X110605000Y-94150000I0J-150000D01*
G01*
X110605000Y-95600000D01*
G75*
G02*
X110455000Y-95750000I-150000J0D01*
G01*
G37*
G36*
G01*
X110455000Y-90600000D02*
X110155000Y-90600000D01*
G75*
G02*
X110005000Y-90450000I0J150000D01*
G01*
X110005000Y-89000000D01*
G75*
G02*
X110155000Y-88850000I150000J0D01*
G01*
X110455000Y-88850000D01*
G75*
G02*
X110605000Y-89000000I0J-150000D01*
G01*
X110605000Y-90450000D01*
G75*
G02*
X110455000Y-90600000I-150000J0D01*
G01*
G37*
G36*
G01*
X109185000Y-90600000D02*
X108885000Y-90600000D01*
G75*
G02*
X108735000Y-90450000I0J150000D01*
G01*
X108735000Y-89000000D01*
G75*
G02*
X108885000Y-88850000I150000J0D01*
G01*
X109185000Y-88850000D01*
G75*
G02*
X109335000Y-89000000I0J-150000D01*
G01*
X109335000Y-90450000D01*
G75*
G02*
X109185000Y-90600000I-150000J0D01*
G01*
G37*
G36*
G01*
X107915000Y-90600000D02*
X107615000Y-90600000D01*
G75*
G02*
X107465000Y-90450000I0J150000D01*
G01*
X107465000Y-89000000D01*
G75*
G02*
X107615000Y-88850000I150000J0D01*
G01*
X107915000Y-88850000D01*
G75*
G02*
X108065000Y-89000000I0J-150000D01*
G01*
X108065000Y-90450000D01*
G75*
G02*
X107915000Y-90600000I-150000J0D01*
G01*
G37*
G36*
G01*
X106645000Y-90600000D02*
X106345000Y-90600000D01*
G75*
G02*
X106195000Y-90450000I0J150000D01*
G01*
X106195000Y-89000000D01*
G75*
G02*
X106345000Y-88850000I150000J0D01*
G01*
X106645000Y-88850000D01*
G75*
G02*
X106795000Y-89000000I0J-150000D01*
G01*
X106795000Y-90450000D01*
G75*
G02*
X106645000Y-90600000I-150000J0D01*
G01*
G37*
G36*
G01*
X107212500Y-101575000D02*
X107212500Y-100625000D01*
G75*
G02*
X107462500Y-100375000I250000J0D01*
G01*
X108137500Y-100375000D01*
G75*
G02*
X108387500Y-100625000I0J-250000D01*
G01*
X108387500Y-101575000D01*
G75*
G02*
X108137500Y-101825000I-250000J0D01*
G01*
X107462500Y-101825000D01*
G75*
G02*
X107212500Y-101575000I0J250000D01*
G01*
G37*
G36*
G01*
X105137500Y-101575000D02*
X105137500Y-100625000D01*
G75*
G02*
X105387500Y-100375000I250000J0D01*
G01*
X106062500Y-100375000D01*
G75*
G02*
X106312500Y-100625000I0J-250000D01*
G01*
X106312500Y-101575000D01*
G75*
G02*
X106062500Y-101825000I-250000J0D01*
G01*
X105387500Y-101825000D01*
G75*
G02*
X105137500Y-101575000I0J250000D01*
G01*
G37*
M02*
