G04 #@! TF.GenerationSoftware,KiCad,Pcbnew,(5.1.10)-1*
G04 #@! TF.CreationDate,2022-01-19T22:21:47+01:00*
G04 #@! TF.ProjectId,ELFlatPanel,454c466c-6174-4506-916e-656c2e6b6963,3.0*
G04 #@! TF.SameCoordinates,Original*
G04 #@! TF.FileFunction,Soldermask,Top*
G04 #@! TF.FilePolarity,Negative*
%FSLAX46Y46*%
G04 Gerber Fmt 4.6, Leading zero omitted, Abs format (unit mm)*
G04 Created by KiCad (PCBNEW (5.1.10)-1) date 2022-01-19 22:21:47*
%MOMM*%
%LPD*%
G01*
G04 APERTURE LIST*
%ADD10R,1.700000X1.700000*%
%ADD11C,1.700000*%
%ADD12C,3.500000*%
%ADD13C,2.200000*%
%ADD14R,1.600000X1.600000*%
%ADD15O,1.600000X1.600000*%
%ADD16O,1.700000X1.700000*%
%ADD17R,3.500000X3.500000*%
%ADD18O,1.700000X2.000000*%
%ADD19O,1.950000X1.700000*%
%ADD20R,1.200000X2.200000*%
%ADD21R,5.800000X6.400000*%
%ADD22R,1.060000X0.650000*%
%ADD23C,1.524000*%
G04 APERTURE END LIST*
D10*
X100300000Y-84900000D03*
D11*
X100300000Y-82400000D03*
X98300000Y-82400000D03*
X98300000Y-84900000D03*
D12*
X95590000Y-89670000D03*
X95590000Y-77630000D03*
D13*
X114200000Y-105900000D03*
X163500000Y-112900000D03*
X140900000Y-88500000D03*
D14*
X162100000Y-93000000D03*
D15*
X129080000Y-108240000D03*
X159560000Y-93000000D03*
X131620000Y-108240000D03*
X157020000Y-93000000D03*
X134160000Y-108240000D03*
X154480000Y-93000000D03*
X136700000Y-108240000D03*
X151940000Y-93000000D03*
X139240000Y-108240000D03*
X149400000Y-93000000D03*
X141780000Y-108240000D03*
X146860000Y-93000000D03*
X144320000Y-108240000D03*
X144320000Y-93000000D03*
X146860000Y-108240000D03*
X141780000Y-93000000D03*
X149400000Y-108240000D03*
X139240000Y-93000000D03*
X151940000Y-108240000D03*
X136700000Y-93000000D03*
X154480000Y-108240000D03*
X134160000Y-93000000D03*
X157020000Y-108240000D03*
X131620000Y-93000000D03*
X159560000Y-108240000D03*
X129080000Y-93000000D03*
X162100000Y-108240000D03*
X126540000Y-93000000D03*
X126540000Y-108240000D03*
G36*
G01*
X160075000Y-115025000D02*
X159125000Y-115025000D01*
G75*
G02*
X158875000Y-114775000I0J250000D01*
G01*
X158875000Y-114100000D01*
G75*
G02*
X159125000Y-113850000I250000J0D01*
G01*
X160075000Y-113850000D01*
G75*
G02*
X160325000Y-114100000I0J-250000D01*
G01*
X160325000Y-114775000D01*
G75*
G02*
X160075000Y-115025000I-250000J0D01*
G01*
G37*
G36*
G01*
X160075000Y-112950000D02*
X159125000Y-112950000D01*
G75*
G02*
X158875000Y-112700000I0J250000D01*
G01*
X158875000Y-112025000D01*
G75*
G02*
X159125000Y-111775000I250000J0D01*
G01*
X160075000Y-111775000D01*
G75*
G02*
X160325000Y-112025000I0J-250000D01*
G01*
X160325000Y-112700000D01*
G75*
G02*
X160075000Y-112950000I-250000J0D01*
G01*
G37*
G36*
G01*
X150175000Y-111550000D02*
X149225000Y-111550000D01*
G75*
G02*
X148975000Y-111300000I0J250000D01*
G01*
X148975000Y-110625000D01*
G75*
G02*
X149225000Y-110375000I250000J0D01*
G01*
X150175000Y-110375000D01*
G75*
G02*
X150425000Y-110625000I0J-250000D01*
G01*
X150425000Y-111300000D01*
G75*
G02*
X150175000Y-111550000I-250000J0D01*
G01*
G37*
G36*
G01*
X150175000Y-113625000D02*
X149225000Y-113625000D01*
G75*
G02*
X148975000Y-113375000I0J250000D01*
G01*
X148975000Y-112700000D01*
G75*
G02*
X149225000Y-112450000I250000J0D01*
G01*
X150175000Y-112450000D01*
G75*
G02*
X150425000Y-112700000I0J-250000D01*
G01*
X150425000Y-113375000D01*
G75*
G02*
X150175000Y-113625000I-250000J0D01*
G01*
G37*
D10*
X108000000Y-84600000D03*
D16*
X108000000Y-82060000D03*
X108000000Y-79520000D03*
X108000000Y-76980000D03*
D17*
X98800000Y-108400000D03*
G36*
G01*
X91300000Y-109400000D02*
X91300000Y-107400000D01*
G75*
G02*
X92050000Y-106650000I750000J0D01*
G01*
X93550000Y-106650000D01*
G75*
G02*
X94300000Y-107400000I0J-750000D01*
G01*
X94300000Y-109400000D01*
G75*
G02*
X93550000Y-110150000I-750000J0D01*
G01*
X92050000Y-110150000D01*
G75*
G02*
X91300000Y-109400000I0J750000D01*
G01*
G37*
G36*
G01*
X94050000Y-113975000D02*
X94050000Y-112225000D01*
G75*
G02*
X94925000Y-111350000I875000J0D01*
G01*
X96675000Y-111350000D01*
G75*
G02*
X97550000Y-112225000I0J-875000D01*
G01*
X97550000Y-113975000D01*
G75*
G02*
X96675000Y-114850000I-875000J0D01*
G01*
X94925000Y-114850000D01*
G75*
G02*
X94050000Y-113975000I0J875000D01*
G01*
G37*
G36*
G01*
X89850000Y-97550000D02*
X89850000Y-96050000D01*
G75*
G02*
X90100000Y-95800000I250000J0D01*
G01*
X91300000Y-95800000D01*
G75*
G02*
X91550000Y-96050000I0J-250000D01*
G01*
X91550000Y-97550000D01*
G75*
G02*
X91300000Y-97800000I-250000J0D01*
G01*
X90100000Y-97800000D01*
G75*
G02*
X89850000Y-97550000I0J250000D01*
G01*
G37*
D18*
X93200000Y-96800000D03*
D16*
X120640000Y-113500000D03*
D10*
X118100000Y-113500000D03*
X127100000Y-113500000D03*
D16*
X129640000Y-113500000D03*
G36*
G01*
X139675000Y-76650000D02*
X141125000Y-76650000D01*
G75*
G02*
X141375000Y-76900000I0J-250000D01*
G01*
X141375000Y-78100000D01*
G75*
G02*
X141125000Y-78350000I-250000J0D01*
G01*
X139675000Y-78350000D01*
G75*
G02*
X139425000Y-78100000I0J250000D01*
G01*
X139425000Y-76900000D01*
G75*
G02*
X139675000Y-76650000I250000J0D01*
G01*
G37*
D19*
X140400000Y-80000000D03*
X140400000Y-82500000D03*
D10*
X156200000Y-111900000D03*
D16*
X156200000Y-114440000D03*
D20*
X109080000Y-106300000D03*
X104520000Y-106300000D03*
D21*
X106800000Y-112600000D03*
G36*
G01*
X100150001Y-96300000D02*
X99249999Y-96300000D01*
G75*
G02*
X99000000Y-96050001I0J249999D01*
G01*
X99000000Y-95399999D01*
G75*
G02*
X99249999Y-95150000I249999J0D01*
G01*
X100150001Y-95150000D01*
G75*
G02*
X100400000Y-95399999I0J-249999D01*
G01*
X100400000Y-96050001D01*
G75*
G02*
X100150001Y-96300000I-249999J0D01*
G01*
G37*
G36*
G01*
X100150001Y-94250000D02*
X99249999Y-94250000D01*
G75*
G02*
X99000000Y-94000001I0J249999D01*
G01*
X99000000Y-93349999D01*
G75*
G02*
X99249999Y-93100000I249999J0D01*
G01*
X100150001Y-93100000D01*
G75*
G02*
X100400000Y-93349999I0J-249999D01*
G01*
X100400000Y-94000001D01*
G75*
G02*
X100150001Y-94250000I-249999J0D01*
G01*
G37*
G36*
G01*
X102649999Y-93100000D02*
X103550001Y-93100000D01*
G75*
G02*
X103800000Y-93349999I0J-249999D01*
G01*
X103800000Y-94000001D01*
G75*
G02*
X103550001Y-94250000I-249999J0D01*
G01*
X102649999Y-94250000D01*
G75*
G02*
X102400000Y-94000001I0J249999D01*
G01*
X102400000Y-93349999D01*
G75*
G02*
X102649999Y-93100000I249999J0D01*
G01*
G37*
G36*
G01*
X102649999Y-95150000D02*
X103550001Y-95150000D01*
G75*
G02*
X103800000Y-95399999I0J-249999D01*
G01*
X103800000Y-96050001D01*
G75*
G02*
X103550001Y-96300000I-249999J0D01*
G01*
X102649999Y-96300000D01*
G75*
G02*
X102400000Y-96050001I0J249999D01*
G01*
X102400000Y-95399999D01*
G75*
G02*
X102649999Y-95150000I249999J0D01*
G01*
G37*
G36*
G01*
X138000000Y-110949999D02*
X138000000Y-111850001D01*
G75*
G02*
X137750001Y-112100000I-249999J0D01*
G01*
X137099999Y-112100000D01*
G75*
G02*
X136850000Y-111850001I0J249999D01*
G01*
X136850000Y-110949999D01*
G75*
G02*
X137099999Y-110700000I249999J0D01*
G01*
X137750001Y-110700000D01*
G75*
G02*
X138000000Y-110949999I0J-249999D01*
G01*
G37*
G36*
G01*
X135950000Y-110949999D02*
X135950000Y-111850001D01*
G75*
G02*
X135700001Y-112100000I-249999J0D01*
G01*
X135049999Y-112100000D01*
G75*
G02*
X134800000Y-111850001I0J249999D01*
G01*
X134800000Y-110949999D01*
G75*
G02*
X135049999Y-110700000I249999J0D01*
G01*
X135700001Y-110700000D01*
G75*
G02*
X135950000Y-110949999I0J-249999D01*
G01*
G37*
G36*
G01*
X136850000Y-114750001D02*
X136850000Y-113849999D01*
G75*
G02*
X137099999Y-113600000I249999J0D01*
G01*
X137750001Y-113600000D01*
G75*
G02*
X138000000Y-113849999I0J-249999D01*
G01*
X138000000Y-114750001D01*
G75*
G02*
X137750001Y-115000000I-249999J0D01*
G01*
X137099999Y-115000000D01*
G75*
G02*
X136850000Y-114750001I0J249999D01*
G01*
G37*
G36*
G01*
X134800000Y-114750001D02*
X134800000Y-113849999D01*
G75*
G02*
X135049999Y-113600000I249999J0D01*
G01*
X135700001Y-113600000D01*
G75*
G02*
X135950000Y-113849999I0J-249999D01*
G01*
X135950000Y-114750001D01*
G75*
G02*
X135700001Y-115000000I-249999J0D01*
G01*
X135049999Y-115000000D01*
G75*
G02*
X134800000Y-114750001I0J249999D01*
G01*
G37*
G36*
G01*
X140650000Y-113849999D02*
X140650000Y-114750001D01*
G75*
G02*
X140400001Y-115000000I-249999J0D01*
G01*
X139749999Y-115000000D01*
G75*
G02*
X139500000Y-114750001I0J249999D01*
G01*
X139500000Y-113849999D01*
G75*
G02*
X139749999Y-113600000I249999J0D01*
G01*
X140400001Y-113600000D01*
G75*
G02*
X140650000Y-113849999I0J-249999D01*
G01*
G37*
G36*
G01*
X142700000Y-113849999D02*
X142700000Y-114750001D01*
G75*
G02*
X142450001Y-115000000I-249999J0D01*
G01*
X141799999Y-115000000D01*
G75*
G02*
X141550000Y-114750001I0J249999D01*
G01*
X141550000Y-113849999D01*
G75*
G02*
X141799999Y-113600000I249999J0D01*
G01*
X142450001Y-113600000D01*
G75*
G02*
X142700000Y-113849999I0J-249999D01*
G01*
G37*
D22*
X146400000Y-112950000D03*
X146400000Y-112000000D03*
X146400000Y-111050000D03*
X144200000Y-111050000D03*
X144200000Y-112950000D03*
X144200000Y-112000000D03*
G36*
G01*
X106645000Y-95750000D02*
X106345000Y-95750000D01*
G75*
G02*
X106195000Y-95600000I0J150000D01*
G01*
X106195000Y-94150000D01*
G75*
G02*
X106345000Y-94000000I150000J0D01*
G01*
X106645000Y-94000000D01*
G75*
G02*
X106795000Y-94150000I0J-150000D01*
G01*
X106795000Y-95600000D01*
G75*
G02*
X106645000Y-95750000I-150000J0D01*
G01*
G37*
G36*
G01*
X107915000Y-95750000D02*
X107615000Y-95750000D01*
G75*
G02*
X107465000Y-95600000I0J150000D01*
G01*
X107465000Y-94150000D01*
G75*
G02*
X107615000Y-94000000I150000J0D01*
G01*
X107915000Y-94000000D01*
G75*
G02*
X108065000Y-94150000I0J-150000D01*
G01*
X108065000Y-95600000D01*
G75*
G02*
X107915000Y-95750000I-150000J0D01*
G01*
G37*
G36*
G01*
X109185000Y-95750000D02*
X108885000Y-95750000D01*
G75*
G02*
X108735000Y-95600000I0J150000D01*
G01*
X108735000Y-94150000D01*
G75*
G02*
X108885000Y-94000000I150000J0D01*
G01*
X109185000Y-94000000D01*
G75*
G02*
X109335000Y-94150000I0J-150000D01*
G01*
X109335000Y-95600000D01*
G75*
G02*
X109185000Y-95750000I-150000J0D01*
G01*
G37*
G36*
G01*
X110455000Y-95750000D02*
X110155000Y-95750000D01*
G75*
G02*
X110005000Y-95600000I0J150000D01*
G01*
X110005000Y-94150000D01*
G75*
G02*
X110155000Y-94000000I150000J0D01*
G01*
X110455000Y-94000000D01*
G75*
G02*
X110605000Y-94150000I0J-150000D01*
G01*
X110605000Y-95600000D01*
G75*
G02*
X110455000Y-95750000I-150000J0D01*
G01*
G37*
G36*
G01*
X110455000Y-90600000D02*
X110155000Y-90600000D01*
G75*
G02*
X110005000Y-90450000I0J150000D01*
G01*
X110005000Y-89000000D01*
G75*
G02*
X110155000Y-88850000I150000J0D01*
G01*
X110455000Y-88850000D01*
G75*
G02*
X110605000Y-89000000I0J-150000D01*
G01*
X110605000Y-90450000D01*
G75*
G02*
X110455000Y-90600000I-150000J0D01*
G01*
G37*
G36*
G01*
X109185000Y-90600000D02*
X108885000Y-90600000D01*
G75*
G02*
X108735000Y-90450000I0J150000D01*
G01*
X108735000Y-89000000D01*
G75*
G02*
X108885000Y-88850000I150000J0D01*
G01*
X109185000Y-88850000D01*
G75*
G02*
X109335000Y-89000000I0J-150000D01*
G01*
X109335000Y-90450000D01*
G75*
G02*
X109185000Y-90600000I-150000J0D01*
G01*
G37*
G36*
G01*
X107915000Y-90600000D02*
X107615000Y-90600000D01*
G75*
G02*
X107465000Y-90450000I0J150000D01*
G01*
X107465000Y-89000000D01*
G75*
G02*
X107615000Y-88850000I150000J0D01*
G01*
X107915000Y-88850000D01*
G75*
G02*
X108065000Y-89000000I0J-150000D01*
G01*
X108065000Y-90450000D01*
G75*
G02*
X107915000Y-90600000I-150000J0D01*
G01*
G37*
G36*
G01*
X106645000Y-90600000D02*
X106345000Y-90600000D01*
G75*
G02*
X106195000Y-90450000I0J150000D01*
G01*
X106195000Y-89000000D01*
G75*
G02*
X106345000Y-88850000I150000J0D01*
G01*
X106645000Y-88850000D01*
G75*
G02*
X106795000Y-89000000I0J-150000D01*
G01*
X106795000Y-90450000D01*
G75*
G02*
X106645000Y-90600000I-150000J0D01*
G01*
G37*
D23*
X113729000Y-89604000D03*
X113729000Y-78336000D03*
X113729000Y-87000000D03*
X113729000Y-75796000D03*
X132271000Y-75796000D03*
X132271000Y-78336000D03*
X132271000Y-87064000D03*
X132271000Y-89604000D03*
G36*
G01*
X107212500Y-101575000D02*
X107212500Y-100625000D01*
G75*
G02*
X107462500Y-100375000I250000J0D01*
G01*
X108137500Y-100375000D01*
G75*
G02*
X108387500Y-100625000I0J-250000D01*
G01*
X108387500Y-101575000D01*
G75*
G02*
X108137500Y-101825000I-250000J0D01*
G01*
X107462500Y-101825000D01*
G75*
G02*
X107212500Y-101575000I0J250000D01*
G01*
G37*
G36*
G01*
X105137500Y-101575000D02*
X105137500Y-100625000D01*
G75*
G02*
X105387500Y-100375000I250000J0D01*
G01*
X106062500Y-100375000D01*
G75*
G02*
X106312500Y-100625000I0J-250000D01*
G01*
X106312500Y-101575000D01*
G75*
G02*
X106062500Y-101825000I-250000J0D01*
G01*
X105387500Y-101825000D01*
G75*
G02*
X105137500Y-101575000I0J250000D01*
G01*
G37*
M02*
