%FSLAX45Y45*%
G04 Gerber Fmt 4.5, Leading zero omitted, Abs format (unit mm)*
G04 Created by KiCad (PCBNEW (5.1.10)-1) date 2022-01-19 22:44:34*
%MOMM*%
%LPD*%
G01*
G04 APERTURE LIST*
%TA.AperFunction,Profile*%
%ADD10C,0.050000*%
%TD*%
%ADD11C,0.200000*%
%ADD12C,0.300000*%
G04 APERTURE END LIST*
D10*
X16445000Y-10240000D02*
X16445000Y-9070000D01*
X17445000Y-10240000D02*
X16445000Y-10240000D01*
X17445000Y-9070000D02*
X17445000Y-10240000D01*
X16445000Y-9070000D02*
X17445000Y-9070000D01*
X13820000Y-10240000D02*
X13820000Y-9090000D01*
X15120000Y-10240000D02*
X13820000Y-10240000D01*
X15120000Y-9090000D02*
X15120000Y-10240000D01*
X13820000Y-9090000D02*
X15120000Y-9090000D01*
X13130000Y-10555000D02*
G75*
G03*
X13365000Y-10790000I235000J0D01*
G01*
X17895000Y-10790000D02*
G75*
G03*
X18130000Y-10555000I0J235000D01*
G01*
X18130000Y-9005000D02*
G75*
G03*
X17895000Y-8770000I-235000J0D01*
G01*
X13365000Y-8770000D02*
G75*
G03*
X13130000Y-9005000I0J-235000D01*
G01*
X18130000Y-9005000D02*
X18130000Y-10555000D01*
X13130000Y-9005000D02*
X13130000Y-10555000D01*
X13365000Y-10790000D02*
X17895000Y-10790000D01*
X13365000Y-8770000D02*
X17895000Y-8770000D01*
D11*
X13265000Y-8925000D02*
X13485000Y-9145000D01*
X13485000Y-8925000D02*
X13265000Y-9145000D01*
X13265000Y-10415000D02*
X13485000Y-10635000D01*
X13485000Y-10415000D02*
X13265000Y-10635000D01*
X17775000Y-8925000D02*
X17995000Y-9145000D01*
X17995000Y-8925000D02*
X17775000Y-9145000D01*
X17775000Y-10415000D02*
X17995000Y-10635000D01*
X17995000Y-10415000D02*
X17775000Y-10635000D01*
D12*
X13413928Y-11258214D02*
X13413928Y-10958214D01*
X13485357Y-10958214D01*
X13528214Y-10972500D01*
X13556786Y-11001072D01*
X13571071Y-11029643D01*
X13585357Y-11086786D01*
X13585357Y-11129643D01*
X13571071Y-11186786D01*
X13556786Y-11215357D01*
X13528214Y-11243929D01*
X13485357Y-11258214D01*
X13413928Y-11258214D01*
X13713928Y-11258214D02*
X13713928Y-11058214D01*
X13713928Y-11115357D02*
X13728214Y-11086786D01*
X13742500Y-11072500D01*
X13771071Y-11058214D01*
X13799643Y-11058214D01*
X13899643Y-11258214D02*
X13899643Y-11058214D01*
X13899643Y-10958214D02*
X13885357Y-10972500D01*
X13899643Y-10986786D01*
X13913928Y-10972500D01*
X13899643Y-10958214D01*
X13899643Y-10986786D01*
X14085357Y-11258214D02*
X14056786Y-11243929D01*
X14042500Y-11215357D01*
X14042500Y-10958214D01*
X14242500Y-11258214D02*
X14213928Y-11243929D01*
X14199643Y-11215357D01*
X14199643Y-10958214D01*
X14585357Y-11258214D02*
X14585357Y-10958214D01*
X14685357Y-11172500D01*
X14785357Y-10958214D01*
X14785357Y-11258214D01*
X15056786Y-11258214D02*
X15056786Y-11101072D01*
X15042500Y-11072500D01*
X15013928Y-11058214D01*
X14956786Y-11058214D01*
X14928214Y-11072500D01*
X15056786Y-11243929D02*
X15028214Y-11258214D01*
X14956786Y-11258214D01*
X14928214Y-11243929D01*
X14913928Y-11215357D01*
X14913928Y-11186786D01*
X14928214Y-11158214D01*
X14956786Y-11143929D01*
X15028214Y-11143929D01*
X15056786Y-11129643D01*
X15199643Y-11058214D02*
X15199643Y-11358214D01*
X15199643Y-11072500D02*
X15228214Y-11058214D01*
X15285357Y-11058214D01*
X15313928Y-11072500D01*
X15328214Y-11086786D01*
X15342500Y-11115357D01*
X15342500Y-11201071D01*
X15328214Y-11229643D01*
X15313928Y-11243929D01*
X15285357Y-11258214D01*
X15228214Y-11258214D01*
X15199643Y-11243929D01*
X15471071Y-11229643D02*
X15485357Y-11243929D01*
X15471071Y-11258214D01*
X15456786Y-11243929D01*
X15471071Y-11229643D01*
X15471071Y-11258214D01*
X15471071Y-11072500D02*
X15485357Y-11086786D01*
X15471071Y-11101072D01*
X15456786Y-11086786D01*
X15471071Y-11072500D01*
X15471071Y-11101072D01*
X12907500Y-11642500D02*
X13127500Y-11862500D01*
X13127500Y-11642500D02*
X12907500Y-11862500D01*
X13399643Y-11616786D02*
X13413928Y-11602500D01*
X13442500Y-11588214D01*
X13513928Y-11588214D01*
X13542500Y-11602500D01*
X13556786Y-11616786D01*
X13571071Y-11645357D01*
X13571071Y-11673929D01*
X13556786Y-11716786D01*
X13385357Y-11888214D01*
X13571071Y-11888214D01*
X13699643Y-11859643D02*
X13713928Y-11873929D01*
X13699643Y-11888214D01*
X13685357Y-11873929D01*
X13699643Y-11859643D01*
X13699643Y-11888214D01*
X13828214Y-11616786D02*
X13842500Y-11602500D01*
X13871071Y-11588214D01*
X13942500Y-11588214D01*
X13971071Y-11602500D01*
X13985357Y-11616786D01*
X13999643Y-11645357D01*
X13999643Y-11673929D01*
X13985357Y-11716786D01*
X13813928Y-11888214D01*
X13999643Y-11888214D01*
X14185357Y-11588214D02*
X14213928Y-11588214D01*
X14242500Y-11602500D01*
X14256786Y-11616786D01*
X14271071Y-11645357D01*
X14285357Y-11702500D01*
X14285357Y-11773929D01*
X14271071Y-11831071D01*
X14256786Y-11859643D01*
X14242500Y-11873929D01*
X14213928Y-11888214D01*
X14185357Y-11888214D01*
X14156786Y-11873929D01*
X14142500Y-11859643D01*
X14128214Y-11831071D01*
X14113928Y-11773929D01*
X14113928Y-11702500D01*
X14128214Y-11645357D01*
X14142500Y-11616786D01*
X14156786Y-11602500D01*
X14185357Y-11588214D01*
X14471071Y-11588214D02*
X14499643Y-11588214D01*
X14528214Y-11602500D01*
X14542500Y-11616786D01*
X14556786Y-11645357D01*
X14571071Y-11702500D01*
X14571071Y-11773929D01*
X14556786Y-11831071D01*
X14542500Y-11859643D01*
X14528214Y-11873929D01*
X14499643Y-11888214D01*
X14471071Y-11888214D01*
X14442500Y-11873929D01*
X14428214Y-11859643D01*
X14413928Y-11831071D01*
X14399643Y-11773929D01*
X14399643Y-11702500D01*
X14413928Y-11645357D01*
X14428214Y-11616786D01*
X14442500Y-11602500D01*
X14471071Y-11588214D01*
X14699643Y-11888214D02*
X14699643Y-11688214D01*
X14699643Y-11716786D02*
X14713928Y-11702500D01*
X14742500Y-11688214D01*
X14785357Y-11688214D01*
X14813928Y-11702500D01*
X14828214Y-11731071D01*
X14828214Y-11888214D01*
X14828214Y-11731071D02*
X14842500Y-11702500D01*
X14871071Y-11688214D01*
X14913928Y-11688214D01*
X14942500Y-11702500D01*
X14956786Y-11731071D01*
X14956786Y-11888214D01*
X15099643Y-11888214D02*
X15099643Y-11688214D01*
X15099643Y-11716786D02*
X15113928Y-11702500D01*
X15142500Y-11688214D01*
X15185357Y-11688214D01*
X15213928Y-11702500D01*
X15228214Y-11731071D01*
X15228214Y-11888214D01*
X15228214Y-11731071D02*
X15242500Y-11702500D01*
X15271071Y-11688214D01*
X15313928Y-11688214D01*
X15342500Y-11702500D01*
X15356786Y-11731071D01*
X15356786Y-11888214D01*
X15942500Y-11573929D02*
X15685357Y-11959643D01*
X16328214Y-11588214D02*
X16356786Y-11588214D01*
X16385357Y-11602500D01*
X16399643Y-11616786D01*
X16413928Y-11645357D01*
X16428214Y-11702500D01*
X16428214Y-11773929D01*
X16413928Y-11831071D01*
X16399643Y-11859643D01*
X16385357Y-11873929D01*
X16356786Y-11888214D01*
X16328214Y-11888214D01*
X16299643Y-11873929D01*
X16285357Y-11859643D01*
X16271071Y-11831071D01*
X16256786Y-11773929D01*
X16256786Y-11702500D01*
X16271071Y-11645357D01*
X16285357Y-11616786D01*
X16299643Y-11602500D01*
X16328214Y-11588214D01*
X16556786Y-11859643D02*
X16571071Y-11873929D01*
X16556786Y-11888214D01*
X16542500Y-11873929D01*
X16556786Y-11859643D01*
X16556786Y-11888214D01*
X16756786Y-11588214D02*
X16785357Y-11588214D01*
X16813928Y-11602500D01*
X16828214Y-11616786D01*
X16842500Y-11645357D01*
X16856786Y-11702500D01*
X16856786Y-11773929D01*
X16842500Y-11831071D01*
X16828214Y-11859643D01*
X16813928Y-11873929D01*
X16785357Y-11888214D01*
X16756786Y-11888214D01*
X16728214Y-11873929D01*
X16713928Y-11859643D01*
X16699643Y-11831071D01*
X16685357Y-11773929D01*
X16685357Y-11702500D01*
X16699643Y-11645357D01*
X16713928Y-11616786D01*
X16728214Y-11602500D01*
X16756786Y-11588214D01*
X17028214Y-11716786D02*
X16999643Y-11702500D01*
X16985357Y-11688214D01*
X16971071Y-11659643D01*
X16971071Y-11645357D01*
X16985357Y-11616786D01*
X16999643Y-11602500D01*
X17028214Y-11588214D01*
X17085357Y-11588214D01*
X17113928Y-11602500D01*
X17128214Y-11616786D01*
X17142500Y-11645357D01*
X17142500Y-11659643D01*
X17128214Y-11688214D01*
X17113928Y-11702500D01*
X17085357Y-11716786D01*
X17028214Y-11716786D01*
X16999643Y-11731071D01*
X16985357Y-11745357D01*
X16971071Y-11773929D01*
X16971071Y-11831071D01*
X16985357Y-11859643D01*
X16999643Y-11873929D01*
X17028214Y-11888214D01*
X17085357Y-11888214D01*
X17113928Y-11873929D01*
X17128214Y-11859643D01*
X17142500Y-11831071D01*
X17142500Y-11773929D01*
X17128214Y-11745357D01*
X17113928Y-11731071D01*
X17085357Y-11716786D01*
X17399643Y-11588214D02*
X17342500Y-11588214D01*
X17313928Y-11602500D01*
X17299643Y-11616786D01*
X17271071Y-11659643D01*
X17256786Y-11716786D01*
X17256786Y-11831071D01*
X17271071Y-11859643D01*
X17285357Y-11873929D01*
X17313928Y-11888214D01*
X17371071Y-11888214D01*
X17399643Y-11873929D01*
X17413928Y-11859643D01*
X17428214Y-11831071D01*
X17428214Y-11759643D01*
X17413928Y-11731071D01*
X17399643Y-11716786D01*
X17371071Y-11702500D01*
X17313928Y-11702500D01*
X17285357Y-11716786D01*
X17271071Y-11731071D01*
X17256786Y-11759643D01*
X17685357Y-11588214D02*
X17628214Y-11588214D01*
X17599643Y-11602500D01*
X17585357Y-11616786D01*
X17556786Y-11659643D01*
X17542500Y-11716786D01*
X17542500Y-11831071D01*
X17556786Y-11859643D01*
X17571071Y-11873929D01*
X17599643Y-11888214D01*
X17656786Y-11888214D01*
X17685357Y-11873929D01*
X17699643Y-11859643D01*
X17713928Y-11831071D01*
X17713928Y-11759643D01*
X17699643Y-11731071D01*
X17685357Y-11716786D01*
X17656786Y-11702500D01*
X17599643Y-11702500D01*
X17571071Y-11716786D01*
X17556786Y-11731071D01*
X17542500Y-11759643D01*
X17828214Y-11588214D02*
X17828214Y-11645357D01*
X17942500Y-11588214D02*
X17942500Y-11645357D01*
X18385357Y-12002500D02*
X18371071Y-11988214D01*
X18342500Y-11945357D01*
X18328214Y-11916786D01*
X18313928Y-11873929D01*
X18299643Y-11802500D01*
X18299643Y-11745357D01*
X18313928Y-11673929D01*
X18328214Y-11631071D01*
X18342500Y-11602500D01*
X18371071Y-11559643D01*
X18385357Y-11545357D01*
X18628214Y-11688214D02*
X18628214Y-11888214D01*
X18556786Y-11573929D02*
X18485357Y-11788214D01*
X18671071Y-11788214D01*
X19013928Y-11888214D02*
X19013928Y-11588214D01*
X19142500Y-11888214D02*
X19142500Y-11731071D01*
X19128214Y-11702500D01*
X19099643Y-11688214D01*
X19056786Y-11688214D01*
X19028214Y-11702500D01*
X19013928Y-11716786D01*
X19328214Y-11888214D02*
X19299643Y-11873929D01*
X19285357Y-11859643D01*
X19271071Y-11831071D01*
X19271071Y-11745357D01*
X19285357Y-11716786D01*
X19299643Y-11702500D01*
X19328214Y-11688214D01*
X19371071Y-11688214D01*
X19399643Y-11702500D01*
X19413928Y-11716786D01*
X19428214Y-11745357D01*
X19428214Y-11831071D01*
X19413928Y-11859643D01*
X19399643Y-11873929D01*
X19371071Y-11888214D01*
X19328214Y-11888214D01*
X19599643Y-11888214D02*
X19571071Y-11873929D01*
X19556786Y-11845357D01*
X19556786Y-11588214D01*
X19828214Y-11873929D02*
X19799643Y-11888214D01*
X19742500Y-11888214D01*
X19713928Y-11873929D01*
X19699643Y-11845357D01*
X19699643Y-11731071D01*
X19713928Y-11702500D01*
X19742500Y-11688214D01*
X19799643Y-11688214D01*
X19828214Y-11702500D01*
X19842500Y-11731071D01*
X19842500Y-11759643D01*
X19699643Y-11788214D01*
X19956786Y-11873929D02*
X19985357Y-11888214D01*
X20042500Y-11888214D01*
X20071071Y-11873929D01*
X20085357Y-11845357D01*
X20085357Y-11831071D01*
X20071071Y-11802500D01*
X20042500Y-11788214D01*
X19999643Y-11788214D01*
X19971071Y-11773929D01*
X19956786Y-11745357D01*
X19956786Y-11731071D01*
X19971071Y-11702500D01*
X19999643Y-11688214D01*
X20042500Y-11688214D01*
X20071071Y-11702500D01*
X20185357Y-12002500D02*
X20199643Y-11988214D01*
X20228214Y-11945357D01*
X20242500Y-11916786D01*
X20256786Y-11873929D01*
X20271071Y-11802500D01*
X20271071Y-11745357D01*
X20256786Y-11673929D01*
X20242500Y-11631071D01*
X20228214Y-11602500D01*
X20199643Y-11559643D01*
X20185357Y-11545357D01*
X20728214Y-12002500D02*
X20713928Y-11988214D01*
X20685357Y-11945357D01*
X20671071Y-11916786D01*
X20656786Y-11873929D01*
X20642500Y-11802500D01*
X20642500Y-11745357D01*
X20656786Y-11673929D01*
X20671071Y-11631071D01*
X20685357Y-11602500D01*
X20713928Y-11559643D01*
X20728214Y-11545357D01*
X20842500Y-11688214D02*
X20842500Y-11888214D01*
X20842500Y-11716786D02*
X20856786Y-11702500D01*
X20885357Y-11688214D01*
X20928214Y-11688214D01*
X20956786Y-11702500D01*
X20971071Y-11731071D01*
X20971071Y-11888214D01*
X21156786Y-11888214D02*
X21128214Y-11873929D01*
X21113928Y-11859643D01*
X21099643Y-11831071D01*
X21099643Y-11745357D01*
X21113928Y-11716786D01*
X21128214Y-11702500D01*
X21156786Y-11688214D01*
X21199643Y-11688214D01*
X21228214Y-11702500D01*
X21242500Y-11716786D01*
X21256786Y-11745357D01*
X21256786Y-11831071D01*
X21242500Y-11859643D01*
X21228214Y-11873929D01*
X21199643Y-11888214D01*
X21156786Y-11888214D01*
X21342500Y-11688214D02*
X21456786Y-11688214D01*
X21385357Y-11588214D02*
X21385357Y-11845357D01*
X21399643Y-11873929D01*
X21428214Y-11888214D01*
X21456786Y-11888214D01*
X21785357Y-11688214D02*
X21785357Y-11988214D01*
X21785357Y-11702500D02*
X21813928Y-11688214D01*
X21871071Y-11688214D01*
X21899643Y-11702500D01*
X21913928Y-11716786D01*
X21928214Y-11745357D01*
X21928214Y-11831071D01*
X21913928Y-11859643D01*
X21899643Y-11873929D01*
X21871071Y-11888214D01*
X21813928Y-11888214D01*
X21785357Y-11873929D01*
X22099643Y-11888214D02*
X22071071Y-11873929D01*
X22056786Y-11845357D01*
X22056786Y-11588214D01*
X22342500Y-11888214D02*
X22342500Y-11731071D01*
X22328214Y-11702500D01*
X22299643Y-11688214D01*
X22242500Y-11688214D01*
X22213928Y-11702500D01*
X22342500Y-11873929D02*
X22313928Y-11888214D01*
X22242500Y-11888214D01*
X22213928Y-11873929D01*
X22199643Y-11845357D01*
X22199643Y-11816786D01*
X22213928Y-11788214D01*
X22242500Y-11773929D01*
X22313928Y-11773929D01*
X22342500Y-11759643D01*
X22442500Y-11688214D02*
X22556786Y-11688214D01*
X22485357Y-11588214D02*
X22485357Y-11845357D01*
X22499643Y-11873929D01*
X22528214Y-11888214D01*
X22556786Y-11888214D01*
X22771071Y-11873929D02*
X22742500Y-11888214D01*
X22685357Y-11888214D01*
X22656786Y-11873929D01*
X22642500Y-11845357D01*
X22642500Y-11731071D01*
X22656786Y-11702500D01*
X22685357Y-11688214D01*
X22742500Y-11688214D01*
X22771071Y-11702500D01*
X22785357Y-11731071D01*
X22785357Y-11759643D01*
X22642500Y-11788214D01*
X23042500Y-11888214D02*
X23042500Y-11588214D01*
X23042500Y-11873929D02*
X23013928Y-11888214D01*
X22956786Y-11888214D01*
X22928214Y-11873929D01*
X22913928Y-11859643D01*
X22899643Y-11831071D01*
X22899643Y-11745357D01*
X22913928Y-11716786D01*
X22928214Y-11702500D01*
X22956786Y-11688214D01*
X23013928Y-11688214D01*
X23042500Y-11702500D01*
X23156786Y-12002500D02*
X23171071Y-11988214D01*
X23199643Y-11945357D01*
X23213928Y-11916786D01*
X23228214Y-11873929D01*
X23242500Y-11802500D01*
X23242500Y-11745357D01*
X23228214Y-11673929D01*
X23213928Y-11631071D01*
X23199643Y-11602500D01*
X23171071Y-11559643D01*
X23156786Y-11545357D01*
M02*
