%FSLAX45Y45*%
G04 Gerber Fmt 4.5, Leading zero omitted, Abs format (unit mm)*
G04 Created by KiCad (PCBNEW (5.1.10)-1) date 2022-01-19 22:44:34*
%MOMM*%
%LPD*%
G01*
G04 APERTURE LIST*
%TA.AperFunction,Profile*%
%ADD10C,0.050000*%
%TD*%
%ADD11C,0.200000*%
%ADD12C,0.300000*%
G04 APERTURE END LIST*
D10*
X16445000Y-10240000D02*
X16445000Y-9070000D01*
X17445000Y-10240000D02*
X16445000Y-10240000D01*
X17445000Y-9070000D02*
X17445000Y-10240000D01*
X16445000Y-9070000D02*
X17445000Y-9070000D01*
X13820000Y-10240000D02*
X13820000Y-9090000D01*
X15120000Y-10240000D02*
X13820000Y-10240000D01*
X15120000Y-9090000D02*
X15120000Y-10240000D01*
X13820000Y-9090000D02*
X15120000Y-9090000D01*
X13130000Y-10555000D02*
G75*
G03*
X13365000Y-10790000I235000J0D01*
G01*
X17895000Y-10790000D02*
G75*
G03*
X18130000Y-10555000I0J235000D01*
G01*
X18130000Y-9005000D02*
G75*
G03*
X17895000Y-8770000I-235000J0D01*
G01*
X13365000Y-8770000D02*
G75*
G03*
X13130000Y-9005000I0J-235000D01*
G01*
X18130000Y-9005000D02*
X18130000Y-10555000D01*
X13130000Y-9005000D02*
X13130000Y-10555000D01*
X13365000Y-10790000D02*
X17895000Y-10790000D01*
X13365000Y-8770000D02*
X17895000Y-8770000D01*
D11*
D12*
X13413928Y-11258214D02*
X13413928Y-10958214D01*
X13485357Y-10958214D01*
X13528214Y-10972500D01*
X13556786Y-11001072D01*
X13571071Y-11029643D01*
X13585357Y-11086786D01*
X13585357Y-11129643D01*
X13571071Y-11186786D01*
X13556786Y-11215357D01*
X13528214Y-11243929D01*
X13485357Y-11258214D01*
X13413928Y-11258214D01*
X13713928Y-11258214D02*
X13713928Y-11058214D01*
X13713928Y-11115357D02*
X13728214Y-11086786D01*
X13742500Y-11072500D01*
X13771071Y-11058214D01*
X13799643Y-11058214D01*
X13899643Y-11258214D02*
X13899643Y-11058214D01*
X13899643Y-10958214D02*
X13885357Y-10972500D01*
X13899643Y-10986786D01*
X13913928Y-10972500D01*
X13899643Y-10958214D01*
X13899643Y-10986786D01*
X14085357Y-11258214D02*
X14056786Y-11243929D01*
X14042500Y-11215357D01*
X14042500Y-10958214D01*
X14242500Y-11258214D02*
X14213928Y-11243929D01*
X14199643Y-11215357D01*
X14199643Y-10958214D01*
X14585357Y-11258214D02*
X14585357Y-10958214D01*
X14685357Y-11172500D01*
X14785357Y-10958214D01*
X14785357Y-11258214D01*
X15056786Y-11258214D02*
X15056786Y-11101072D01*
X15042500Y-11072500D01*
X15013928Y-11058214D01*
X14956786Y-11058214D01*
X14928214Y-11072500D01*
X15056786Y-11243929D02*
X15028214Y-11258214D01*
X14956786Y-11258214D01*
X14928214Y-11243929D01*
X14913928Y-11215357D01*
X14913928Y-11186786D01*
X14928214Y-11158214D01*
X14956786Y-11143929D01*
X15028214Y-11143929D01*
X15056786Y-11129643D01*
X15199643Y-11058214D02*
X15199643Y-11358214D01*
X15199643Y-11072500D02*
X15228214Y-11058214D01*
X15285357Y-11058214D01*
X15313928Y-11072500D01*
X15328214Y-11086786D01*
X15342500Y-11115357D01*
X15342500Y-11201071D01*
X15328214Y-11229643D01*
X15313928Y-11243929D01*
X15285357Y-11258214D01*
X15228214Y-11258214D01*
X15199643Y-11243929D01*
X15471071Y-11229643D02*
X15485357Y-11243929D01*
X15471071Y-11258214D01*
X15456786Y-11243929D01*
X15471071Y-11229643D01*
X15471071Y-11258214D01*
X15471071Y-11072500D02*
X15485357Y-11086786D01*
X15471071Y-11101072D01*
X15456786Y-11086786D01*
X15471071Y-11072500D01*
X15471071Y-11101072D01*
M02*
