G04 #@! TF.GenerationSoftware,KiCad,Pcbnew,(5.1.10)-1*
G04 #@! TF.CreationDate,2022-01-19T22:44:00+01:00*
G04 #@! TF.ProjectId,ELPanelBack,454c5061-6e65-46c4-9261-636b2e6b6963,3.0*
G04 #@! TF.SameCoordinates,Original*
G04 #@! TF.FileFunction,Legend,Top*
G04 #@! TF.FilePolarity,Positive*
%FSLAX46Y46*%
G04 Gerber Fmt 4.6, Leading zero omitted, Abs format (unit mm)*
G04 Created by KiCad (PCBNEW (5.1.10)-1) date 2022-01-19 22:44:00*
%MOMM*%
%LPD*%
G01*
G04 APERTURE LIST*
%ADD10C,0.120000*%
%ADD11C,0.150000*%
%ADD12C,2.200000*%
G04 APERTURE END LIST*
D10*
X167200000Y-104800000D02*
X168500000Y-104800000D01*
D11*
X143638095Y-88852380D02*
X143638095Y-89661904D01*
X143685714Y-89757142D01*
X143733333Y-89804761D01*
X143828571Y-89852380D01*
X144019047Y-89852380D01*
X144114285Y-89804761D01*
X144161904Y-89757142D01*
X144209523Y-89661904D01*
X144209523Y-88852380D01*
X144638095Y-89804761D02*
X144780952Y-89852380D01*
X145019047Y-89852380D01*
X145114285Y-89804761D01*
X145161904Y-89757142D01*
X145209523Y-89661904D01*
X145209523Y-89566666D01*
X145161904Y-89471428D01*
X145114285Y-89423809D01*
X145019047Y-89376190D01*
X144828571Y-89328571D01*
X144733333Y-89280952D01*
X144685714Y-89233333D01*
X144638095Y-89138095D01*
X144638095Y-89042857D01*
X144685714Y-88947619D01*
X144733333Y-88900000D01*
X144828571Y-88852380D01*
X145066666Y-88852380D01*
X145209523Y-88900000D01*
X145971428Y-89328571D02*
X146114285Y-89376190D01*
X146161904Y-89423809D01*
X146209523Y-89519047D01*
X146209523Y-89661904D01*
X146161904Y-89757142D01*
X146114285Y-89804761D01*
X146019047Y-89852380D01*
X145638095Y-89852380D01*
X145638095Y-88852380D01*
X145971428Y-88852380D01*
X146066666Y-88900000D01*
X146114285Y-88947619D01*
X146161904Y-89042857D01*
X146161904Y-89138095D01*
X146114285Y-89233333D01*
X146066666Y-89280952D01*
X145971428Y-89328571D01*
X145638095Y-89328571D01*
X168780952Y-89852380D02*
X168209523Y-89852380D01*
X168495238Y-89852380D02*
X168495238Y-88852380D01*
X168400000Y-88995238D01*
X168304761Y-89090476D01*
X168209523Y-89138095D01*
X169161904Y-88947619D02*
X169209523Y-88900000D01*
X169304761Y-88852380D01*
X169542857Y-88852380D01*
X169638095Y-88900000D01*
X169685714Y-88947619D01*
X169733333Y-89042857D01*
X169733333Y-89138095D01*
X169685714Y-89280952D01*
X169114285Y-89852380D01*
X169733333Y-89852380D01*
X170019047Y-88852380D02*
X170352380Y-89852380D01*
X170685714Y-88852380D01*
D10*
X169895010Y-104800000D02*
X171400000Y-104800000D01*
X169895010Y-104800000D02*
G75*
G03*
X169895010Y-104800000I-424263J0D01*
G01*
X167200000Y-104800000D02*
G75*
G03*
X167200000Y-104800000I-1000000J0D01*
G01*
D11*
X165819047Y-104871428D02*
X166580952Y-104871428D01*
D10*
X170129252Y-105552575D02*
G75*
G02*
X170070746Y-104000000I-658505J752575D01*
G01*
D11*
X172019047Y-104771428D02*
X172780952Y-104771428D01*
X172400000Y-105152380D02*
X172400000Y-104390476D01*
D10*
X173400000Y-104700000D02*
G75*
G03*
X173400000Y-104700000I-1000000J0D01*
G01*
%LPC*%
D12*
X133750000Y-105250000D03*
X178850000Y-105250000D03*
X178850000Y-90350000D03*
X133750000Y-90350000D03*
M02*
