G04 #@! TF.GenerationSoftware,KiCad,Pcbnew,(5.1.10)-1*
G04 #@! TF.CreationDate,2022-01-19T22:44:00+01:00*
G04 #@! TF.ProjectId,ELPanelBack,454c5061-6e65-46c4-9261-636b2e6b6963,3.0*
G04 #@! TF.SameCoordinates,Original*
G04 #@! TF.FileFunction,Copper,L1,Top*
G04 #@! TF.FilePolarity,Positive*
%FSLAX46Y46*%
G04 Gerber Fmt 4.6, Leading zero omitted, Abs format (unit mm)*
G04 Created by KiCad (PCBNEW (5.1.10)-1) date 2022-01-19 22:44:00*
%MOMM*%
%LPD*%
G01*
G04 APERTURE LIST*
G04 #@! TA.AperFunction,NonConductor*
%ADD10C,0.254000*%
G04 #@! TD*
G04 #@! TA.AperFunction,NonConductor*
%ADD11C,0.100000*%
G04 #@! TD*
G04 APERTURE END LIST*
D10*
X179277638Y-88395290D02*
X179592802Y-88490444D01*
X179883481Y-88645000D01*
X180138600Y-88853071D01*
X180348450Y-89106736D01*
X180505030Y-89396323D01*
X180602383Y-89710820D01*
X180640000Y-90068721D01*
X180640001Y-105517712D01*
X180604710Y-105877638D01*
X180509556Y-106192802D01*
X180355000Y-106483481D01*
X180146929Y-106738600D01*
X179893264Y-106948450D01*
X179603673Y-107105032D01*
X179289181Y-107202383D01*
X178931279Y-107240000D01*
X133682278Y-107240000D01*
X133322362Y-107204710D01*
X133007198Y-107109556D01*
X132716519Y-106955000D01*
X132461400Y-106746929D01*
X132251550Y-106493264D01*
X132094968Y-106203673D01*
X131997617Y-105889181D01*
X131960000Y-105531279D01*
X131960000Y-105079117D01*
X132015000Y-105079117D01*
X132015000Y-105420883D01*
X132081675Y-105756081D01*
X132212463Y-106071831D01*
X132402337Y-106355998D01*
X132644002Y-106597663D01*
X132928169Y-106787537D01*
X133243919Y-106918325D01*
X133579117Y-106985000D01*
X133920883Y-106985000D01*
X134256081Y-106918325D01*
X134571831Y-106787537D01*
X134855998Y-106597663D01*
X135097663Y-106355998D01*
X135287537Y-106071831D01*
X135418325Y-105756081D01*
X135485000Y-105420883D01*
X135485000Y-105079117D01*
X177115000Y-105079117D01*
X177115000Y-105420883D01*
X177181675Y-105756081D01*
X177312463Y-106071831D01*
X177502337Y-106355998D01*
X177744002Y-106597663D01*
X178028169Y-106787537D01*
X178343919Y-106918325D01*
X178679117Y-106985000D01*
X179020883Y-106985000D01*
X179356081Y-106918325D01*
X179671831Y-106787537D01*
X179955998Y-106597663D01*
X180197663Y-106355998D01*
X180387537Y-106071831D01*
X180518325Y-105756081D01*
X180585000Y-105420883D01*
X180585000Y-105079117D01*
X180518325Y-104743919D01*
X180387537Y-104428169D01*
X180197663Y-104144002D01*
X179955998Y-103902337D01*
X179671831Y-103712463D01*
X179356081Y-103581675D01*
X179020883Y-103515000D01*
X178679117Y-103515000D01*
X178343919Y-103581675D01*
X178028169Y-103712463D01*
X177744002Y-103902337D01*
X177502337Y-104144002D01*
X177312463Y-104428169D01*
X177181675Y-104743919D01*
X177115000Y-105079117D01*
X135485000Y-105079117D01*
X135418325Y-104743919D01*
X135287537Y-104428169D01*
X135097663Y-104144002D01*
X134855998Y-103902337D01*
X134571831Y-103712463D01*
X134256081Y-103581675D01*
X133920883Y-103515000D01*
X133579117Y-103515000D01*
X133243919Y-103581675D01*
X132928169Y-103712463D01*
X132644002Y-103902337D01*
X132402337Y-104144002D01*
X132212463Y-104428169D01*
X132081675Y-104743919D01*
X132015000Y-105079117D01*
X131960000Y-105079117D01*
X131960000Y-90179117D01*
X132015000Y-90179117D01*
X132015000Y-90520883D01*
X132081675Y-90856081D01*
X132212463Y-91171831D01*
X132402337Y-91455998D01*
X132644002Y-91697663D01*
X132928169Y-91887537D01*
X133243919Y-92018325D01*
X133579117Y-92085000D01*
X133920883Y-92085000D01*
X134256081Y-92018325D01*
X134571831Y-91887537D01*
X134855998Y-91697663D01*
X135097663Y-91455998D01*
X135287537Y-91171831D01*
X135400133Y-90900000D01*
X137536807Y-90900000D01*
X137540001Y-90932429D01*
X137540000Y-102367581D01*
X137536807Y-102400000D01*
X137549550Y-102529383D01*
X137587290Y-102653793D01*
X137648575Y-102768450D01*
X137731052Y-102868948D01*
X137831550Y-102951425D01*
X137946207Y-103012710D01*
X138070617Y-103050450D01*
X138200000Y-103063193D01*
X138232419Y-103060000D01*
X151167581Y-103060000D01*
X151200000Y-103063193D01*
X151232419Y-103060000D01*
X151329383Y-103050450D01*
X151453793Y-103012710D01*
X151568450Y-102951425D01*
X151668948Y-102868948D01*
X151751425Y-102768450D01*
X151812710Y-102653793D01*
X151850450Y-102529383D01*
X151863193Y-102400000D01*
X151860000Y-102367581D01*
X151860000Y-90932419D01*
X151863193Y-90900000D01*
X151850450Y-90770617D01*
X151829029Y-90700000D01*
X163786807Y-90700000D01*
X163790001Y-90732429D01*
X163790000Y-102367581D01*
X163786807Y-102400000D01*
X163799550Y-102529383D01*
X163837290Y-102653793D01*
X163898575Y-102768450D01*
X163981052Y-102868948D01*
X164081550Y-102951425D01*
X164196207Y-103012710D01*
X164320617Y-103050450D01*
X164450000Y-103063193D01*
X164482419Y-103060000D01*
X174417581Y-103060000D01*
X174450000Y-103063193D01*
X174482419Y-103060000D01*
X174579383Y-103050450D01*
X174703793Y-103012710D01*
X174818450Y-102951425D01*
X174918948Y-102868948D01*
X175001425Y-102768450D01*
X175062710Y-102653793D01*
X175100450Y-102529383D01*
X175113193Y-102400000D01*
X175110000Y-102367581D01*
X175110000Y-90732419D01*
X175113193Y-90700000D01*
X175100450Y-90570617D01*
X175062710Y-90446207D01*
X175001425Y-90331550D01*
X174918948Y-90231052D01*
X174855666Y-90179117D01*
X177115000Y-90179117D01*
X177115000Y-90520883D01*
X177181675Y-90856081D01*
X177312463Y-91171831D01*
X177502337Y-91455998D01*
X177744002Y-91697663D01*
X178028169Y-91887537D01*
X178343919Y-92018325D01*
X178679117Y-92085000D01*
X179020883Y-92085000D01*
X179356081Y-92018325D01*
X179671831Y-91887537D01*
X179955998Y-91697663D01*
X180197663Y-91455998D01*
X180387537Y-91171831D01*
X180518325Y-90856081D01*
X180585000Y-90520883D01*
X180585000Y-90179117D01*
X180518325Y-89843919D01*
X180387537Y-89528169D01*
X180197663Y-89244002D01*
X179955998Y-89002337D01*
X179671831Y-88812463D01*
X179356081Y-88681675D01*
X179020883Y-88615000D01*
X178679117Y-88615000D01*
X178343919Y-88681675D01*
X178028169Y-88812463D01*
X177744002Y-89002337D01*
X177502337Y-89244002D01*
X177312463Y-89528169D01*
X177181675Y-89843919D01*
X177115000Y-90179117D01*
X174855666Y-90179117D01*
X174818450Y-90148575D01*
X174703793Y-90087290D01*
X174579383Y-90049550D01*
X174482419Y-90040000D01*
X174450000Y-90036807D01*
X174417581Y-90040000D01*
X164482419Y-90040000D01*
X164450000Y-90036807D01*
X164417581Y-90040000D01*
X164320617Y-90049550D01*
X164196207Y-90087290D01*
X164081550Y-90148575D01*
X163981052Y-90231052D01*
X163898575Y-90331550D01*
X163837290Y-90446207D01*
X163799550Y-90570617D01*
X163786807Y-90700000D01*
X151829029Y-90700000D01*
X151812710Y-90646207D01*
X151751425Y-90531550D01*
X151668948Y-90431052D01*
X151568450Y-90348575D01*
X151453793Y-90287290D01*
X151329383Y-90249550D01*
X151232419Y-90240000D01*
X151200000Y-90236807D01*
X151167581Y-90240000D01*
X138232419Y-90240000D01*
X138200000Y-90236807D01*
X138167581Y-90240000D01*
X138070617Y-90249550D01*
X137946207Y-90287290D01*
X137831550Y-90348575D01*
X137731052Y-90431052D01*
X137648575Y-90531550D01*
X137587290Y-90646207D01*
X137549550Y-90770617D01*
X137536807Y-90900000D01*
X135400133Y-90900000D01*
X135418325Y-90856081D01*
X135485000Y-90520883D01*
X135485000Y-90179117D01*
X135418325Y-89843919D01*
X135287537Y-89528169D01*
X135097663Y-89244002D01*
X134855998Y-89002337D01*
X134571831Y-88812463D01*
X134256081Y-88681675D01*
X133920883Y-88615000D01*
X133579117Y-88615000D01*
X133243919Y-88681675D01*
X132928169Y-88812463D01*
X132644002Y-89002337D01*
X132402337Y-89244002D01*
X132212463Y-89528169D01*
X132081675Y-89843919D01*
X132015000Y-90179117D01*
X131960000Y-90179117D01*
X131960000Y-90082278D01*
X131995290Y-89722362D01*
X132090444Y-89407198D01*
X132245000Y-89116519D01*
X132453071Y-88861400D01*
X132706736Y-88651550D01*
X132996323Y-88494970D01*
X133310820Y-88397617D01*
X133668721Y-88360000D01*
X178917722Y-88360000D01*
X179277638Y-88395290D01*
G04 #@! TA.AperFunction,NonConductor*
D11*
G36*
X179277638Y-88395290D02*
G01*
X179592802Y-88490444D01*
X179883481Y-88645000D01*
X180138600Y-88853071D01*
X180348450Y-89106736D01*
X180505030Y-89396323D01*
X180602383Y-89710820D01*
X180640000Y-90068721D01*
X180640001Y-105517712D01*
X180604710Y-105877638D01*
X180509556Y-106192802D01*
X180355000Y-106483481D01*
X180146929Y-106738600D01*
X179893264Y-106948450D01*
X179603673Y-107105032D01*
X179289181Y-107202383D01*
X178931279Y-107240000D01*
X133682278Y-107240000D01*
X133322362Y-107204710D01*
X133007198Y-107109556D01*
X132716519Y-106955000D01*
X132461400Y-106746929D01*
X132251550Y-106493264D01*
X132094968Y-106203673D01*
X131997617Y-105889181D01*
X131960000Y-105531279D01*
X131960000Y-105079117D01*
X132015000Y-105079117D01*
X132015000Y-105420883D01*
X132081675Y-105756081D01*
X132212463Y-106071831D01*
X132402337Y-106355998D01*
X132644002Y-106597663D01*
X132928169Y-106787537D01*
X133243919Y-106918325D01*
X133579117Y-106985000D01*
X133920883Y-106985000D01*
X134256081Y-106918325D01*
X134571831Y-106787537D01*
X134855998Y-106597663D01*
X135097663Y-106355998D01*
X135287537Y-106071831D01*
X135418325Y-105756081D01*
X135485000Y-105420883D01*
X135485000Y-105079117D01*
X177115000Y-105079117D01*
X177115000Y-105420883D01*
X177181675Y-105756081D01*
X177312463Y-106071831D01*
X177502337Y-106355998D01*
X177744002Y-106597663D01*
X178028169Y-106787537D01*
X178343919Y-106918325D01*
X178679117Y-106985000D01*
X179020883Y-106985000D01*
X179356081Y-106918325D01*
X179671831Y-106787537D01*
X179955998Y-106597663D01*
X180197663Y-106355998D01*
X180387537Y-106071831D01*
X180518325Y-105756081D01*
X180585000Y-105420883D01*
X180585000Y-105079117D01*
X180518325Y-104743919D01*
X180387537Y-104428169D01*
X180197663Y-104144002D01*
X179955998Y-103902337D01*
X179671831Y-103712463D01*
X179356081Y-103581675D01*
X179020883Y-103515000D01*
X178679117Y-103515000D01*
X178343919Y-103581675D01*
X178028169Y-103712463D01*
X177744002Y-103902337D01*
X177502337Y-104144002D01*
X177312463Y-104428169D01*
X177181675Y-104743919D01*
X177115000Y-105079117D01*
X135485000Y-105079117D01*
X135418325Y-104743919D01*
X135287537Y-104428169D01*
X135097663Y-104144002D01*
X134855998Y-103902337D01*
X134571831Y-103712463D01*
X134256081Y-103581675D01*
X133920883Y-103515000D01*
X133579117Y-103515000D01*
X133243919Y-103581675D01*
X132928169Y-103712463D01*
X132644002Y-103902337D01*
X132402337Y-104144002D01*
X132212463Y-104428169D01*
X132081675Y-104743919D01*
X132015000Y-105079117D01*
X131960000Y-105079117D01*
X131960000Y-90179117D01*
X132015000Y-90179117D01*
X132015000Y-90520883D01*
X132081675Y-90856081D01*
X132212463Y-91171831D01*
X132402337Y-91455998D01*
X132644002Y-91697663D01*
X132928169Y-91887537D01*
X133243919Y-92018325D01*
X133579117Y-92085000D01*
X133920883Y-92085000D01*
X134256081Y-92018325D01*
X134571831Y-91887537D01*
X134855998Y-91697663D01*
X135097663Y-91455998D01*
X135287537Y-91171831D01*
X135400133Y-90900000D01*
X137536807Y-90900000D01*
X137540001Y-90932429D01*
X137540000Y-102367581D01*
X137536807Y-102400000D01*
X137549550Y-102529383D01*
X137587290Y-102653793D01*
X137648575Y-102768450D01*
X137731052Y-102868948D01*
X137831550Y-102951425D01*
X137946207Y-103012710D01*
X138070617Y-103050450D01*
X138200000Y-103063193D01*
X138232419Y-103060000D01*
X151167581Y-103060000D01*
X151200000Y-103063193D01*
X151232419Y-103060000D01*
X151329383Y-103050450D01*
X151453793Y-103012710D01*
X151568450Y-102951425D01*
X151668948Y-102868948D01*
X151751425Y-102768450D01*
X151812710Y-102653793D01*
X151850450Y-102529383D01*
X151863193Y-102400000D01*
X151860000Y-102367581D01*
X151860000Y-90932419D01*
X151863193Y-90900000D01*
X151850450Y-90770617D01*
X151829029Y-90700000D01*
X163786807Y-90700000D01*
X163790001Y-90732429D01*
X163790000Y-102367581D01*
X163786807Y-102400000D01*
X163799550Y-102529383D01*
X163837290Y-102653793D01*
X163898575Y-102768450D01*
X163981052Y-102868948D01*
X164081550Y-102951425D01*
X164196207Y-103012710D01*
X164320617Y-103050450D01*
X164450000Y-103063193D01*
X164482419Y-103060000D01*
X174417581Y-103060000D01*
X174450000Y-103063193D01*
X174482419Y-103060000D01*
X174579383Y-103050450D01*
X174703793Y-103012710D01*
X174818450Y-102951425D01*
X174918948Y-102868948D01*
X175001425Y-102768450D01*
X175062710Y-102653793D01*
X175100450Y-102529383D01*
X175113193Y-102400000D01*
X175110000Y-102367581D01*
X175110000Y-90732419D01*
X175113193Y-90700000D01*
X175100450Y-90570617D01*
X175062710Y-90446207D01*
X175001425Y-90331550D01*
X174918948Y-90231052D01*
X174855666Y-90179117D01*
X177115000Y-90179117D01*
X177115000Y-90520883D01*
X177181675Y-90856081D01*
X177312463Y-91171831D01*
X177502337Y-91455998D01*
X177744002Y-91697663D01*
X178028169Y-91887537D01*
X178343919Y-92018325D01*
X178679117Y-92085000D01*
X179020883Y-92085000D01*
X179356081Y-92018325D01*
X179671831Y-91887537D01*
X179955998Y-91697663D01*
X180197663Y-91455998D01*
X180387537Y-91171831D01*
X180518325Y-90856081D01*
X180585000Y-90520883D01*
X180585000Y-90179117D01*
X180518325Y-89843919D01*
X180387537Y-89528169D01*
X180197663Y-89244002D01*
X179955998Y-89002337D01*
X179671831Y-88812463D01*
X179356081Y-88681675D01*
X179020883Y-88615000D01*
X178679117Y-88615000D01*
X178343919Y-88681675D01*
X178028169Y-88812463D01*
X177744002Y-89002337D01*
X177502337Y-89244002D01*
X177312463Y-89528169D01*
X177181675Y-89843919D01*
X177115000Y-90179117D01*
X174855666Y-90179117D01*
X174818450Y-90148575D01*
X174703793Y-90087290D01*
X174579383Y-90049550D01*
X174482419Y-90040000D01*
X174450000Y-90036807D01*
X174417581Y-90040000D01*
X164482419Y-90040000D01*
X164450000Y-90036807D01*
X164417581Y-90040000D01*
X164320617Y-90049550D01*
X164196207Y-90087290D01*
X164081550Y-90148575D01*
X163981052Y-90231052D01*
X163898575Y-90331550D01*
X163837290Y-90446207D01*
X163799550Y-90570617D01*
X163786807Y-90700000D01*
X151829029Y-90700000D01*
X151812710Y-90646207D01*
X151751425Y-90531550D01*
X151668948Y-90431052D01*
X151568450Y-90348575D01*
X151453793Y-90287290D01*
X151329383Y-90249550D01*
X151232419Y-90240000D01*
X151200000Y-90236807D01*
X151167581Y-90240000D01*
X138232419Y-90240000D01*
X138200000Y-90236807D01*
X138167581Y-90240000D01*
X138070617Y-90249550D01*
X137946207Y-90287290D01*
X137831550Y-90348575D01*
X137731052Y-90431052D01*
X137648575Y-90531550D01*
X137587290Y-90646207D01*
X137549550Y-90770617D01*
X137536807Y-90900000D01*
X135400133Y-90900000D01*
X135418325Y-90856081D01*
X135485000Y-90520883D01*
X135485000Y-90179117D01*
X135418325Y-89843919D01*
X135287537Y-89528169D01*
X135097663Y-89244002D01*
X134855998Y-89002337D01*
X134571831Y-88812463D01*
X134256081Y-88681675D01*
X133920883Y-88615000D01*
X133579117Y-88615000D01*
X133243919Y-88681675D01*
X132928169Y-88812463D01*
X132644002Y-89002337D01*
X132402337Y-89244002D01*
X132212463Y-89528169D01*
X132081675Y-89843919D01*
X132015000Y-90179117D01*
X131960000Y-90179117D01*
X131960000Y-90082278D01*
X131995290Y-89722362D01*
X132090444Y-89407198D01*
X132245000Y-89116519D01*
X132453071Y-88861400D01*
X132706736Y-88651550D01*
X132996323Y-88494970D01*
X133310820Y-88397617D01*
X133668721Y-88360000D01*
X178917722Y-88360000D01*
X179277638Y-88395290D01*
G37*
G04 #@! TD.AperFunction*
M02*
