%FSLAX45Y45*%
G04 Gerber Fmt 4.5, Leading zero omitted, Abs format (unit mm)*
G04 Created by KiCad (PCBNEW (5.1.10)-1) date 2022-01-19 22:36:49*
%MOMM*%
%LPD*%
G01*
G04 APERTURE LIST*
%TA.AperFunction,Profile*%
%ADD10C,0.050000*%
%TD*%
%ADD11C,0.200000*%
%ADD12C,0.300000*%
G04 APERTURE END LIST*
D10*
X16740751Y-11160236D02*
G75*
G02*
X16739791Y-10060182I239249J550236D01*
G01*
X16739791Y-10060182D02*
X17219249Y-10059764D01*
X17219249Y-10059764D02*
G75*
G02*
X17220209Y-11159818I-239249J-550236D01*
G01*
X16740751Y-11160236D02*
X17220209Y-11159818D01*
X13080000Y-11385000D02*
G75*
G03*
X13315000Y-11620000I235000J0D01*
G01*
X17845000Y-11620000D02*
G75*
G03*
X18080000Y-11385000I0J235000D01*
G01*
X18080000Y-9835000D02*
G75*
G03*
X17845000Y-9600000I-235000J0D01*
G01*
X13315000Y-9600000D02*
G75*
G03*
X13080000Y-9835000I0J-235000D01*
G01*
X18080000Y-9835000D02*
X18080000Y-11385000D01*
X13080000Y-9835000D02*
X13080000Y-11385000D01*
X13315000Y-11620000D02*
X17845000Y-11620000D01*
X13315000Y-9600000D02*
X17845000Y-9600000D01*
D11*
X13215000Y-9755000D02*
X13435000Y-9975000D01*
X13435000Y-9755000D02*
X13215000Y-9975000D01*
X13215000Y-11245000D02*
X13435000Y-11465000D01*
X13435000Y-11245000D02*
X13215000Y-11465000D01*
X17725000Y-9755000D02*
X17945000Y-9975000D01*
X17945000Y-9755000D02*
X17725000Y-9975000D01*
X17725000Y-11245000D02*
X17945000Y-11465000D01*
X17945000Y-11245000D02*
X17725000Y-11465000D01*
D12*
X13363928Y-12088214D02*
X13363928Y-11788214D01*
X13435357Y-11788214D01*
X13478214Y-11802500D01*
X13506786Y-11831071D01*
X13521071Y-11859643D01*
X13535357Y-11916786D01*
X13535357Y-11959643D01*
X13521071Y-12016786D01*
X13506786Y-12045357D01*
X13478214Y-12073929D01*
X13435357Y-12088214D01*
X13363928Y-12088214D01*
X13663928Y-12088214D02*
X13663928Y-11888214D01*
X13663928Y-11945357D02*
X13678214Y-11916786D01*
X13692500Y-11902500D01*
X13721071Y-11888214D01*
X13749643Y-11888214D01*
X13849643Y-12088214D02*
X13849643Y-11888214D01*
X13849643Y-11788214D02*
X13835357Y-11802500D01*
X13849643Y-11816786D01*
X13863928Y-11802500D01*
X13849643Y-11788214D01*
X13849643Y-11816786D01*
X14035357Y-12088214D02*
X14006786Y-12073929D01*
X13992500Y-12045357D01*
X13992500Y-11788214D01*
X14192500Y-12088214D02*
X14163928Y-12073929D01*
X14149643Y-12045357D01*
X14149643Y-11788214D01*
X14535357Y-12088214D02*
X14535357Y-11788214D01*
X14635357Y-12002500D01*
X14735357Y-11788214D01*
X14735357Y-12088214D01*
X15006786Y-12088214D02*
X15006786Y-11931071D01*
X14992500Y-11902500D01*
X14963928Y-11888214D01*
X14906786Y-11888214D01*
X14878214Y-11902500D01*
X15006786Y-12073929D02*
X14978214Y-12088214D01*
X14906786Y-12088214D01*
X14878214Y-12073929D01*
X14863928Y-12045357D01*
X14863928Y-12016786D01*
X14878214Y-11988214D01*
X14906786Y-11973929D01*
X14978214Y-11973929D01*
X15006786Y-11959643D01*
X15149643Y-11888214D02*
X15149643Y-12188214D01*
X15149643Y-11902500D02*
X15178214Y-11888214D01*
X15235357Y-11888214D01*
X15263928Y-11902500D01*
X15278214Y-11916786D01*
X15292500Y-11945357D01*
X15292500Y-12031071D01*
X15278214Y-12059643D01*
X15263928Y-12073929D01*
X15235357Y-12088214D01*
X15178214Y-12088214D01*
X15149643Y-12073929D01*
X15421071Y-12059643D02*
X15435357Y-12073929D01*
X15421071Y-12088214D01*
X15406786Y-12073929D01*
X15421071Y-12059643D01*
X15421071Y-12088214D01*
X15421071Y-11902500D02*
X15435357Y-11916786D01*
X15421071Y-11931071D01*
X15406786Y-11916786D01*
X15421071Y-11902500D01*
X15421071Y-11931071D01*
X12857500Y-12472500D02*
X13077500Y-12692500D01*
X13077500Y-12472500D02*
X12857500Y-12692500D01*
X13349643Y-12446786D02*
X13363928Y-12432500D01*
X13392500Y-12418214D01*
X13463928Y-12418214D01*
X13492500Y-12432500D01*
X13506786Y-12446786D01*
X13521071Y-12475357D01*
X13521071Y-12503929D01*
X13506786Y-12546786D01*
X13335357Y-12718214D01*
X13521071Y-12718214D01*
X13649643Y-12689643D02*
X13663928Y-12703929D01*
X13649643Y-12718214D01*
X13635357Y-12703929D01*
X13649643Y-12689643D01*
X13649643Y-12718214D01*
X13778214Y-12446786D02*
X13792500Y-12432500D01*
X13821071Y-12418214D01*
X13892500Y-12418214D01*
X13921071Y-12432500D01*
X13935357Y-12446786D01*
X13949643Y-12475357D01*
X13949643Y-12503929D01*
X13935357Y-12546786D01*
X13763928Y-12718214D01*
X13949643Y-12718214D01*
X14135357Y-12418214D02*
X14163928Y-12418214D01*
X14192500Y-12432500D01*
X14206786Y-12446786D01*
X14221071Y-12475357D01*
X14235357Y-12532500D01*
X14235357Y-12603929D01*
X14221071Y-12661071D01*
X14206786Y-12689643D01*
X14192500Y-12703929D01*
X14163928Y-12718214D01*
X14135357Y-12718214D01*
X14106786Y-12703929D01*
X14092500Y-12689643D01*
X14078214Y-12661071D01*
X14063928Y-12603929D01*
X14063928Y-12532500D01*
X14078214Y-12475357D01*
X14092500Y-12446786D01*
X14106786Y-12432500D01*
X14135357Y-12418214D01*
X14421071Y-12418214D02*
X14449643Y-12418214D01*
X14478214Y-12432500D01*
X14492500Y-12446786D01*
X14506786Y-12475357D01*
X14521071Y-12532500D01*
X14521071Y-12603929D01*
X14506786Y-12661071D01*
X14492500Y-12689643D01*
X14478214Y-12703929D01*
X14449643Y-12718214D01*
X14421071Y-12718214D01*
X14392500Y-12703929D01*
X14378214Y-12689643D01*
X14363928Y-12661071D01*
X14349643Y-12603929D01*
X14349643Y-12532500D01*
X14363928Y-12475357D01*
X14378214Y-12446786D01*
X14392500Y-12432500D01*
X14421071Y-12418214D01*
X14649643Y-12718214D02*
X14649643Y-12518214D01*
X14649643Y-12546786D02*
X14663928Y-12532500D01*
X14692500Y-12518214D01*
X14735357Y-12518214D01*
X14763928Y-12532500D01*
X14778214Y-12561071D01*
X14778214Y-12718214D01*
X14778214Y-12561071D02*
X14792500Y-12532500D01*
X14821071Y-12518214D01*
X14863928Y-12518214D01*
X14892500Y-12532500D01*
X14906786Y-12561071D01*
X14906786Y-12718214D01*
X15049643Y-12718214D02*
X15049643Y-12518214D01*
X15049643Y-12546786D02*
X15063928Y-12532500D01*
X15092500Y-12518214D01*
X15135357Y-12518214D01*
X15163928Y-12532500D01*
X15178214Y-12561071D01*
X15178214Y-12718214D01*
X15178214Y-12561071D02*
X15192500Y-12532500D01*
X15221071Y-12518214D01*
X15263928Y-12518214D01*
X15292500Y-12532500D01*
X15306786Y-12561071D01*
X15306786Y-12718214D01*
X15892500Y-12403929D02*
X15635357Y-12789643D01*
X16278214Y-12418214D02*
X16306786Y-12418214D01*
X16335357Y-12432500D01*
X16349643Y-12446786D01*
X16363928Y-12475357D01*
X16378214Y-12532500D01*
X16378214Y-12603929D01*
X16363928Y-12661071D01*
X16349643Y-12689643D01*
X16335357Y-12703929D01*
X16306786Y-12718214D01*
X16278214Y-12718214D01*
X16249643Y-12703929D01*
X16235357Y-12689643D01*
X16221071Y-12661071D01*
X16206786Y-12603929D01*
X16206786Y-12532500D01*
X16221071Y-12475357D01*
X16235357Y-12446786D01*
X16249643Y-12432500D01*
X16278214Y-12418214D01*
X16506786Y-12689643D02*
X16521071Y-12703929D01*
X16506786Y-12718214D01*
X16492500Y-12703929D01*
X16506786Y-12689643D01*
X16506786Y-12718214D01*
X16706786Y-12418214D02*
X16735357Y-12418214D01*
X16763928Y-12432500D01*
X16778214Y-12446786D01*
X16792500Y-12475357D01*
X16806786Y-12532500D01*
X16806786Y-12603929D01*
X16792500Y-12661071D01*
X16778214Y-12689643D01*
X16763928Y-12703929D01*
X16735357Y-12718214D01*
X16706786Y-12718214D01*
X16678214Y-12703929D01*
X16663928Y-12689643D01*
X16649643Y-12661071D01*
X16635357Y-12603929D01*
X16635357Y-12532500D01*
X16649643Y-12475357D01*
X16663928Y-12446786D01*
X16678214Y-12432500D01*
X16706786Y-12418214D01*
X16978214Y-12546786D02*
X16949643Y-12532500D01*
X16935357Y-12518214D01*
X16921071Y-12489643D01*
X16921071Y-12475357D01*
X16935357Y-12446786D01*
X16949643Y-12432500D01*
X16978214Y-12418214D01*
X17035357Y-12418214D01*
X17063928Y-12432500D01*
X17078214Y-12446786D01*
X17092500Y-12475357D01*
X17092500Y-12489643D01*
X17078214Y-12518214D01*
X17063928Y-12532500D01*
X17035357Y-12546786D01*
X16978214Y-12546786D01*
X16949643Y-12561071D01*
X16935357Y-12575357D01*
X16921071Y-12603929D01*
X16921071Y-12661071D01*
X16935357Y-12689643D01*
X16949643Y-12703929D01*
X16978214Y-12718214D01*
X17035357Y-12718214D01*
X17063928Y-12703929D01*
X17078214Y-12689643D01*
X17092500Y-12661071D01*
X17092500Y-12603929D01*
X17078214Y-12575357D01*
X17063928Y-12561071D01*
X17035357Y-12546786D01*
X17349643Y-12418214D02*
X17292500Y-12418214D01*
X17263928Y-12432500D01*
X17249643Y-12446786D01*
X17221071Y-12489643D01*
X17206786Y-12546786D01*
X17206786Y-12661071D01*
X17221071Y-12689643D01*
X17235357Y-12703929D01*
X17263928Y-12718214D01*
X17321071Y-12718214D01*
X17349643Y-12703929D01*
X17363928Y-12689643D01*
X17378214Y-12661071D01*
X17378214Y-12589643D01*
X17363928Y-12561071D01*
X17349643Y-12546786D01*
X17321071Y-12532500D01*
X17263928Y-12532500D01*
X17235357Y-12546786D01*
X17221071Y-12561071D01*
X17206786Y-12589643D01*
X17635357Y-12418214D02*
X17578214Y-12418214D01*
X17549643Y-12432500D01*
X17535357Y-12446786D01*
X17506786Y-12489643D01*
X17492500Y-12546786D01*
X17492500Y-12661071D01*
X17506786Y-12689643D01*
X17521071Y-12703929D01*
X17549643Y-12718214D01*
X17606786Y-12718214D01*
X17635357Y-12703929D01*
X17649643Y-12689643D01*
X17663928Y-12661071D01*
X17663928Y-12589643D01*
X17649643Y-12561071D01*
X17635357Y-12546786D01*
X17606786Y-12532500D01*
X17549643Y-12532500D01*
X17521071Y-12546786D01*
X17506786Y-12561071D01*
X17492500Y-12589643D01*
X17778214Y-12418214D02*
X17778214Y-12475357D01*
X17892500Y-12418214D02*
X17892500Y-12475357D01*
X18335357Y-12832500D02*
X18321071Y-12818214D01*
X18292500Y-12775357D01*
X18278214Y-12746786D01*
X18263928Y-12703929D01*
X18249643Y-12632500D01*
X18249643Y-12575357D01*
X18263928Y-12503929D01*
X18278214Y-12461071D01*
X18292500Y-12432500D01*
X18321071Y-12389643D01*
X18335357Y-12375357D01*
X18578214Y-12518214D02*
X18578214Y-12718214D01*
X18506786Y-12403929D02*
X18435357Y-12618214D01*
X18621071Y-12618214D01*
X18963928Y-12718214D02*
X18963928Y-12418214D01*
X19092500Y-12718214D02*
X19092500Y-12561071D01*
X19078214Y-12532500D01*
X19049643Y-12518214D01*
X19006786Y-12518214D01*
X18978214Y-12532500D01*
X18963928Y-12546786D01*
X19278214Y-12718214D02*
X19249643Y-12703929D01*
X19235357Y-12689643D01*
X19221071Y-12661071D01*
X19221071Y-12575357D01*
X19235357Y-12546786D01*
X19249643Y-12532500D01*
X19278214Y-12518214D01*
X19321071Y-12518214D01*
X19349643Y-12532500D01*
X19363928Y-12546786D01*
X19378214Y-12575357D01*
X19378214Y-12661071D01*
X19363928Y-12689643D01*
X19349643Y-12703929D01*
X19321071Y-12718214D01*
X19278214Y-12718214D01*
X19549643Y-12718214D02*
X19521071Y-12703929D01*
X19506786Y-12675357D01*
X19506786Y-12418214D01*
X19778214Y-12703929D02*
X19749643Y-12718214D01*
X19692500Y-12718214D01*
X19663928Y-12703929D01*
X19649643Y-12675357D01*
X19649643Y-12561071D01*
X19663928Y-12532500D01*
X19692500Y-12518214D01*
X19749643Y-12518214D01*
X19778214Y-12532500D01*
X19792500Y-12561071D01*
X19792500Y-12589643D01*
X19649643Y-12618214D01*
X19906786Y-12703929D02*
X19935357Y-12718214D01*
X19992500Y-12718214D01*
X20021071Y-12703929D01*
X20035357Y-12675357D01*
X20035357Y-12661071D01*
X20021071Y-12632500D01*
X19992500Y-12618214D01*
X19949643Y-12618214D01*
X19921071Y-12603929D01*
X19906786Y-12575357D01*
X19906786Y-12561071D01*
X19921071Y-12532500D01*
X19949643Y-12518214D01*
X19992500Y-12518214D01*
X20021071Y-12532500D01*
X20135357Y-12832500D02*
X20149643Y-12818214D01*
X20178214Y-12775357D01*
X20192500Y-12746786D01*
X20206786Y-12703929D01*
X20221071Y-12632500D01*
X20221071Y-12575357D01*
X20206786Y-12503929D01*
X20192500Y-12461071D01*
X20178214Y-12432500D01*
X20149643Y-12389643D01*
X20135357Y-12375357D01*
X20678214Y-12832500D02*
X20663928Y-12818214D01*
X20635357Y-12775357D01*
X20621071Y-12746786D01*
X20606786Y-12703929D01*
X20592500Y-12632500D01*
X20592500Y-12575357D01*
X20606786Y-12503929D01*
X20621071Y-12461071D01*
X20635357Y-12432500D01*
X20663928Y-12389643D01*
X20678214Y-12375357D01*
X20792500Y-12518214D02*
X20792500Y-12718214D01*
X20792500Y-12546786D02*
X20806786Y-12532500D01*
X20835357Y-12518214D01*
X20878214Y-12518214D01*
X20906786Y-12532500D01*
X20921071Y-12561071D01*
X20921071Y-12718214D01*
X21106786Y-12718214D02*
X21078214Y-12703929D01*
X21063928Y-12689643D01*
X21049643Y-12661071D01*
X21049643Y-12575357D01*
X21063928Y-12546786D01*
X21078214Y-12532500D01*
X21106786Y-12518214D01*
X21149643Y-12518214D01*
X21178214Y-12532500D01*
X21192500Y-12546786D01*
X21206786Y-12575357D01*
X21206786Y-12661071D01*
X21192500Y-12689643D01*
X21178214Y-12703929D01*
X21149643Y-12718214D01*
X21106786Y-12718214D01*
X21292500Y-12518214D02*
X21406786Y-12518214D01*
X21335357Y-12418214D02*
X21335357Y-12675357D01*
X21349643Y-12703929D01*
X21378214Y-12718214D01*
X21406786Y-12718214D01*
X21735357Y-12518214D02*
X21735357Y-12818214D01*
X21735357Y-12532500D02*
X21763928Y-12518214D01*
X21821071Y-12518214D01*
X21849643Y-12532500D01*
X21863928Y-12546786D01*
X21878214Y-12575357D01*
X21878214Y-12661071D01*
X21863928Y-12689643D01*
X21849643Y-12703929D01*
X21821071Y-12718214D01*
X21763928Y-12718214D01*
X21735357Y-12703929D01*
X22049643Y-12718214D02*
X22021071Y-12703929D01*
X22006786Y-12675357D01*
X22006786Y-12418214D01*
X22292500Y-12718214D02*
X22292500Y-12561071D01*
X22278214Y-12532500D01*
X22249643Y-12518214D01*
X22192500Y-12518214D01*
X22163928Y-12532500D01*
X22292500Y-12703929D02*
X22263928Y-12718214D01*
X22192500Y-12718214D01*
X22163928Y-12703929D01*
X22149643Y-12675357D01*
X22149643Y-12646786D01*
X22163928Y-12618214D01*
X22192500Y-12603929D01*
X22263928Y-12603929D01*
X22292500Y-12589643D01*
X22392500Y-12518214D02*
X22506786Y-12518214D01*
X22435357Y-12418214D02*
X22435357Y-12675357D01*
X22449643Y-12703929D01*
X22478214Y-12718214D01*
X22506786Y-12718214D01*
X22721071Y-12703929D02*
X22692500Y-12718214D01*
X22635357Y-12718214D01*
X22606786Y-12703929D01*
X22592500Y-12675357D01*
X22592500Y-12561071D01*
X22606786Y-12532500D01*
X22635357Y-12518214D01*
X22692500Y-12518214D01*
X22721071Y-12532500D01*
X22735357Y-12561071D01*
X22735357Y-12589643D01*
X22592500Y-12618214D01*
X22992500Y-12718214D02*
X22992500Y-12418214D01*
X22992500Y-12703929D02*
X22963928Y-12718214D01*
X22906786Y-12718214D01*
X22878214Y-12703929D01*
X22863928Y-12689643D01*
X22849643Y-12661071D01*
X22849643Y-12575357D01*
X22863928Y-12546786D01*
X22878214Y-12532500D01*
X22906786Y-12518214D01*
X22963928Y-12518214D01*
X22992500Y-12532500D01*
X23106786Y-12832500D02*
X23121071Y-12818214D01*
X23149643Y-12775357D01*
X23163928Y-12746786D01*
X23178214Y-12703929D01*
X23192500Y-12632500D01*
X23192500Y-12575357D01*
X23178214Y-12503929D01*
X23163928Y-12461071D01*
X23149643Y-12432500D01*
X23121071Y-12389643D01*
X23106786Y-12375357D01*
M02*
