G04 #@! TF.GenerationSoftware,KiCad,Pcbnew,(5.1.10)-1*
G04 #@! TF.CreationDate,2022-01-19T22:36:39+01:00*
G04 #@! TF.ProjectId,ELPanelFront,454c5061-6e65-46c4-9672-6f6e742e6b69,3.0*
G04 #@! TF.SameCoordinates,Original*
G04 #@! TF.FileFunction,Copper,L1,Top*
G04 #@! TF.FilePolarity,Positive*
%FSLAX46Y46*%
G04 Gerber Fmt 4.6, Leading zero omitted, Abs format (unit mm)*
G04 Created by KiCad (PCBNEW (5.1.10)-1) date 2022-01-19 22:36:39*
%MOMM*%
%LPD*%
G01*
G04 APERTURE LIST*
G04 #@! TA.AperFunction,NonConductor*
%ADD10C,0.254000*%
G04 #@! TD*
G04 #@! TA.AperFunction,NonConductor*
%ADD11C,0.100000*%
G04 #@! TD*
G04 APERTURE END LIST*
D10*
X178777638Y-96695290D02*
X179092802Y-96790444D01*
X179383481Y-96945000D01*
X179638600Y-97153071D01*
X179848450Y-97406736D01*
X180005030Y-97696323D01*
X180102383Y-98010820D01*
X180140000Y-98368721D01*
X180140001Y-113817712D01*
X180104710Y-114177638D01*
X180009556Y-114492802D01*
X179855000Y-114783481D01*
X179646929Y-115038600D01*
X179393264Y-115248450D01*
X179103673Y-115405032D01*
X178789181Y-115502383D01*
X178431279Y-115540000D01*
X133182278Y-115540000D01*
X132822362Y-115504710D01*
X132507198Y-115409556D01*
X132216519Y-115255000D01*
X131961400Y-115046929D01*
X131751550Y-114793264D01*
X131594968Y-114503673D01*
X131497617Y-114189181D01*
X131460000Y-113831279D01*
X131460000Y-113379117D01*
X131515000Y-113379117D01*
X131515000Y-113720883D01*
X131581675Y-114056081D01*
X131712463Y-114371831D01*
X131902337Y-114655998D01*
X132144002Y-114897663D01*
X132428169Y-115087537D01*
X132743919Y-115218325D01*
X133079117Y-115285000D01*
X133420883Y-115285000D01*
X133756081Y-115218325D01*
X134071831Y-115087537D01*
X134355998Y-114897663D01*
X134597663Y-114655998D01*
X134787537Y-114371831D01*
X134918325Y-114056081D01*
X134985000Y-113720883D01*
X134985000Y-113379117D01*
X176615000Y-113379117D01*
X176615000Y-113720883D01*
X176681675Y-114056081D01*
X176812463Y-114371831D01*
X177002337Y-114655998D01*
X177244002Y-114897663D01*
X177528169Y-115087537D01*
X177843919Y-115218325D01*
X178179117Y-115285000D01*
X178520883Y-115285000D01*
X178856081Y-115218325D01*
X179171831Y-115087537D01*
X179455998Y-114897663D01*
X179697663Y-114655998D01*
X179887537Y-114371831D01*
X180018325Y-114056081D01*
X180085000Y-113720883D01*
X180085000Y-113379117D01*
X180018325Y-113043919D01*
X179887537Y-112728169D01*
X179697663Y-112444002D01*
X179455998Y-112202337D01*
X179171831Y-112012463D01*
X178856081Y-111881675D01*
X178520883Y-111815000D01*
X178179117Y-111815000D01*
X177843919Y-111881675D01*
X177528169Y-112012463D01*
X177244002Y-112202337D01*
X177002337Y-112444002D01*
X176812463Y-112728169D01*
X176681675Y-113043919D01*
X176615000Y-113379117D01*
X134985000Y-113379117D01*
X134918325Y-113043919D01*
X134787537Y-112728169D01*
X134597663Y-112444002D01*
X134355998Y-112202337D01*
X134071831Y-112012463D01*
X133756081Y-111881675D01*
X133420883Y-111815000D01*
X133079117Y-111815000D01*
X132743919Y-111881675D01*
X132428169Y-112012463D01*
X132144002Y-112202337D01*
X131902337Y-112444002D01*
X131712463Y-112728169D01*
X131581675Y-113043919D01*
X131515000Y-113379117D01*
X131460000Y-113379117D01*
X131460000Y-106127263D01*
X163142056Y-106127263D01*
X163142618Y-106173302D01*
X163142056Y-106219342D01*
X163143377Y-106235414D01*
X163235911Y-107214312D01*
X163243986Y-107259646D01*
X163250950Y-107305154D01*
X163254875Y-107320778D01*
X163254878Y-107320795D01*
X163254883Y-107320809D01*
X163506048Y-108271435D01*
X163521419Y-108314842D01*
X163535722Y-108358601D01*
X163542148Y-108373378D01*
X163542152Y-108373390D01*
X163542157Y-108373400D01*
X163945214Y-109270243D01*
X163967467Y-109310555D01*
X163988726Y-109351393D01*
X163997478Y-109364921D01*
X163997484Y-109364932D01*
X163997490Y-109364940D01*
X164541614Y-110183912D01*
X164570140Y-110220033D01*
X164597795Y-110256866D01*
X164608641Y-110268785D01*
X164608648Y-110268793D01*
X164608655Y-110268799D01*
X165279232Y-110987905D01*
X165313289Y-111018895D01*
X165346574Y-111050703D01*
X165359221Y-111060690D01*
X165359229Y-111060698D01*
X165359237Y-111060703D01*
X166138258Y-111660630D01*
X166176917Y-111685640D01*
X166214953Y-111711586D01*
X166229054Y-111719369D01*
X166229070Y-111719380D01*
X166229085Y-111719387D01*
X167038978Y-112153647D01*
X167039538Y-112154106D01*
X167154248Y-112215291D01*
X167278691Y-112252922D01*
X167375663Y-112262388D01*
X172235089Y-112258147D01*
X172332044Y-112248512D01*
X172456421Y-112210664D01*
X172493772Y-112190658D01*
X172597291Y-112144025D01*
X172617215Y-112133004D01*
X172638099Y-112123923D01*
X172652217Y-112116130D01*
X173507158Y-111630455D01*
X173545187Y-111604514D01*
X173583852Y-111579500D01*
X173596499Y-111569512D01*
X173596508Y-111569506D01*
X173596515Y-111569499D01*
X174360646Y-110950718D01*
X174393939Y-110918903D01*
X174427987Y-110887921D01*
X174438833Y-110876001D01*
X174438841Y-110875994D01*
X174438846Y-110875987D01*
X175091654Y-110140713D01*
X175119296Y-110103897D01*
X175147836Y-110067759D01*
X175156596Y-110054219D01*
X175680552Y-109222190D01*
X175701818Y-109181339D01*
X175724064Y-109141040D01*
X175730495Y-109126251D01*
X176111524Y-108219818D01*
X176125828Y-108176054D01*
X176141197Y-108132652D01*
X176145126Y-108117012D01*
X176372995Y-107160519D01*
X176379957Y-107115021D01*
X176388034Y-107069676D01*
X176389355Y-107053604D01*
X176457944Y-106072738D01*
X176457382Y-106026698D01*
X176457944Y-105980658D01*
X176456623Y-105964586D01*
X176364089Y-104985688D01*
X176356014Y-104940354D01*
X176349050Y-104894846D01*
X176345125Y-104879222D01*
X176345122Y-104879205D01*
X176345117Y-104879191D01*
X176093951Y-103928565D01*
X176078588Y-103885180D01*
X176064278Y-103841399D01*
X176057848Y-103826611D01*
X175654786Y-102929757D01*
X175632533Y-102889445D01*
X175611274Y-102848607D01*
X175602515Y-102835067D01*
X175058386Y-102016088D01*
X175029851Y-101979956D01*
X175002205Y-101943135D01*
X174991352Y-101931207D01*
X174320768Y-101212095D01*
X174286708Y-101181102D01*
X174253426Y-101149298D01*
X174240771Y-101139303D01*
X173461742Y-100539370D01*
X173423082Y-100514359D01*
X173385048Y-100488414D01*
X173370941Y-100480627D01*
X173370930Y-100480620D01*
X173370920Y-100480616D01*
X172561022Y-100046353D01*
X172560462Y-100045894D01*
X172445752Y-99984709D01*
X172321309Y-99947078D01*
X172224337Y-99937612D01*
X167364912Y-99941853D01*
X167267956Y-99951488D01*
X167143579Y-99989336D01*
X167106228Y-100009342D01*
X167002708Y-100055975D01*
X166982779Y-100066999D01*
X166961902Y-100076077D01*
X166947784Y-100083870D01*
X166092842Y-100569544D01*
X166054804Y-100595492D01*
X166016148Y-100620500D01*
X166003492Y-100630495D01*
X165239354Y-101249282D01*
X165206061Y-101281097D01*
X165172013Y-101312079D01*
X165161167Y-101323999D01*
X165161159Y-101324006D01*
X165161154Y-101324013D01*
X164508346Y-102059287D01*
X164480704Y-102096103D01*
X164452164Y-102132241D01*
X164443404Y-102145781D01*
X163919447Y-102977811D01*
X163898181Y-103018662D01*
X163875936Y-103058960D01*
X163869505Y-103073749D01*
X163488476Y-103980182D01*
X163474177Y-104023931D01*
X163458802Y-104067348D01*
X163454874Y-104082989D01*
X163227005Y-105039481D01*
X163220039Y-105084999D01*
X163211966Y-105130324D01*
X163210646Y-105146380D01*
X163210644Y-105146395D01*
X163210644Y-105146408D01*
X163142056Y-106127263D01*
X131460000Y-106127263D01*
X131460000Y-98479117D01*
X131515000Y-98479117D01*
X131515000Y-98820883D01*
X131581675Y-99156081D01*
X131712463Y-99471831D01*
X131902337Y-99755998D01*
X132144002Y-99997663D01*
X132428169Y-100187537D01*
X132743919Y-100318325D01*
X133079117Y-100385000D01*
X133420883Y-100385000D01*
X133756081Y-100318325D01*
X134071831Y-100187537D01*
X134355998Y-99997663D01*
X134597663Y-99755998D01*
X134787537Y-99471831D01*
X134918325Y-99156081D01*
X134985000Y-98820883D01*
X134985000Y-98479117D01*
X176615000Y-98479117D01*
X176615000Y-98820883D01*
X176681675Y-99156081D01*
X176812463Y-99471831D01*
X177002337Y-99755998D01*
X177244002Y-99997663D01*
X177528169Y-100187537D01*
X177843919Y-100318325D01*
X178179117Y-100385000D01*
X178520883Y-100385000D01*
X178856081Y-100318325D01*
X179171831Y-100187537D01*
X179455998Y-99997663D01*
X179697663Y-99755998D01*
X179887537Y-99471831D01*
X180018325Y-99156081D01*
X180085000Y-98820883D01*
X180085000Y-98479117D01*
X180018325Y-98143919D01*
X179887537Y-97828169D01*
X179697663Y-97544002D01*
X179455998Y-97302337D01*
X179171831Y-97112463D01*
X178856081Y-96981675D01*
X178520883Y-96915000D01*
X178179117Y-96915000D01*
X177843919Y-96981675D01*
X177528169Y-97112463D01*
X177244002Y-97302337D01*
X177002337Y-97544002D01*
X176812463Y-97828169D01*
X176681675Y-98143919D01*
X176615000Y-98479117D01*
X134985000Y-98479117D01*
X134918325Y-98143919D01*
X134787537Y-97828169D01*
X134597663Y-97544002D01*
X134355998Y-97302337D01*
X134071831Y-97112463D01*
X133756081Y-96981675D01*
X133420883Y-96915000D01*
X133079117Y-96915000D01*
X132743919Y-96981675D01*
X132428169Y-97112463D01*
X132144002Y-97302337D01*
X131902337Y-97544002D01*
X131712463Y-97828169D01*
X131581675Y-98143919D01*
X131515000Y-98479117D01*
X131460000Y-98479117D01*
X131460000Y-98382278D01*
X131495290Y-98022362D01*
X131590444Y-97707198D01*
X131745000Y-97416519D01*
X131953071Y-97161400D01*
X132206736Y-96951550D01*
X132496323Y-96794970D01*
X132810820Y-96697617D01*
X133168721Y-96660000D01*
X178417722Y-96660000D01*
X178777638Y-96695290D01*
G04 #@! TA.AperFunction,NonConductor*
D11*
G36*
X178777638Y-96695290D02*
G01*
X179092802Y-96790444D01*
X179383481Y-96945000D01*
X179638600Y-97153071D01*
X179848450Y-97406736D01*
X180005030Y-97696323D01*
X180102383Y-98010820D01*
X180140000Y-98368721D01*
X180140001Y-113817712D01*
X180104710Y-114177638D01*
X180009556Y-114492802D01*
X179855000Y-114783481D01*
X179646929Y-115038600D01*
X179393264Y-115248450D01*
X179103673Y-115405032D01*
X178789181Y-115502383D01*
X178431279Y-115540000D01*
X133182278Y-115540000D01*
X132822362Y-115504710D01*
X132507198Y-115409556D01*
X132216519Y-115255000D01*
X131961400Y-115046929D01*
X131751550Y-114793264D01*
X131594968Y-114503673D01*
X131497617Y-114189181D01*
X131460000Y-113831279D01*
X131460000Y-113379117D01*
X131515000Y-113379117D01*
X131515000Y-113720883D01*
X131581675Y-114056081D01*
X131712463Y-114371831D01*
X131902337Y-114655998D01*
X132144002Y-114897663D01*
X132428169Y-115087537D01*
X132743919Y-115218325D01*
X133079117Y-115285000D01*
X133420883Y-115285000D01*
X133756081Y-115218325D01*
X134071831Y-115087537D01*
X134355998Y-114897663D01*
X134597663Y-114655998D01*
X134787537Y-114371831D01*
X134918325Y-114056081D01*
X134985000Y-113720883D01*
X134985000Y-113379117D01*
X176615000Y-113379117D01*
X176615000Y-113720883D01*
X176681675Y-114056081D01*
X176812463Y-114371831D01*
X177002337Y-114655998D01*
X177244002Y-114897663D01*
X177528169Y-115087537D01*
X177843919Y-115218325D01*
X178179117Y-115285000D01*
X178520883Y-115285000D01*
X178856081Y-115218325D01*
X179171831Y-115087537D01*
X179455998Y-114897663D01*
X179697663Y-114655998D01*
X179887537Y-114371831D01*
X180018325Y-114056081D01*
X180085000Y-113720883D01*
X180085000Y-113379117D01*
X180018325Y-113043919D01*
X179887537Y-112728169D01*
X179697663Y-112444002D01*
X179455998Y-112202337D01*
X179171831Y-112012463D01*
X178856081Y-111881675D01*
X178520883Y-111815000D01*
X178179117Y-111815000D01*
X177843919Y-111881675D01*
X177528169Y-112012463D01*
X177244002Y-112202337D01*
X177002337Y-112444002D01*
X176812463Y-112728169D01*
X176681675Y-113043919D01*
X176615000Y-113379117D01*
X134985000Y-113379117D01*
X134918325Y-113043919D01*
X134787537Y-112728169D01*
X134597663Y-112444002D01*
X134355998Y-112202337D01*
X134071831Y-112012463D01*
X133756081Y-111881675D01*
X133420883Y-111815000D01*
X133079117Y-111815000D01*
X132743919Y-111881675D01*
X132428169Y-112012463D01*
X132144002Y-112202337D01*
X131902337Y-112444002D01*
X131712463Y-112728169D01*
X131581675Y-113043919D01*
X131515000Y-113379117D01*
X131460000Y-113379117D01*
X131460000Y-106127263D01*
X163142056Y-106127263D01*
X163142618Y-106173302D01*
X163142056Y-106219342D01*
X163143377Y-106235414D01*
X163235911Y-107214312D01*
X163243986Y-107259646D01*
X163250950Y-107305154D01*
X163254875Y-107320778D01*
X163254878Y-107320795D01*
X163254883Y-107320809D01*
X163506048Y-108271435D01*
X163521419Y-108314842D01*
X163535722Y-108358601D01*
X163542148Y-108373378D01*
X163542152Y-108373390D01*
X163542157Y-108373400D01*
X163945214Y-109270243D01*
X163967467Y-109310555D01*
X163988726Y-109351393D01*
X163997478Y-109364921D01*
X163997484Y-109364932D01*
X163997490Y-109364940D01*
X164541614Y-110183912D01*
X164570140Y-110220033D01*
X164597795Y-110256866D01*
X164608641Y-110268785D01*
X164608648Y-110268793D01*
X164608655Y-110268799D01*
X165279232Y-110987905D01*
X165313289Y-111018895D01*
X165346574Y-111050703D01*
X165359221Y-111060690D01*
X165359229Y-111060698D01*
X165359237Y-111060703D01*
X166138258Y-111660630D01*
X166176917Y-111685640D01*
X166214953Y-111711586D01*
X166229054Y-111719369D01*
X166229070Y-111719380D01*
X166229085Y-111719387D01*
X167038978Y-112153647D01*
X167039538Y-112154106D01*
X167154248Y-112215291D01*
X167278691Y-112252922D01*
X167375663Y-112262388D01*
X172235089Y-112258147D01*
X172332044Y-112248512D01*
X172456421Y-112210664D01*
X172493772Y-112190658D01*
X172597291Y-112144025D01*
X172617215Y-112133004D01*
X172638099Y-112123923D01*
X172652217Y-112116130D01*
X173507158Y-111630455D01*
X173545187Y-111604514D01*
X173583852Y-111579500D01*
X173596499Y-111569512D01*
X173596508Y-111569506D01*
X173596515Y-111569499D01*
X174360646Y-110950718D01*
X174393939Y-110918903D01*
X174427987Y-110887921D01*
X174438833Y-110876001D01*
X174438841Y-110875994D01*
X174438846Y-110875987D01*
X175091654Y-110140713D01*
X175119296Y-110103897D01*
X175147836Y-110067759D01*
X175156596Y-110054219D01*
X175680552Y-109222190D01*
X175701818Y-109181339D01*
X175724064Y-109141040D01*
X175730495Y-109126251D01*
X176111524Y-108219818D01*
X176125828Y-108176054D01*
X176141197Y-108132652D01*
X176145126Y-108117012D01*
X176372995Y-107160519D01*
X176379957Y-107115021D01*
X176388034Y-107069676D01*
X176389355Y-107053604D01*
X176457944Y-106072738D01*
X176457382Y-106026698D01*
X176457944Y-105980658D01*
X176456623Y-105964586D01*
X176364089Y-104985688D01*
X176356014Y-104940354D01*
X176349050Y-104894846D01*
X176345125Y-104879222D01*
X176345122Y-104879205D01*
X176345117Y-104879191D01*
X176093951Y-103928565D01*
X176078588Y-103885180D01*
X176064278Y-103841399D01*
X176057848Y-103826611D01*
X175654786Y-102929757D01*
X175632533Y-102889445D01*
X175611274Y-102848607D01*
X175602515Y-102835067D01*
X175058386Y-102016088D01*
X175029851Y-101979956D01*
X175002205Y-101943135D01*
X174991352Y-101931207D01*
X174320768Y-101212095D01*
X174286708Y-101181102D01*
X174253426Y-101149298D01*
X174240771Y-101139303D01*
X173461742Y-100539370D01*
X173423082Y-100514359D01*
X173385048Y-100488414D01*
X173370941Y-100480627D01*
X173370930Y-100480620D01*
X173370920Y-100480616D01*
X172561022Y-100046353D01*
X172560462Y-100045894D01*
X172445752Y-99984709D01*
X172321309Y-99947078D01*
X172224337Y-99937612D01*
X167364912Y-99941853D01*
X167267956Y-99951488D01*
X167143579Y-99989336D01*
X167106228Y-100009342D01*
X167002708Y-100055975D01*
X166982779Y-100066999D01*
X166961902Y-100076077D01*
X166947784Y-100083870D01*
X166092842Y-100569544D01*
X166054804Y-100595492D01*
X166016148Y-100620500D01*
X166003492Y-100630495D01*
X165239354Y-101249282D01*
X165206061Y-101281097D01*
X165172013Y-101312079D01*
X165161167Y-101323999D01*
X165161159Y-101324006D01*
X165161154Y-101324013D01*
X164508346Y-102059287D01*
X164480704Y-102096103D01*
X164452164Y-102132241D01*
X164443404Y-102145781D01*
X163919447Y-102977811D01*
X163898181Y-103018662D01*
X163875936Y-103058960D01*
X163869505Y-103073749D01*
X163488476Y-103980182D01*
X163474177Y-104023931D01*
X163458802Y-104067348D01*
X163454874Y-104082989D01*
X163227005Y-105039481D01*
X163220039Y-105084999D01*
X163211966Y-105130324D01*
X163210646Y-105146380D01*
X163210644Y-105146395D01*
X163210644Y-105146408D01*
X163142056Y-106127263D01*
X131460000Y-106127263D01*
X131460000Y-98479117D01*
X131515000Y-98479117D01*
X131515000Y-98820883D01*
X131581675Y-99156081D01*
X131712463Y-99471831D01*
X131902337Y-99755998D01*
X132144002Y-99997663D01*
X132428169Y-100187537D01*
X132743919Y-100318325D01*
X133079117Y-100385000D01*
X133420883Y-100385000D01*
X133756081Y-100318325D01*
X134071831Y-100187537D01*
X134355998Y-99997663D01*
X134597663Y-99755998D01*
X134787537Y-99471831D01*
X134918325Y-99156081D01*
X134985000Y-98820883D01*
X134985000Y-98479117D01*
X176615000Y-98479117D01*
X176615000Y-98820883D01*
X176681675Y-99156081D01*
X176812463Y-99471831D01*
X177002337Y-99755998D01*
X177244002Y-99997663D01*
X177528169Y-100187537D01*
X177843919Y-100318325D01*
X178179117Y-100385000D01*
X178520883Y-100385000D01*
X178856081Y-100318325D01*
X179171831Y-100187537D01*
X179455998Y-99997663D01*
X179697663Y-99755998D01*
X179887537Y-99471831D01*
X180018325Y-99156081D01*
X180085000Y-98820883D01*
X180085000Y-98479117D01*
X180018325Y-98143919D01*
X179887537Y-97828169D01*
X179697663Y-97544002D01*
X179455998Y-97302337D01*
X179171831Y-97112463D01*
X178856081Y-96981675D01*
X178520883Y-96915000D01*
X178179117Y-96915000D01*
X177843919Y-96981675D01*
X177528169Y-97112463D01*
X177244002Y-97302337D01*
X177002337Y-97544002D01*
X176812463Y-97828169D01*
X176681675Y-98143919D01*
X176615000Y-98479117D01*
X134985000Y-98479117D01*
X134918325Y-98143919D01*
X134787537Y-97828169D01*
X134597663Y-97544002D01*
X134355998Y-97302337D01*
X134071831Y-97112463D01*
X133756081Y-96981675D01*
X133420883Y-96915000D01*
X133079117Y-96915000D01*
X132743919Y-96981675D01*
X132428169Y-97112463D01*
X132144002Y-97302337D01*
X131902337Y-97544002D01*
X131712463Y-97828169D01*
X131581675Y-98143919D01*
X131515000Y-98479117D01*
X131460000Y-98479117D01*
X131460000Y-98382278D01*
X131495290Y-98022362D01*
X131590444Y-97707198D01*
X131745000Y-97416519D01*
X131953071Y-97161400D01*
X132206736Y-96951550D01*
X132496323Y-96794970D01*
X132810820Y-96697617D01*
X133168721Y-96660000D01*
X178417722Y-96660000D01*
X178777638Y-96695290D01*
G37*
G04 #@! TD.AperFunction*
M02*
